{"glyphs":{"0":{"ha":900,"x_min":0,"x_max":0,"o":"m 54 646 b 450 1007 54 868 200 1007 b 846 646 700 1007 846 868 l 846 342 b 450 -21 846 115 700 -21 b 54 342 200 -21 54 115 m 571 657 b 450 764 571 725 526 764 b 329 657 374 764 329 725 l 329 331 b 450 222 329 263 374 222 b 571 331 526 222 571 263 "},"1":{"ha":624,"x_min":0,"x_max":0,"o":"m 486 986 b 544 928 531 986 544 971 l 544 58 b 486 0 544 15 531 0 l 329 0 b 269 58 285 0 269 15 l 269 638 l 176 585 b 86 608 136 563 107 571 l 21 726 b 49 807 3 767 10 783 l 319 963 b 403 986 346 978 374 986 "},"2":{"ha":851,"x_min":0,"x_max":0,"o":"m 56 764 b 443 1007 119 926 249 1007 b 711 915 556 1007 646 976 b 810 685 776 854 810 778 b 738 453 810 582 786 504 b 496 315 689 401 608 356 b 369 276 453 303 399 288 b 332 243 344 267 332 256 l 332 235 l 731 235 b 790 175 775 235 790 219 l 790 58 b 731 0 790 15 775 0 l 106 0 b 46 58 61 0 46 15 l 46 169 b 135 376 46 258 74 326 b 217 433 165 400 193 419 b 315 479 240 446 274 461 b 382 508 347 493 369 503 b 438 538 394 514 413 524 b 489 574 461 550 479 563 b 529 672 508 594 529 632 b 435 764 529 726 494 764 b 314 672 378 764 346 739 b 239 635 293 628 282 622 l 92 689 b 56 764 51 704 40 724 "},"3":{"ha":869,"x_min":0,"x_max":0,"o":"m 729 929 b 818 719 789 878 818 807 b 710 517 818 632 782 564 b 847 283 801 468 847 390 b 472 -21 847 89 722 -21 b 63 222 258 -21 122 60 b 100 297 49 260 61 285 l 236 346 b 311 308 279 361 294 353 b 451 218 333 249 381 218 b 560 300 524 218 560 246 b 468 382 560 354 529 382 l 383 382 b 325 440 339 382 325 397 l 325 556 b 383 615 325 600 339 615 l 444 615 b 539 692 507 615 539 640 b 444 768 539 743 507 768 b 314 678 371 768 340 744 b 239 640 299 635 279 625 l 103 689 b 65 764 63 701 50 724 b 475 1007 126 926 263 1007 b 729 929 585 1007 669 981 "},"4":{"ha":913,"x_min":0,"x_max":0,"o":"m 831 410 b 889 351 874 410 889 394 l 889 254 b 831 196 889 211 874 196 l 760 196 l 760 58 b 701 0 760 15 744 0 l 558 0 b 500 58 514 0 500 15 l 500 196 l 79 196 b 21 254 36 196 21 211 l 21 346 b 51 440 21 394 25 408 l 474 944 b 564 986 501 978 519 986 l 701 986 b 760 928 744 986 760 971 l 760 410 m 500 644 l 306 410 l 500 410 "},"5":{"ha":851,"x_min":0,"x_max":0,"o":"m 721 988 b 781 928 765 988 781 972 l 781 803 b 721 744 781 758 765 744 l 376 744 l 367 647 l 460 647 b 824 317 703 647 824 513 b 724 75 824 218 790 138 b 447 -21 656 11 564 -21 b 43 208 225 -21 103 51 b 79 283 28 251 39 268 l 228 339 b 300 304 265 354 283 347 b 435 226 321 253 367 226 b 538 329 503 226 538 261 b 426 424 538 392 500 424 l 138 424 b 76 492 88 424 72 443 l 119 904 b 213 988 126 967 147 988 "},"6":{"ha":904,"x_min":0,"x_max":0,"o":"m 328 615 b 472 626 365 622 413 626 b 860 306 738 626 860 524 b 457 -21 860 96 711 -21 b 54 353 194 -21 54 113 l 54 633 b 457 1007 54 874 196 1007 b 844 786 658 1007 788 933 b 807 711 860 743 850 726 l 675 660 b 599 699 632 647 622 656 b 461 764 578 742 532 764 b 328 635 368 764 328 725 m 328 322 b 457 214 328 250 371 214 b 586 304 550 214 586 244 b 457 392 586 365 551 392 b 328 375 403 392 360 386 "},"7":{"ha":789,"x_min":0,"x_max":0,"o":"m 713 986 b 771 928 757 986 771 971 l 771 833 b 754 751 771 803 765 775 l 425 51 b 315 0 404 8 388 0 l 163 0 b 133 58 125 0 115 19 l 453 743 l 83 743 b 24 803 39 743 24 758 l 24 928 b 83 986 24 971 39 986 "},"8":{"ha":900,"x_min":0,"x_max":0,"o":"m 75 710 b 449 1007 75 897 217 1007 b 825 728 693 1007 825 907 b 726 524 825 649 792 581 b 857 289 814 472 857 393 b 449 -21 857 96 728 -21 b 42 263 178 -21 42 74 b 179 493 42 360 88 436 b 75 710 110 542 75 614 m 553 704 b 450 778 553 753 518 778 b 353 704 385 778 353 753 b 451 617 353 658 383 638 l 493 606 b 553 704 533 632 553 664 m 571 286 b 515 357 571 324 550 340 b 460 375 504 361 475 371 b 386 396 444 379 407 390 b 317 289 340 365 317 329 b 447 206 317 233 360 206 b 571 286 529 206 571 232 "},"9":{"ha":904,"x_min":0,"x_max":0,"o":"m 576 371 b 432 360 539 364 492 360 b 44 681 167 360 44 463 b 447 1007 44 890 193 1007 b 850 633 710 1007 850 874 l 850 353 b 447 -21 850 113 708 -21 b 60 200 246 -21 117 53 b 97 275 44 243 54 260 l 229 326 b 306 288 272 339 282 331 b 443 222 328 244 374 222 b 576 351 536 222 576 261 m 576 664 b 447 772 576 736 533 772 b 318 682 354 772 318 742 b 447 594 318 621 353 594 b 576 611 501 594 544 600 "}," ":{"ha":250,"x_min":0,"x_max":0,"o":""},"!":{"ha":394,"x_min":0,"x_max":0,"o":"m 276 1026 b 331 975 317 1026 332 1014 l 306 376 b 254 324 304 338 293 324 l 140 324 b 88 376 101 324 89 338 l 65 975 b 119 1026 64 1014 79 1026 m 231 254 b 340 146 314 254 340 228 l 340 97 b 231 -11 340 15 314 -11 l 161 -11 b 53 97 79 -11 53 15 l 53 146 b 161 254 53 228 79 254 "},"\"":{"ha":569,"x_min":0,"x_max":0,"o":"m 246 664 b 190 619 242 625 233 619 l 106 619 b 57 664 65 619 57 625 l 57 939 b 106 986 57 979 65 986 l 228 986 b 276 939 268 986 281 978 m 499 664 b 442 619 493 625 485 619 l 357 619 b 310 664 317 619 310 625 l 310 939 b 357 986 310 979 318 986 l 479 986 b 528 939 519 986 532 978 "},"#":{"ha":1065,"x_min":0,"x_max":0,"o":"m 1000 749 b 1039 697 1040 749 1050 736 l 1006 582 b 935 533 994 547 975 533 l 854 533 l 814 399 l 897 399 b 938 347 938 399 950 385 l 900 232 b 829 182 889 194 872 182 l 750 182 l 711 53 b 644 0 701 18 679 0 l 517 0 b 478 53 476 0 467 15 l 517 182 l 394 182 l 356 53 b 288 0 344 14 326 0 l 161 0 b 124 53 124 0 111 18 l 161 182 l 79 182 b 40 235 40 182 31 196 l 76 350 b 147 399 88 388 104 399 l 226 399 l 267 533 l 185 533 b 144 585 144 533 132 547 l 181 700 b 250 749 192 738 210 749 l 331 749 l 369 882 b 438 935 379 917 403 935 l 564 935 b 603 882 604 935 614 919 l 564 749 l 686 749 l 725 882 b 793 935 738 921 754 935 l 921 935 b 958 882 958 935 971 917 l 919 749 m 500 533 l 458 399 l 581 399 l 622 533 "},"$":{"ha":863,"x_min":0,"x_max":0,"o":"m 525 1057 b 578 1004 564 1057 578 1044 l 578 957 b 817 788 690 938 771 881 b 785 711 835 749 828 729 l 650 651 b 576 681 613 635 597 640 b 451 749 550 729 519 749 b 336 686 369 749 336 731 b 479 615 336 643 383 628 b 586 599 535 610 529 608 b 643 586 611 594 631 590 b 744 540 668 578 721 560 b 818 454 767 521 803 489 b 846 314 833 419 846 369 b 578 33 846 163 751 65 l 578 -15 b 525 -69 578 -56 564 -69 l 381 -69 b 328 -15 340 -69 328 -56 l 328 31 b 61 222 189 51 100 115 b 97 296 49 258 60 283 l 226 342 b 306 313 267 358 288 351 b 443 244 326 267 372 244 b 575 311 531 244 575 267 b 440 381 575 354 531 369 b 215 435 333 396 258 414 b 64 683 114 481 64 564 b 328 957 64 832 156 928 l 328 1004 b 381 1057 328 1044 340 1057 "},"%":{"ha":1254,"x_min":0,"x_max":0,"o":"m 35 790 b 282 1007 35 925 122 1007 b 529 790 442 1007 529 925 l 529 685 b 282 471 529 551 442 471 b 35 685 122 471 35 551 m 1060 986 b 1088 931 1099 986 1110 960 l 443 51 b 399 10 426 29 411 15 b 328 0 386 3 363 0 l 201 0 b 172 58 161 0 149 29 l 818 938 b 926 986 847 981 861 986 m 340 778 b 282 828 340 811 321 828 b 222 778 242 828 222 811 l 222 700 b 282 649 222 665 242 649 b 340 700 321 649 340 665 m 725 299 b 972 517 725 436 813 517 b 1219 299 1132 517 1219 436 l 1219 194 b 972 -21 1219 60 1132 -21 b 725 194 813 -21 725 60 m 1032 286 b 974 336 1032 319 1013 336 b 914 286 933 336 914 319 l 914 208 b 974 158 914 175 933 158 b 1032 208 1013 158 1032 175 "},"&":{"ha":969,"x_min":0,"x_max":0,"o":"m 132 732 b 208 928 132 808 157 874 b 422 1007 260 981 331 1007 b 622 933 501 1007 568 982 b 703 747 676 883 703 821 b 557 504 703 643 654 561 l 544 497 l 635 400 l 701 467 b 771 467 725 490 747 490 l 871 368 b 867 307 889 349 888 328 l 790 232 l 957 51 b 933 0 985 24 976 0 l 754 0 b 676 31 721 0 694 10 l 631 79 b 356 -21 538 3 460 -21 b 119 63 257 -21 179 7 b 29 288 60 118 29 193 b 194 553 29 403 85 490 b 132 732 153 606 132 665 m 481 750 b 422 808 481 785 457 808 b 360 744 383 808 360 782 b 399 656 360 715 372 686 l 428 671 b 481 750 463 692 481 718 m 344 389 b 275 286 299 365 275 332 b 371 196 275 232 314 196 b 478 246 406 196 440 213 "},"'":{"ha":317,"x_min":0,"x_max":0,"o":"m 246 664 b 190 619 242 625 233 619 l 106 619 b 57 664 65 619 57 625 l 57 939 b 106 986 57 979 65 986 l 228 986 b 276 939 268 986 281 978 "},"(":{"ha":442,"x_min":0,"x_max":0,"o":"m 57 826 b 268 1196 57 1019 128 1131 b 340 1161 306 1211 319 1201 l 407 1025 b 378 953 422 986 417 975 b 308 819 332 928 308 883 l 308 168 b 378 35 308 97 328 63 b 407 -37 417 13 424 0 l 340 -175 b 268 -208 319 -214 306 -224 b 57 161 128 -143 57 -32 "},")":{"ha":442,"x_min":0,"x_max":0,"o":"m 107 1161 b 179 1196 128 1201 142 1211 b 389 826 318 1131 389 1019 l 389 161 b 179 -208 389 -32 318 -143 b 107 -175 142 -224 128 -214 l 40 -37 b 69 35 24 1 31 13 b 138 168 119 61 138 96 l 138 819 b 69 953 138 890 118 926 b 40 1025 31 975 24 986 "},"*":{"ha":485,"x_min":0,"x_max":0,"o":"m 281 944 b 315 904 310 944 321 931 l 300 808 l 386 853 b 436 832 414 868 426 861 l 454 781 b 425 736 463 754 453 740 l 329 721 l 397 653 b 394 600 418 632 418 615 l 350 569 b 296 581 326 553 308 557 l 254 664 l 211 581 b 161 565 199 554 182 549 l 114 600 b 111 653 93 617 92 635 l 181 721 l 85 736 b 56 782 57 740 47 756 l 74 832 b 124 853 82 858 99 865 l 210 808 l 193 904 b 226 944 188 931 199 944 "},"+":{"ha":767,"x_min":0,"x_max":0,"o":"m 672 569 b 731 510 717 569 731 554 l 731 400 b 672 340 731 356 717 340 l 497 340 l 497 165 b 438 107 497 121 482 107 l 328 107 b 268 165 283 107 268 121 l 268 340 l 94 340 b 36 400 50 340 36 356 l 36 510 b 94 569 36 554 50 569 l 268 569 l 268 743 b 328 801 268 788 283 801 l 438 801 b 497 743 482 801 497 788 l 497 569 "},",":{"ha":363,"x_min":0,"x_max":0,"o":"m 217 -117 b 143 -169 201 -156 186 -169 l 65 -169 b 26 -129 31 -169 22 -161 l 65 188 b 136 258 71 239 88 258 l 265 258 b 319 188 318 258 336 235 "},"-":{"ha":558,"x_min":0,"x_max":0,"o":"m 440 485 b 499 426 483 485 499 471 l 499 308 b 440 250 499 264 483 250 l 118 250 b 60 308 75 250 60 264 l 60 426 b 118 485 60 471 75 485 "},".":{"ha":365,"x_min":0,"x_max":0,"o":"m 210 264 b 318 154 292 264 318 236 l 318 97 b 210 -11 318 15 292 -11 l 157 -11 b 47 97 74 -11 47 15 l 47 154 b 157 264 47 236 74 264 "},"/":{"ha":685,"x_min":0,"x_max":0,"o":"m 301 -35 b 231 -83 286 -72 271 -83 l 75 -83 b 39 -35 36 -83 26 -68 l 401 938 b 472 986 417 976 432 986 l 628 986 b 663 938 667 986 675 972 "},":":{"ha":394,"x_min":0,"x_max":0,"o":"m 224 750 b 333 640 307 750 333 722 l 333 583 b 224 475 333 501 307 475 l 171 475 b 61 583 88 475 61 501 l 61 640 b 171 750 61 722 88 750 m 224 264 b 333 154 307 264 333 236 l 333 97 b 224 -11 333 15 307 -11 l 171 -11 b 61 97 88 -11 61 15 l 61 154 b 171 264 61 236 88 264 "},";":{"ha":396,"x_min":0,"x_max":0,"o":"m 236 750 b 346 640 319 750 346 722 l 346 583 b 236 475 346 501 319 475 l 183 475 b 74 583 101 475 74 501 l 74 640 b 183 750 74 722 101 750 m 224 -117 b 150 -169 208 -156 193 -169 l 72 -169 b 33 -129 39 -169 32 -161 l 72 188 b 144 258 78 239 96 258 l 272 258 b 326 188 325 258 343 235 "},"<":{"ha":685,"x_min":0,"x_max":0,"o":"m 560 840 b 621 796 600 864 621 849 l 621 664 b 568 568 621 603 611 590 l 343 460 l 343 454 l 567 346 b 621 250 611 324 621 311 l 621 110 b 560 65 621 57 600 42 l 79 328 b 32 400 42 346 32 361 l 32 506 b 79 579 32 544 44 561 "},"=":{"ha":828,"x_min":0,"x_max":0,"o":"m 703 726 b 761 667 747 726 761 711 l 761 549 b 703 490 761 506 747 490 l 125 490 b 67 549 81 490 67 506 l 67 667 b 125 726 67 711 81 726 m 703 417 b 761 358 747 417 761 401 l 761 240 b 703 181 761 196 747 181 l 125 181 b 67 240 81 181 67 196 l 67 358 b 125 417 67 401 81 417 "},">":{"ha":685,"x_min":0,"x_max":0,"o":"m 64 797 b 125 840 64 849 79 863 l 606 579 b 653 507 640 561 653 544 l 653 400 b 606 328 653 361 643 346 l 125 65 b 64 110 79 43 64 56 l 64 247 b 118 343 64 308 74 321 l 340 450 l 340 457 l 117 565 b 64 661 72 588 64 600 "},"?":{"ha":824,"x_min":0,"x_max":0,"o":"m 56 783 b 444 1026 121 946 251 1026 b 714 947 558 1026 649 1000 b 811 738 779 893 811 824 b 690 508 818 622 746 543 b 624 467 672 496 650 482 b 567 433 596 451 576 440 b 515 357 532 410 515 385 b 458 301 515 314 501 301 l 333 301 b 276 357 290 301 276 314 b 393 581 276 478 321 538 b 475 628 411 592 457 615 b 507 653 485 635 494 643 b 539 735 529 674 539 700 b 443 814 539 783 506 814 b 300 696 372 814 339 781 b 225 658 279 651 268 646 l 92 708 b 56 783 54 721 42 746 m 433 254 b 542 146 515 254 542 228 l 542 97 b 433 -11 542 15 515 -11 l 364 -11 b 254 97 281 -11 254 15 l 254 146 b 364 254 254 228 281 254 "},"@":{"ha":1257,"x_min":0,"x_max":0,"o":"m 43 458 b 194 860 43 626 93 761 b 625 1007 294 958 438 1007 b 1058 860 813 1007 957 958 b 1208 458 1158 761 1208 628 l 1208 354 b 1138 132 1208 260 1185 186 b 957 50 1089 78 1029 50 b 829 101 897 50 869 64 b 586 67 758 78 676 67 b 322 311 410 67 322 149 l 322 500 b 586 746 322 664 410 746 b 863 700 692 746 783 731 b 908 632 901 685 908 672 l 908 256 b 956 214 908 228 924 214 b 1029 351 996 214 1029 256 l 1029 461 b 625 849 1029 706 888 849 b 222 461 364 849 222 706 l 222 351 b 625 -24 222 108 363 -24 b 928 6 707 -24 808 -14 b 972 -24 965 13 972 8 l 972 -100 b 931 -151 972 -135 964 -144 b 625 -183 843 -172 740 -183 b 193 -40 438 -183 293 -136 b 43 354 93 56 43 186 m 707 565 b 608 574 685 571 651 574 b 513 496 540 574 513 550 l 513 315 b 608 239 513 261 540 239 b 718 247 665 239 701 242 l 718 553 b 707 565 718 560 714 564 "},"A":{"ha":956,"x_min":0,"x_max":0,"o":"m 971 57 b 931 0 985 19 971 0 l 781 0 b 676 58 710 0 688 14 l 644 158 l 344 158 l 313 58 b 211 0 297 14 278 0 l 65 0 b 28 57 26 0 14 19 l 347 938 b 419 986 360 976 376 986 l 578 986 b 650 940 618 986 638 975 m 531 539 b 501 706 514 594 503 668 l 500 733 l 486 733 b 460 540 488 667 478 603 l 408 376 l 582 376 "},"B":{"ha":914,"x_min":0,"x_max":0,"o":"m 536 988 b 843 724 729 988 843 892 b 743 519 843 633 810 565 l 743 514 b 883 275 836 474 883 393 b 789 72 883 188 851 121 b 542 0 725 24 643 0 l 129 0 b 69 58 85 0 69 15 l 69 928 b 129 988 69 972 85 988 m 564 686 b 479 764 564 738 536 764 l 344 764 l 344 611 l 479 611 b 564 686 536 611 564 636 m 594 307 b 506 388 594 361 565 388 l 344 388 l 344 225 l 506 225 b 594 307 565 225 594 253 "},"C":{"ha":904,"x_min":0,"x_max":0,"o":"m 46 618 b 474 1007 46 861 201 1007 b 879 764 683 1007 818 926 b 842 689 894 724 882 701 l 693 636 b 618 674 650 624 633 631 b 474 764 594 733 546 764 b 321 619 367 764 321 718 l 321 367 b 474 222 321 268 367 222 b 618 313 547 222 596 253 b 693 350 635 357 650 365 l 842 297 b 879 222 882 285 894 263 b 474 -21 818 60 683 -21 b 46 368 201 -21 46 125 "},"D":{"ha":940,"x_min":0,"x_max":0,"o":"m 468 986 b 894 597 739 986 894 840 l 894 389 b 468 0 894 149 739 0 l 129 0 b 69 58 85 0 69 15 l 69 928 b 129 986 69 971 85 986 m 619 593 b 458 743 619 693 565 743 l 344 743 l 344 243 l 458 243 b 619 393 565 243 619 293 "},"E":{"ha":817,"x_min":0,"x_max":0,"o":"m 711 986 b 771 928 756 986 771 971 l 771 803 b 711 743 771 758 756 743 l 344 743 l 344 619 l 638 619 b 697 561 682 619 697 604 l 697 436 b 638 376 697 392 682 376 l 344 376 l 344 243 l 724 243 b 782 185 767 243 782 229 l 782 58 b 724 0 782 15 767 0 l 129 0 b 69 58 85 0 69 15 l 69 928 b 129 986 69 971 85 986 "},"F":{"ha":799,"x_min":0,"x_max":0,"o":"m 711 986 b 771 928 756 986 771 971 l 771 803 b 711 743 771 758 756 743 l 344 743 l 344 582 l 638 582 b 697 524 682 582 697 567 l 697 399 b 638 339 697 354 682 339 l 344 339 l 344 58 b 286 0 344 15 331 0 l 129 0 b 69 58 85 0 69 15 l 69 928 b 129 986 69 971 85 986 "},"G":{"ha":940,"x_min":0,"x_max":0,"o":"m 842 567 b 900 507 886 567 900 551 l 900 324 b 788 76 900 222 863 140 b 474 -21 711 11 607 -21 b 46 368 201 -21 46 125 l 46 618 b 474 1007 46 861 201 1007 b 879 764 683 1007 818 926 b 842 689 894 724 882 701 l 693 636 b 618 674 650 621 633 631 b 474 764 594 733 546 764 b 321 619 367 764 321 718 l 321 367 b 474 222 321 268 367 222 b 624 317 567 222 624 257 l 624 344 l 490 344 b 432 403 447 344 432 358 l 432 507 b 490 567 432 551 447 567 "},"H":{"ha":958,"x_min":0,"x_max":0,"o":"m 831 988 b 889 928 874 988 889 972 l 889 58 b 831 0 889 15 874 0 l 672 0 b 614 58 629 0 614 15 l 614 378 l 344 378 l 344 58 b 286 0 344 15 331 0 l 129 0 b 69 58 85 0 69 15 l 69 928 b 129 988 69 972 85 988 l 286 988 b 344 928 331 988 344 972 l 344 621 l 614 621 l 614 928 b 672 988 614 972 629 988 "},"I":{"ha":415,"x_min":0,"x_max":0,"o":"m 69 931 b 125 986 69 971 85 986 l 289 986 b 344 931 329 986 344 971 l 344 56 b 289 0 344 15 329 0 l 125 0 b 69 56 85 0 69 15 "},"J":{"ha":815,"x_min":0,"x_max":0,"o":"m 715 988 b 772 929 758 988 772 972 l 772 343 b 390 -21 772 111 639 -21 b 29 214 207 -21 86 57 b 65 289 15 250 28 275 l 210 340 b 288 307 250 356 271 347 b 396 222 311 250 347 222 b 497 342 464 222 497 263 l 497 929 b 556 988 497 972 511 988 "},"K":{"ha":910,"x_min":0,"x_max":0,"o":"m 894 68 b 858 0 915 31 903 0 l 708 0 b 585 58 632 0 607 10 l 464 307 b 369 376 440 357 419 376 l 344 376 l 344 58 b 286 0 344 15 331 0 l 129 0 b 69 58 85 0 69 15 l 69 928 b 129 986 69 971 85 986 l 286 986 b 344 928 331 986 344 971 l 344 619 l 364 619 l 375 619 l 575 935 b 615 978 589 957 603 971 b 686 986 628 983 651 986 l 846 986 b 879 925 889 986 901 963 l 626 522 b 711 415 658 499 688 464 "},"L":{"ha":753,"x_min":0,"x_max":0,"o":"m 286 986 b 344 928 331 986 344 971 l 344 243 l 679 243 b 738 185 722 243 738 229 l 738 58 b 679 0 738 15 722 0 l 129 0 b 69 58 85 0 69 15 l 69 928 b 129 986 69 971 85 986 "},"M":{"ha":1146,"x_min":0,"x_max":0,"o":"m 1017 988 b 1076 929 1061 988 1076 974 l 1076 57 b 1017 0 1076 14 1061 0 l 865 0 b 807 57 821 0 807 14 l 807 256 b 868 619 807 356 828 476 l 853 619 b 811 507 846 596 832 558 b 760 390 790 456 774 417 l 682 233 b 615 193 665 204 650 193 l 522 193 b 456 233 485 193 471 201 l 374 390 b 288 619 344 442 317 518 l 274 619 b 331 254 311 468 331 346 l 331 57 b 271 0 331 14 315 0 l 129 0 b 69 57 85 0 69 14 l 69 929 b 129 988 69 974 85 988 l 260 988 b 342 944 308 988 321 979 l 571 494 l 800 943 b 878 988 818 981 832 988 "},"N":{"ha":972,"x_min":0,"x_max":0,"o":"m 844 986 b 903 928 888 986 903 971 l 903 58 b 844 0 903 15 888 0 l 688 0 b 631 28 661 0 643 10 l 417 357 b 350 483 388 403 365 444 b 294 643 333 522 315 575 l 283 643 b 310 521 296 586 306 544 b 324 422 314 497 319 464 b 329 285 328 379 329 333 l 329 58 b 269 0 329 15 314 0 l 129 0 b 69 58 85 0 69 15 l 69 928 b 129 986 69 971 85 986 l 293 986 b 351 958 319 986 339 976 l 579 603 b 644 481 608 558 632 510 b 696 349 656 451 679 388 l 707 349 b 658 533 683 428 667 489 b 644 700 649 578 644 633 l 644 928 b 703 986 644 971 658 986 "},"O":{"ha":947,"x_min":0,"x_max":0,"o":"m 46 618 b 474 1007 46 861 201 1007 b 900 618 744 1007 900 861 l 900 368 b 474 -21 900 125 744 -21 b 46 368 201 -21 46 125 m 625 631 b 474 764 625 718 569 764 b 321 631 375 764 321 718 l 321 356 b 474 222 321 268 375 222 b 625 356 569 222 625 268 "},"P":{"ha":899,"x_min":0,"x_max":0,"o":"m 513 986 b 871 639 731 986 871 857 b 515 296 871 422 733 296 l 344 296 l 344 58 b 286 0 344 15 331 0 l 129 0 b 69 58 85 0 69 15 l 69 928 b 129 986 69 971 85 986 m 482 539 b 586 640 547 539 586 579 b 482 743 586 701 547 743 l 344 743 l 344 539 "},"Q":{"ha":965,"x_min":0,"x_max":0,"o":"m 913 49 b 906 -35 940 15 939 -6 l 803 -115 b 721 -108 774 -142 746 -139 l 631 -1 b 474 -21 583 -14 531 -21 b 46 368 201 -21 46 125 l 46 618 b 474 1007 46 861 201 1007 b 900 618 744 1007 900 861 l 900 368 b 836 139 900 275 879 199 m 321 356 b 474 222 321 268 375 222 b 625 356 569 222 625 268 l 625 631 b 474 764 625 718 569 764 b 321 631 375 764 321 718 "},"R":{"ha":918,"x_min":0,"x_max":0,"o":"m 525 986 b 871 651 738 986 871 864 b 721 365 871 517 821 421 b 758 306 736 347 749 326 l 883 68 b 847 0 904 31 892 0 l 697 0 b 569 67 625 0 592 17 l 481 257 b 376 328 454 307 431 328 l 344 328 l 344 58 b 286 0 344 15 331 0 l 129 0 b 69 58 85 0 69 15 l 69 928 b 129 986 69 971 85 986 m 586 653 b 494 743 586 708 554 743 l 344 743 l 344 560 l 494 560 b 586 653 551 560 586 596 "},"S":{"ha":899,"x_min":0,"x_max":0,"o":"m 47 696 b 157 922 47 789 83 865 b 460 1007 229 979 331 1007 b 847 813 664 1007 782 946 b 814 735 865 776 854 750 l 675 675 b 600 704 638 658 622 664 b 460 776 576 753 529 776 b 328 704 372 776 328 753 b 510 619 328 650 386 635 b 708 572 596 608 629 604 b 797 517 746 557 775 538 b 879 296 842 474 879 396 b 760 64 879 197 839 119 b 449 -21 679 7 575 -21 b 44 194 232 -21 97 51 b 82 271 29 238 42 256 l 213 318 b 294 288 253 333 274 326 b 451 214 319 239 372 214 b 600 293 550 214 600 240 b 438 375 600 343 547 360 b 324 394 381 383 381 382 b 264 408 297 399 278 404 b 156 458 235 418 182 438 b 78 550 129 479 93 511 b 47 696 61 588 47 636 "},"T":{"ha":838,"x_min":0,"x_max":0,"o":"m 763 986 b 822 928 807 986 822 971 l 822 803 b 763 743 822 758 807 743 l 557 743 l 557 58 b 497 0 557 15 542 0 l 340 0 b 282 58 296 0 282 15 l 282 743 l 75 743 b 17 803 31 743 17 758 l 17 928 b 75 986 17 971 31 986 "},"U":{"ha":961,"x_min":0,"x_max":0,"o":"m 338 350 b 481 222 338 265 385 222 b 625 350 576 222 625 265 l 625 928 b 683 986 625 971 639 986 l 840 986 b 900 928 885 986 900 971 l 900 363 b 481 -21 900 125 751 -21 b 63 363 213 -21 63 125 l 63 928 b 121 986 63 971 76 986 l 278 986 b 338 928 322 986 338 971 "},"V":{"ha":947,"x_min":0,"x_max":0,"o":"m 924 986 b 961 929 963 986 975 967 l 654 49 b 582 0 642 10 625 0 l 408 0 b 336 46 368 0 349 11 l 28 929 b 68 986 14 967 28 986 l 226 986 b 331 928 297 986 319 972 l 463 453 b 490 300 475 404 486 335 l 493 274 l 506 274 b 535 451 510 338 519 397 l 667 928 b 767 986 678 972 700 986 "},"W":{"ha":1304,"x_min":0,"x_max":0,"o":"m 1256 986 b 1293 929 1296 986 1304 968 l 1072 49 b 1001 0 1063 10 1044 0 l 839 0 b 767 46 799 0 774 15 l 692 369 b 665 619 676 447 667 531 l 654 619 b 624 369 651 533 642 450 l 550 49 b 478 0 539 10 521 0 l 318 0 b 246 46 276 0 253 15 l 26 929 b 64 986 15 968 24 986 l 235 986 b 313 935 286 986 306 975 l 374 571 b 393 325 386 496 393 414 l 403 325 b 429 571 403 410 411 492 l 515 935 b 593 986 525 978 544 986 l 743 986 b 821 935 789 986 811 975 l 906 571 b 932 325 921 503 929 421 l 943 325 b 964 571 946 415 953 497 l 1022 935 b 1101 986 1029 975 1050 986 "},"X":{"ha":922,"x_min":0,"x_max":0,"o":"m 917 58 b 888 0 940 29 931 0 l 708 0 b 594 51 636 0 621 6 l 463 279 l 335 51 b 294 10 321 29 307 15 b 219 0 282 3 257 0 l 49 0 b 19 58 8 0 -3 25 l 304 503 l 32 931 b 61 986 11 960 22 986 l 226 986 b 342 938 300 986 315 981 l 467 724 l 590 938 b 697 986 617 982 631 986 l 875 986 b 903 931 913 986 924 960 l 628 503 "},"Y":{"ha":938,"x_min":0,"x_max":0,"o":"m 904 986 b 933 928 944 986 954 960 l 613 382 l 613 58 b 554 0 613 15 599 0 l 397 0 b 338 58 353 0 338 15 l 338 382 l 18 928 b 47 986 -3 960 7 986 l 214 986 b 290 978 251 986 276 983 b 329 935 303 972 317 958 l 478 651 l 631 935 b 744 986 657 981 672 986 "},"Z":{"ha":849,"x_min":0,"x_max":0,"o":"m 746 986 b 804 928 790 986 804 971 l 804 844 b 786 783 804 821 799 801 l 401 243 l 753 243 b 811 185 797 243 811 229 l 811 58 b 753 0 811 15 797 0 l 94 0 b 36 58 51 0 36 15 l 36 143 b 56 201 36 164 43 183 l 440 743 l 101 743 b 43 803 58 743 43 758 l 43 928 b 101 986 43 971 58 986 "},"[":{"ha":492,"x_min":0,"x_max":0,"o":"m 417 1189 b 468 1138 461 1189 468 1182 l 468 1042 b 417 990 468 997 461 990 l 318 990 l 318 -3 l 417 -3 b 468 -54 461 -3 468 -10 l 468 -153 b 417 -204 468 -197 461 -204 l 122 -204 b 69 -151 78 -204 69 -196 l 69 1136 b 122 1189 69 1179 78 1189 "},"\\":{"ha":686,"x_min":0,"x_max":0,"o":"m 38 938 b 72 986 25 971 33 986 l 228 986 b 299 938 268 986 286 976 l 663 -35 b 628 -83 675 -68 667 -83 l 472 -83 b 401 -35 432 -83 414 -72 "},"]":{"ha":492,"x_min":0,"x_max":0,"o":"m 369 1189 b 422 1136 414 1189 422 1179 l 422 -151 b 369 -204 422 -196 414 -204 l 75 -204 b 24 -153 31 -204 24 -197 l 24 -54 b 75 -3 24 -10 31 -3 l 174 -3 l 174 990 l 75 990 b 24 1042 31 990 24 997 l 24 1138 b 75 1189 24 1182 31 1189 "},"^":{"ha":883,"x_min":0,"x_max":0,"o":"m 494 1125 b 583 1078 539 1125 550 1117 l 838 785 b 808 722 871 743 861 722 l 663 722 b 550 769 597 722 582 729 l 451 900 l 446 900 l 343 769 b 228 722 310 729 293 722 l 92 722 b 63 785 42 722 29 746 l 315 1078 b 406 1125 347 1115 365 1125 "},"_":{"ha":701,"x_min":0,"x_max":0,"o":"m 625 0 b 683 -58 669 0 683 -15 l 683 -176 b 625 -235 683 -221 669 -235 l 76 -235 b 18 -176 32 -235 18 -221 l 18 -58 b 76 0 18 -15 32 0 "},"`":{"ha":357,"x_min":0,"x_max":0,"o":"m 88 1017 b 179 1019 111 1042 142 1043 l 372 903 b 375 850 396 890 397 876 l 336 804 b 271 800 325 790 303 789 l 21 883 b 14 939 -12 894 -8 911 "},"a":{"ha":735,"x_min":0,"x_max":0,"o":"m 56 599 b 364 743 106 694 208 743 b 688 443 597 743 688 633 l 688 101 b 635 18 688 51 678 35 b 360 -21 574 -8 482 -21 b 100 33 233 -21 147 -3 b 29 210 53 69 29 128 b 107 392 29 297 56 358 b 367 442 158 425 244 442 b 429 440 383 442 419 440 l 429 475 b 351 546 429 522 403 546 b 261 499 314 546 285 531 b 185 481 240 471 231 465 l 85 522 b 56 599 46 539 38 558 m 429 265 b 356 267 417 267 393 267 b 282 211 307 267 282 249 b 353 156 282 176 299 156 b 422 160 385 156 408 157 b 429 167 426 160 429 163 "},"b":{"ha":761,"x_min":0,"x_max":0,"o":"m 261 1026 b 315 974 301 1026 315 1014 l 315 735 b 410 743 354 740 386 743 b 722 444 619 743 722 638 l 722 294 b 383 -21 722 85 610 -21 b 110 26 274 -21 183 -6 b 56 108 64 49 56 60 l 56 974 b 110 1026 56 1014 69 1026 m 464 450 b 385 519 464 496 438 519 b 315 510 367 519 344 517 l 315 218 b 318 211 315 214 317 213 b 378 204 331 207 351 204 b 464 281 435 204 464 229 "},"c":{"ha":725,"x_min":0,"x_max":0,"o":"m 39 438 b 383 743 39 631 151 743 b 696 550 549 743 656 665 b 658 475 708 507 699 490 l 529 432 b 453 469 486 419 469 426 b 371 526 438 507 411 526 b 297 451 322 526 297 501 l 297 271 b 371 196 297 221 322 196 b 453 253 411 196 438 215 b 529 288 469 293 486 303 l 663 247 b 699 171 703 235 714 210 b 368 -21 646 43 536 -21 b 39 286 146 -21 39 90 "},"d":{"ha":761,"x_min":0,"x_max":0,"o":"m 39 429 b 353 743 39 633 147 743 b 446 739 363 743 393 742 l 446 975 b 500 1028 446 1014 460 1028 l 651 1028 b 706 975 692 1028 706 1014 l 706 107 b 647 28 706 61 696 49 b 361 -21 565 -4 469 -21 b 119 57 253 -21 172 6 b 39 279 65 108 39 183 m 446 513 b 385 519 425 517 404 519 b 299 443 328 519 299 494 l 299 272 b 378 204 299 226 325 204 b 442 210 404 204 425 206 b 446 217 444 211 446 213 "},"e":{"ha":763,"x_min":0,"x_max":0,"o":"m 38 422 b 385 743 38 629 158 743 b 733 439 614 743 733 617 l 733 363 b 657 290 733 314 708 290 l 296 290 l 296 264 b 386 174 296 204 326 174 b 497 225 433 174 471 190 b 575 239 515 253 529 257 l 671 197 b 697 117 708 179 717 153 b 383 -21 644 25 540 -21 b 38 300 146 -21 38 106 m 474 476 b 385 560 474 532 444 560 b 296 476 325 560 296 532 l 296 458 l 474 458 "},"f":{"ha":539,"x_min":0,"x_max":0,"o":"m 472 1028 b 526 974 513 1028 526 1014 l 526 872 b 472 817 526 829 513 817 b 378 728 406 817 378 789 l 378 722 l 474 722 b 526 669 514 722 526 708 l 526 565 b 474 511 526 525 514 511 l 378 511 l 378 53 b 324 0 378 14 364 0 l 174 0 b 119 53 133 0 119 14 l 119 511 l 74 511 b 21 565 33 511 21 525 l 21 669 b 74 722 21 708 33 722 l 119 722 l 119 725 b 447 1028 119 925 229 1026 "},"g":{"ha":760,"x_min":0,"x_max":0,"o":"m 47 429 b 386 743 47 635 160 743 b 660 696 501 743 593 728 b 714 615 706 675 714 661 l 714 1 b 379 -319 714 -194 608 -319 b 69 -182 231 -319 128 -274 b 96 -101 49 -149 57 -122 l 213 -44 b 288 -58 244 -29 269 -33 b 378 -108 314 -92 343 -108 b 454 -28 429 -108 454 -82 l 454 28 b 360 19 417 22 386 19 b 47 318 150 19 47 125 m 450 513 b 393 518 436 517 417 518 b 307 442 336 518 307 493 l 307 313 b 386 243 307 267 333 243 b 454 250 408 243 444 250 l 454 506 b 450 513 454 510 453 511 "},"h":{"ha":775,"x_min":0,"x_max":0,"o":"m 264 1028 b 317 975 304 1028 317 1014 l 317 738 b 411 743 350 742 382 743 b 724 443 621 743 724 636 l 724 53 b 671 0 724 14 711 0 l 518 0 b 465 53 479 0 465 14 l 465 433 b 382 510 465 485 438 510 b 317 504 353 510 332 508 l 317 53 b 264 0 317 14 304 0 l 111 0 b 58 53 71 0 58 14 l 58 975 b 111 1028 58 1014 71 1028 "},"i":{"ha":374,"x_min":0,"x_max":0,"o":"m 222 1003 b 325 900 300 1003 325 978 l 325 885 b 222 782 325 807 300 782 l 153 782 b 49 885 74 782 49 807 l 49 900 b 153 1003 49 978 74 1003 m 263 722 b 317 669 303 722 317 708 l 317 53 b 263 0 317 14 303 0 l 111 0 b 57 53 71 0 57 14 l 57 669 b 111 722 57 708 71 722 "},"j":{"ha":376,"x_min":0,"x_max":0,"o":"m 222 1003 b 325 900 301 1003 325 978 l 325 885 b 222 782 325 807 301 782 l 153 782 b 50 885 74 782 50 807 l 50 900 b 153 1003 50 978 74 1003 m 263 722 b 317 669 303 722 317 708 l 317 -14 b -36 -319 317 -224 201 -319 b -92 -265 -76 -319 -92 -306 l -92 -147 b -36 -92 -92 -107 -76 -92 b 58 3 26 -92 58 -60 l 58 669 b 113 722 58 708 72 722 "},"k":{"ha":768,"x_min":0,"x_max":0,"o":"m 740 71 b 697 0 767 22 753 0 l 569 0 b 468 53 504 0 485 8 l 406 219 b 342 261 393 247 372 261 l 317 261 l 317 54 b 263 0 317 14 303 0 l 111 0 b 58 54 71 0 58 14 l 58 974 b 111 1028 58 1014 71 1028 l 263 1028 b 317 974 303 1028 317 1014 l 317 472 l 338 472 l 346 472 l 463 672 b 563 722 485 713 503 722 l 686 722 b 729 654 742 722 756 700 l 572 385 b 618 322 589 371 604 350 "},"l":{"ha":378,"x_min":0,"x_max":0,"o":"m 318 53 b 265 0 318 14 304 0 l 113 0 b 60 53 72 0 60 14 l 60 975 b 113 1028 60 1014 72 1028 l 265 1028 b 318 975 304 1028 318 1014 "},"m":{"ha":1131,"x_min":0,"x_max":0,"o":"m 567 707 b 779 743 632 731 703 743 b 1079 443 979 743 1079 643 l 1079 53 b 1026 0 1079 14 1067 0 l 874 0 b 821 53 835 0 821 14 l 821 436 b 750 510 821 485 797 510 b 692 503 732 510 713 507 b 697 439 696 485 697 464 l 697 53 b 643 0 697 14 683 0 l 492 0 b 438 53 451 0 438 14 l 438 436 b 367 510 438 485 414 510 b 319 506 350 510 335 508 b 314 497 315 504 314 501 l 314 53 b 261 0 314 14 301 0 l 108 0 b 56 53 68 0 56 14 l 56 608 b 113 692 56 654 67 674 b 396 743 201 726 296 743 b 567 707 464 743 521 731 "},"n":{"ha":772,"x_min":0,"x_max":0,"o":"m 113 692 b 408 743 201 726 300 743 b 721 443 618 743 721 636 l 721 53 b 668 0 721 14 708 0 l 515 0 b 463 53 476 0 463 14 l 463 433 b 379 510 463 485 435 510 b 318 504 354 510 333 508 b 314 499 315 503 314 501 l 314 53 b 261 0 314 14 301 0 l 108 0 b 56 53 68 0 56 14 l 56 608 b 113 692 56 654 67 674 "},"o":{"ha":767,"x_min":0,"x_max":0,"o":"m 39 439 b 383 743 39 629 161 743 b 728 439 607 743 728 632 l 728 283 b 383 -21 728 90 607 -21 b 39 283 161 -21 39 93 m 471 446 b 383 521 471 496 442 521 b 297 446 326 521 297 496 l 297 276 b 383 203 297 228 326 203 b 471 276 442 203 471 228 "},"p":{"ha":761,"x_min":0,"x_max":0,"o":"m 114 696 b 404 743 193 728 290 743 b 722 443 617 743 722 636 l 722 293 b 399 -21 722 88 611 -21 b 315 -14 386 -21 358 -18 l 315 -251 b 261 -304 315 -292 301 -304 l 110 -304 b 56 -251 69 -304 56 -292 l 56 615 b 114 696 56 661 65 675 m 464 450 b 385 518 464 496 438 518 b 321 511 358 518 336 515 b 315 503 317 510 315 507 l 315 210 b 378 203 336 206 357 203 b 464 279 435 203 464 228 "},"q":{"ha":761,"x_min":0,"x_max":0,"o":"m 378 743 b 651 696 493 743 585 728 b 706 615 697 674 706 661 l 706 -251 b 651 -304 706 -292 692 -304 l 500 -304 b 446 -251 460 -304 446 -292 l 446 -12 b 351 -21 408 -18 378 -21 b 39 278 142 -21 39 85 l 39 429 b 378 743 39 635 151 743 m 299 272 b 378 203 299 226 325 203 b 446 210 400 203 436 210 l 446 503 b 440 513 446 508 444 511 b 385 518 425 517 407 518 b 299 442 328 518 299 493 "},"r":{"ha":503,"x_min":0,"x_max":0,"o":"m 396 743 l 439 743 b 492 690 479 743 492 729 l 492 572 b 439 518 492 532 479 518 l 386 518 b 322 513 361 518 340 517 b 315 504 318 513 315 510 l 315 53 b 261 0 315 14 301 0 l 110 0 b 56 53 69 0 56 14 l 56 615 b 114 699 56 661 68 681 b 396 743 182 725 275 739 "},"s":{"ha":719,"x_min":0,"x_max":0,"o":"m 57 506 b 367 743 57 651 165 743 b 688 594 526 743 633 693 b 658 518 706 560 696 535 l 553 472 b 507 467 531 463 519 458 b 481 492 494 475 497 474 b 381 531 460 518 426 531 b 293 493 314 531 293 521 b 407 447 293 464 317 454 b 714 225 629 429 714 371 b 388 -21 714 74 597 -21 b 57 144 210 -21 100 35 b 90 217 43 179 54 203 l 200 256 b 274 235 246 268 257 263 b 378 190 292 206 326 190 b 478 233 450 190 478 201 b 346 285 478 268 453 278 b 57 506 157 297 57 354 "},"t":{"ha":558,"x_min":0,"x_max":0,"o":"m 328 889 b 382 836 368 889 382 875 l 382 722 l 478 722 b 531 669 518 722 531 708 l 531 565 b 478 511 531 525 518 511 l 382 511 l 382 307 b 476 210 382 233 406 210 b 531 156 519 210 531 196 l 531 36 b 476 -18 531 -4 519 -18 b 122 289 231 -22 122 61 l 122 511 l 63 511 b 10 565 22 511 10 525 l 10 669 b 63 722 10 708 22 722 l 122 722 l 122 836 b 176 889 122 875 136 889 "},"u":{"ha":772,"x_min":0,"x_max":0,"o":"m 664 722 b 717 669 704 722 717 708 l 717 114 b 660 31 717 68 706 49 b 364 -21 572 -4 474 -21 b 51 279 154 -21 51 86 l 51 669 b 104 722 51 708 64 722 l 257 722 b 310 669 297 722 310 708 l 310 289 b 393 213 310 238 338 213 b 449 218 411 213 431 214 b 458 231 456 219 458 224 l 458 669 b 511 722 458 708 472 722 "},"v":{"ha":761,"x_min":0,"x_max":0,"o":"m 713 722 b 757 661 764 722 774 710 l 535 47 b 463 0 519 10 503 0 l 311 0 b 238 47 271 0 250 13 l 24 661 b 68 722 7 710 17 722 l 201 722 b 288 669 261 722 276 713 l 360 428 b 383 281 372 385 382 318 l 385 251 l 396 251 b 421 428 399 321 407 379 l 489 668 b 572 722 501 714 513 722 "},"w":{"ha":1076,"x_min":0,"x_max":0,"o":"m 1022 722 b 1067 661 1072 722 1083 710 l 903 47 b 831 0 894 15 871 0 l 694 0 b 621 47 653 0 628 15 l 576 233 b 554 400 565 283 556 360 l 551 431 l 542 431 b 513 233 535 354 525 289 l 467 47 b 394 0 458 15 435 0 l 268 0 b 194 47 228 0 204 15 l 29 661 b 74 722 13 710 24 722 l 204 722 b 293 669 269 722 286 714 l 326 485 b 342 306 333 442 340 357 l 343 268 l 354 268 b 376 485 358 364 367 436 l 418 668 b 507 722 425 713 442 722 l 596 722 b 683 669 658 722 674 714 l 726 485 b 746 306 736 440 744 356 l 749 268 l 760 268 b 776 485 761 358 767 431 l 810 668 b 897 722 817 713 832 722 "},"x":{"ha":768,"x_min":0,"x_max":0,"o":"m 718 722 b 754 660 771 722 783 701 l 564 372 l 767 63 b 728 0 796 19 788 0 l 589 0 b 492 46 526 0 514 6 l 403 204 l 317 46 b 221 0 296 6 281 0 l 82 0 b 42 63 21 0 13 19 l 246 371 l 51 660 b 93 722 22 701 36 722 l 229 722 b 328 676 289 722 306 715 l 406 542 l 483 676 b 575 722 506 717 518 722 "},"y":{"ha":775,"x_min":0,"x_max":0,"o":"m 675 722 b 728 669 715 722 728 708 l 728 1 b 394 -319 728 -194 624 -319 b 85 -182 246 -319 143 -274 b 111 -101 63 -149 71 -122 l 228 -44 b 304 -62 272 -28 282 -33 b 392 -108 326 -93 356 -108 b 469 -28 443 -108 469 -82 l 469 26 b 375 21 444 22 413 21 b 63 321 165 21 63 128 l 63 669 b 115 722 63 708 75 722 l 268 722 b 321 669 308 722 321 708 l 321 331 b 404 254 321 279 349 254 b 469 260 431 254 451 256 l 469 669 b 522 722 469 708 483 722 "},"z":{"ha":685,"x_min":0,"x_max":0,"o":"m 597 219 b 650 168 638 219 650 207 l 650 53 b 597 0 650 14 638 0 l 89 0 b 35 53 49 0 35 14 l 35 161 b 56 217 35 183 42 201 l 313 503 l 96 503 b 43 554 56 503 43 515 l 43 669 b 96 722 43 708 56 722 l 590 722 b 643 669 629 722 643 708 l 643 561 b 615 497 643 540 633 518 l 351 219 "},"{":{"ha":569,"x_min":0,"x_max":0,"o":"m 493 1189 b 546 1136 532 1189 546 1175 l 546 1019 b 493 967 546 979 532 967 l 425 967 b 393 935 407 967 393 953 l 393 678 b 286 489 393 596 357 532 b 393 299 357 460 393 396 l 393 50 b 425 18 393 32 407 18 l 493 18 b 546 -35 532 18 546 6 l 546 -151 b 493 -204 546 -190 532 -204 l 360 -204 b 146 -6 203 -204 146 -149 l 146 249 b 58 365 146 326 117 365 l 50 365 b 6 418 21 365 6 383 l 6 558 b 50 611 6 593 21 611 l 58 611 b 146 728 117 611 146 650 l 146 989 b 356 1189 146 1129 201 1189 "},"|":{"ha":388,"x_min":0,"x_max":0,"o":"m 267 1189 b 319 1136 307 1189 319 1175 l 319 -151 b 267 -204 319 -190 307 -204 l 122 -204 b 69 -151 82 -204 69 -190 l 69 1136 b 122 1189 69 1175 82 1189 "},"}":{"ha":569,"x_min":0,"x_max":0,"o":"m 214 1189 b 425 989 368 1189 425 1129 l 425 728 b 511 611 425 650 454 611 l 521 611 b 564 558 550 611 564 593 l 564 418 b 519 365 564 383 549 365 l 511 365 b 425 249 454 365 425 326 l 425 -6 b 211 -204 425 -146 368 -204 l 78 -204 b 25 -151 38 -204 25 -190 l 25 -35 b 78 18 25 6 38 18 l 146 18 b 178 50 164 18 178 32 l 178 299 b 283 489 178 396 213 460 b 178 678 213 532 178 596 l 178 935 b 144 967 178 953 163 967 l 78 967 b 25 1019 38 967 25 979 l 25 1136 b 78 1189 25 1175 38 1189 "},"~":{"ha":792,"x_min":0,"x_max":0,"o":"m 113 513 b 296 583 164 560 225 583 b 426 560 338 583 381 575 b 525 536 471 544 504 536 b 603 564 554 536 579 546 b 679 561 636 592 647 590 l 767 479 b 767 396 800 450 800 428 b 583 325 715 349 654 325 b 454 349 542 325 499 333 b 356 372 410 364 376 372 b 278 346 326 372 300 364 b 201 349 243 318 231 319 l 113 431 b 113 513 83 460 83 486 "},"¡":{"ha":385,"x_min":0,"x_max":0,"o":"m 157 467 b 47 576 74 467 47 493 l 47 624 b 157 732 47 707 74 732 l 226 732 b 336 624 310 732 336 707 l 336 576 b 226 467 336 493 310 467 m 114 -306 b 61 -253 74 -306 60 -292 l 83 344 b 136 397 85 385 96 397 l 249 397 b 301 344 289 397 300 385 l 325 -253 b 272 -306 326 -292 313 -306 "},"¢":{"ha":757,"x_min":0,"x_max":0,"o":"m 675 247 b 711 171 715 235 726 210 b 508 -6 674 78 606 19 l 508 -62 b 456 -115 508 -103 494 -115 l 328 -115 b 275 -62 288 -115 275 -103 l 275 -11 b 51 286 126 19 51 118 l 51 438 b 275 731 51 600 126 697 l 275 793 b 328 846 275 833 288 846 l 456 846 b 508 793 494 846 508 833 l 508 729 b 708 550 608 703 675 643 b 672 475 721 507 711 490 l 542 432 b 465 469 499 419 482 426 b 383 526 450 507 424 526 b 310 451 335 526 310 501 l 310 271 b 383 196 310 221 335 196 b 465 253 424 196 450 215 b 542 288 482 293 499 303 "},"£":{"ha":938,"x_min":0,"x_max":0,"o":"m 149 690 b 246 917 149 781 181 857 b 510 1007 310 976 397 1007 b 892 772 701 1007 829 929 b 856 697 907 729 896 714 l 708 643 b 633 681 665 628 656 636 b 518 764 601 742 574 764 b 429 678 463 764 429 729 l 429 554 l 663 554 b 722 494 707 554 722 539 l 722 410 b 663 350 722 365 707 350 l 422 350 l 422 325 b 363 217 421 279 400 243 l 364 208 b 578 235 435 226 506 235 l 826 235 b 886 175 871 235 886 219 l 886 58 b 826 0 886 15 871 0 l 104 0 b 47 58 60 0 47 14 l 47 176 b 75 229 47 208 57 225 l 83 231 b 143 321 121 243 140 272 l 143 350 l 106 350 b 47 410 63 350 47 365 l 47 494 b 106 554 47 539 63 554 l 149 554 "},"¤":{"ha":897,"x_min":0,"x_max":0,"o":"m 831 261 b 831 186 858 233 858 214 l 731 86 b 656 86 703 58 683 58 l 581 161 b 450 133 539 143 496 133 b 317 161 404 133 360 143 l 242 86 b 167 86 214 58 194 58 l 67 186 b 67 261 39 214 39 233 l 143 338 b 143 599 106 421 106 515 l 67 675 b 67 750 39 703 39 722 l 167 850 b 242 850 194 878 214 878 l 317 775 b 450 803 360 793 404 803 b 581 775 496 803 539 793 l 656 850 b 731 850 683 878 703 878 l 831 750 b 831 675 858 722 858 703 l 757 601 b 757 335 794 508 794 428 m 531 549 b 335 468 465 619 333 565 b 531 388 333 368 465 315 b 531 549 574 432 574 504 "},"¥":{"ha":978,"x_min":0,"x_max":0,"o":"m 918 986 b 949 928 958 986 969 960 l 703 547 l 775 547 b 828 494 814 547 828 533 l 828 428 b 775 375 828 389 814 375 l 628 375 l 628 326 l 775 326 b 828 274 814 326 828 313 l 828 207 b 775 154 828 168 814 154 l 633 154 l 633 58 b 575 0 633 15 619 0 l 418 0 b 358 58 374 0 358 15 l 358 154 l 217 154 b 164 207 178 154 164 168 l 164 274 b 217 326 164 313 178 326 l 364 326 l 364 375 l 217 375 b 164 428 178 375 164 389 l 164 494 b 217 547 164 533 178 547 l 289 547 l 44 928 b 74 986 22 960 33 986 l 235 986 b 311 978 272 986 297 983 b 350 935 324 972 338 958 l 499 651 l 651 935 b 765 986 675 981 693 986 "},"¦":{"ha":396,"x_min":0,"x_max":0,"o":"m 271 1189 b 322 1136 310 1189 322 1175 l 322 626 b 271 575 322 588 310 575 l 126 575 b 74 626 86 575 74 588 l 74 1136 b 126 1189 74 1175 86 1189 m 271 411 b 322 360 310 411 322 399 l 322 -150 b 271 -203 322 -189 310 -203 l 126 -203 b 74 -150 86 -203 74 -189 l 74 360 b 126 411 74 399 86 411 "},"§":{"ha":865,"x_min":0,"x_max":0,"o":"m 90 722 b 464 1007 90 901 218 1007 b 815 814 647 1007 754 946 b 782 731 836 774 828 751 l 672 683 b 590 714 632 665 614 671 b 463 785 567 761 524 785 b 365 718 397 785 365 763 b 482 647 365 679 404 664 b 525 639 486 646 501 643 b 572 629 549 635 564 631 b 617 617 579 626 594 622 b 707 582 661 606 669 599 b 810 481 754 558 782 526 b 832 367 821 451 832 411 b 749 186 832 292 804 232 b 839 -19 808 144 839 76 b 451 -304 839 -193 700 -304 b 69 -93 250 -304 124 -233 b 110 -14 56 -56 69 -29 l 224 31 b 304 -7 268 47 286 38 b 444 -83 326 -64 365 -83 b 561 -12 522 -83 561 -60 b 456 50 561 18 526 39 b 335 69 440 53 358 65 b 210 106 306 75 242 90 b 111 183 178 121 132 150 b 71 324 89 215 71 264 b 181 521 71 408 107 474 b 90 722 121 564 90 631 m 438 435 b 396 443 424 436 410 439 b 350 350 364 415 349 385 b 476 261 351 293 394 272 l 518 257 b 557 347 547 283 560 314 b 438 435 556 397 514 418 "},"¨":{"ha":610,"x_min":0,"x_max":0,"o":"m 157 1018 b 260 919 235 1018 260 993 l 260 901 b 157 801 260 828 235 801 l 146 801 b 46 901 69 801 46 828 l 46 919 b 146 1018 46 996 69 1018 m 456 1018 b 557 919 533 1018 557 996 l 557 901 b 456 801 557 828 533 801 l 446 801 b 343 901 368 801 343 828 l 343 919 b 446 1018 343 993 368 1018 "},"©":{"ha":1079,"x_min":0,"x_max":0,"o":"m 40 486 b 186 842 40 626 89 744 b 540 986 282 938 400 986 b 894 842 681 986 799 938 b 1039 486 990 744 1039 626 b 894 132 1039 346 990 228 b 540 -12 799 36 681 -12 b 186 133 401 -12 283 36 b 40 486 89 231 40 349 m 882 486 b 785 732 882 585 850 667 b 540 829 719 797 638 829 b 296 732 443 829 361 797 b 197 486 231 667 197 585 b 296 243 197 390 231 308 b 540 143 361 176 443 143 b 783 243 636 143 718 176 b 882 486 849 308 882 390 m 322 554 b 539 756 322 678 401 756 b 751 622 650 756 721 711 b 726 561 763 583 758 571 l 660 538 b 606 567 628 528 618 533 b 539 606 596 593 574 606 b 476 556 497 606 476 589 l 476 415 b 539 363 476 381 497 363 b 604 403 571 363 593 376 b 660 432 619 436 628 443 l 726 408 b 751 349 758 397 763 386 b 539 214 721 258 650 214 b 322 415 401 214 322 292 "},"ª":{"ha":492,"x_min":0,"x_max":0,"o":"m 71 860 b 256 935 110 910 171 935 b 451 758 386 935 451 876 l 451 579 b 400 510 451 539 440 525 b 253 489 360 496 311 489 b 53 621 103 489 53 533 b 256 756 53 710 106 756 b 275 754 264 756 271 756 l 275 776 b 250 804 275 794 267 804 b 213 785 240 804 228 797 b 143 772 189 761 176 760 l 92 799 b 71 860 60 814 53 833 m 275 651 l 250 651 b 225 629 233 651 225 644 b 250 606 225 611 232 606 l 268 606 l 272 607 b 275 610 274 607 275 608 "},"«":{"ha":889,"x_min":0,"x_max":0,"o":"m 456 211 b 456 144 476 190 476 168 l 375 64 b 310 64 354 43 332 43 l 43 331 b 43 397 19 357 19 371 l 317 674 b 383 674 340 697 363 697 l 458 596 b 458 531 485 572 485 557 l 297 368 m 822 211 b 822 144 843 190 843 168 l 742 64 b 676 64 721 43 699 43 l 410 331 b 410 397 386 351 386 374 l 683 674 b 750 674 706 696 728 696 l 825 596 b 825 531 851 572 851 557 l 664 368 "},"¬":{"ha":831,"x_min":0,"x_max":0,"o":"m 711 589 b 764 536 750 589 764 576 l 764 229 b 711 175 764 189 750 175 l 560 175 b 507 229 521 175 507 189 l 507 360 l 103 360 b 50 414 64 360 50 374 l 50 536 b 103 589 50 576 64 589 "},"®":{"ha":632,"x_min":0,"x_max":0,"o":"m 38 717 b 121 913 38 793 65 858 b 317 994 175 967 240 994 b 513 913 393 994 458 967 b 593 717 567 858 593 793 b 513 521 593 640 567 575 b 317 439 458 467 393 439 b 119 521 240 439 174 467 b 38 717 65 575 38 640 m 182 851 b 126 717 144 814 126 769 b 182 582 126 664 144 619 b 318 525 219 544 264 525 b 451 582 369 525 414 544 b 507 717 489 619 507 664 b 451 851 507 769 489 814 b 318 907 414 889 369 907 b 182 851 264 907 219 889 m 340 854 b 444 754 403 854 444 815 b 399 669 444 714 429 685 l 433 619 b 411 579 450 593 443 579 l 375 579 b 338 600 353 579 349 583 l 303 657 l 290 657 l 290 600 b 269 579 290 583 286 579 l 226 579 b 203 600 208 579 203 583 l 203 831 b 226 854 203 849 208 854 m 290 735 l 333 735 b 353 754 346 735 353 742 b 333 772 353 767 346 772 l 290 772 "},"¯":{"ha":489,"x_min":0,"x_max":0,"o":"m 417 986 b 467 936 456 986 467 976 l 467 878 b 417 828 467 838 456 828 l 78 828 b 28 878 39 828 28 838 l 28 936 b 78 986 28 975 40 986 "},"°":{"ha":583,"x_min":0,"x_max":0,"o":"m 556 771 b 479 585 556 699 531 636 b 293 506 428 532 365 506 b 104 583 218 506 156 532 b 28 771 53 635 28 697 b 104 960 28 846 53 908 b 293 1035 156 1010 218 1035 b 481 960 367 1035 429 1010 b 556 771 531 908 556 846 m 236 826 b 293 692 188 775 222 692 b 372 769 336 692 372 726 b 293 850 372 813 336 850 b 236 826 271 850 251 842 "},"±":{"ha":815,"x_min":0,"x_max":0,"o":"m 696 699 b 756 640 740 699 756 685 l 756 536 b 696 478 756 492 740 478 l 519 478 l 519 399 b 461 340 519 354 504 340 l 353 340 b 293 399 308 340 293 354 l 293 478 l 118 478 b 60 536 74 478 60 492 l 60 640 b 118 699 60 685 74 699 l 293 699 l 293 779 b 353 839 293 824 308 839 l 461 839 b 519 779 504 839 519 824 l 519 699 m 697 307 b 756 249 742 307 756 292 l 756 138 b 697 79 756 94 742 79 l 119 79 b 60 138 75 79 60 94 l 60 249 b 119 307 60 292 75 307 "},"²":{"ha":521,"x_min":0,"x_max":0,"o":"m 49 993 b 275 1124 83 1081 160 1124 b 492 947 410 1124 492 1054 b 360 758 492 847 447 785 l 300 742 b 271 728 281 738 271 732 l 271 725 l 432 725 b 482 676 471 725 482 714 l 482 611 b 435 564 482 576 472 564 l 92 564 b 42 611 54 564 42 578 l 42 657 b 174 843 42 763 72 808 l 247 869 b 296 925 285 882 296 893 b 265 957 296 946 286 957 b 217 925 244 957 228 946 b 147 892 196 886 190 881 l 78 917 b 49 993 40 932 32 950 "},"³":{"ha":528,"x_min":0,"x_max":0,"o":"m 51 997 b 285 1131 83 1086 161 1131 b 496 968 418 1131 496 1069 b 442 856 496 919 478 882 b 513 724 489 832 513 788 b 285 560 513 619 433 560 b 44 692 153 560 74 604 b 68 756 35 725 42 746 l 129 778 b 201 749 172 790 185 783 b 276 711 214 724 239 711 b 324 739 308 711 324 721 b 281 771 324 760 310 771 l 242 771 b 203 811 210 771 203 778 l 203 881 b 246 924 203 915 208 924 l 272 924 b 315 954 301 924 315 933 b 272 983 315 974 301 983 b 200 940 238 983 214 969 b 128 913 185 906 172 897 l 76 935 b 51 997 50 946 42 967 "},"´":{"ha":357,"x_min":0,"x_max":0,"o":"m 204 1019 b 296 1017 242 1043 272 1042 l 369 939 b 363 883 393 913 392 893 l 113 800 b 49 804 81 789 58 790 l 8 850 b 11 903 -12 876 -12 890 "},"µ":{"ha":793,"x_min":0,"x_max":0,"o":"m 678 722 b 731 669 718 722 731 708 l 731 114 b 685 38 731 81 715 56 b 465 -21 624 -1 550 -21 b 324 4 411 -21 364 -12 l 324 -253 b 271 -306 324 -292 311 -306 l 118 -306 b 65 -253 78 -306 65 -292 l 65 669 b 118 722 65 708 78 722 l 271 722 b 324 669 311 722 324 708 l 324 289 b 407 213 324 238 351 213 b 461 218 428 213 446 214 b 472 231 468 219 472 224 l 472 669 b 525 722 472 708 486 722 "},"¶":{"ha":971,"x_min":0,"x_max":0,"o":"m 840 986 b 894 933 881 986 894 972 l 894 -71 b 840 -124 894 -110 881 -124 l 719 -124 b 667 -71 681 -124 667 -110 l 667 744 l 596 744 l 596 -71 b 543 -124 596 -110 583 -124 l 422 -124 b 369 -71 382 -124 369 -110 l 369 294 b 125 393 268 296 188 329 b 31 640 63 457 31 539 b 126 890 31 743 63 826 b 376 986 190 954 274 986 "},"·":{"ha":390,"x_min":0,"x_max":0,"o":"m 222 567 b 331 457 304 567 331 539 l 331 400 b 222 292 331 318 304 292 l 169 292 b 60 400 86 292 60 318 l 60 457 b 169 567 60 539 86 567 "},"¸":{"ha":349,"x_min":0,"x_max":0,"o":"m 228 -64 l 240 -64 b 354 -201 318 -65 364 -124 b 146 -340 344 -294 275 -340 b 42 -325 106 -340 71 -335 b 6 -282 18 -315 6 -301 l 6 -224 b 49 -201 6 -193 19 -186 b 126 -222 76 -215 103 -222 b 174 -190 158 -222 174 -211 b 115 -160 174 -168 160 -161 l 86 -160 b 67 -118 61 -160 54 -146 l 119 0 l 251 0 "},"¹":{"ha":413,"x_min":0,"x_max":0,"o":"m 319 1119 b 383 1061 374 1119 383 1110 l 383 626 b 324 571 383 586 368 571 l 249 571 b 192 626 204 571 192 586 l 192 892 l 154 871 b 74 890 115 850 96 857 l 40 946 b 63 1019 24 978 31 1001 l 208 1104 b 274 1119 226 1114 247 1119 "},"º":{"ha":489,"x_min":0,"x_max":0,"o":"m 42 754 b 244 936 42 869 115 936 b 447 754 376 936 447 869 l 447 669 b 244 489 447 554 376 489 b 42 669 113 489 42 557 m 276 757 b 244 783 276 775 265 783 b 213 757 224 783 213 775 l 213 668 b 244 642 213 650 224 642 b 276 668 265 642 276 650 "},"»":{"ha":889,"x_min":0,"x_max":0,"o":"m 75 531 b 75 596 51 557 51 569 l 150 674 b 217 674 174 697 196 697 l 492 397 b 492 331 515 371 515 357 l 224 64 b 158 64 201 42 179 42 l 78 144 b 78 211 57 168 57 190 l 238 368 m 442 531 b 442 596 415 557 415 572 l 517 674 b 583 674 539 697 561 697 l 858 397 b 858 331 879 375 879 353 l 590 64 b 525 64 568 43 546 43 l 444 144 b 444 211 424 168 424 190 l 603 368 "},"¼":{"ha":1193,"x_min":0,"x_max":0,"o":"m 1038 986 b 1065 931 1078 986 1088 963 l 419 51 b 375 10 403 29 388 15 b 304 0 363 3 339 0 l 211 0 b 182 58 171 0 156 26 l 829 938 b 938 986 858 981 872 986 m 343 982 b 407 924 397 982 407 972 l 407 489 b 349 433 407 449 393 433 l 274 433 b 215 489 229 433 215 449 l 215 754 l 179 733 b 99 753 146 714 119 721 l 65 808 b 88 882 47 839 56 864 l 232 965 b 299 982 250 976 272 982 m 1064 549 b 1121 493 1108 549 1121 536 l 1121 244 l 1135 244 b 1182 203 1174 244 1182 235 l 1182 139 b 1135 96 1182 104 1174 96 l 1121 96 l 1121 47 b 1076 0 1121 13 1108 0 l 986 0 b 943 47 953 0 943 13 l 943 96 l 721 96 b 672 144 683 96 672 110 l 672 186 b 690 247 672 213 678 232 l 913 514 b 993 549 939 543 949 549 m 867 244 l 943 244 l 943 336 "},"½":{"ha":1208,"x_min":0,"x_max":0,"o":"m 343 986 b 407 928 397 986 407 976 l 407 493 b 349 438 407 453 393 438 l 274 438 b 215 493 229 438 215 453 l 215 758 l 179 738 b 99 757 140 717 121 724 l 65 813 b 88 886 47 843 56 868 l 232 971 b 299 986 251 981 274 986 m 1018 986 b 1046 931 1058 986 1068 963 l 400 51 b 357 10 383 29 369 15 b 286 0 344 3 321 0 l 193 0 b 163 58 150 0 139 26 l 810 938 b 851 978 825 958 839 972 b 918 986 864 983 886 986 m 747 428 b 975 560 783 515 860 560 b 1190 382 1110 560 1190 489 b 1058 194 1190 283 1154 222 l 999 176 b 969 163 979 174 969 169 l 969 161 l 1132 161 b 1181 113 1169 161 1181 150 l 1181 47 b 1133 0 1181 13 1171 0 l 790 0 b 740 47 753 0 740 13 l 740 93 b 872 279 740 199 771 244 l 946 304 b 994 361 981 317 994 329 b 964 392 994 382 985 392 b 915 361 943 392 926 382 b 846 328 894 322 889 315 l 776 353 b 747 428 739 368 731 385 "},"¾":{"ha":1219,"x_min":0,"x_max":0,"o":"m 60 874 b 293 1007 92 963 169 1007 b 504 844 426 1007 504 946 b 450 732 504 790 490 761 b 521 594 497 701 521 656 b 293 436 521 489 444 436 b 53 567 161 436 81 479 b 76 631 43 600 51 621 l 138 653 b 210 624 181 665 193 661 b 285 588 221 600 246 588 b 332 614 317 588 332 596 b 289 646 332 635 318 646 l 250 646 b 211 686 218 646 211 653 l 211 756 b 254 799 211 790 217 799 l 281 799 b 324 829 310 799 324 808 b 281 858 324 849 310 858 b 208 817 246 858 222 844 b 136 788 193 782 181 772 l 85 811 b 60 874 58 822 50 843 m 1071 986 b 1099 931 1111 986 1121 963 l 453 51 b 408 10 436 29 421 15 b 338 0 396 3 372 0 l 244 0 b 215 58 204 0 192 26 l 863 938 b 971 986 892 981 906 986 m 1082 549 b 1138 493 1126 549 1138 536 l 1138 244 l 1153 244 b 1199 203 1192 244 1199 235 l 1199 139 b 1153 96 1199 104 1192 96 l 1138 96 l 1138 47 b 1093 0 1138 13 1126 0 l 1003 0 b 960 47 969 0 960 13 l 960 96 l 739 96 b 689 144 700 96 689 110 l 689 186 b 708 247 689 210 696 231 l 931 514 b 1011 549 957 543 967 549 m 960 244 l 960 336 l 885 244 "},"¿":{"ha":818,"x_min":0,"x_max":0,"o":"m 410 465 b 300 574 326 465 300 490 l 300 622 b 410 731 300 704 326 731 l 479 731 b 589 622 561 731 589 704 l 589 574 b 479 465 589 490 563 465 m 786 -65 b 399 -307 722 -226 593 -307 b 32 -19 169 -307 32 -192 b 153 211 26 99 96 172 b 219 253 171 224 193 238 b 275 286 246 268 265 279 b 328 363 310 310 328 336 b 383 418 328 406 343 418 l 510 418 b 565 363 550 418 565 403 b 449 139 565 242 521 182 b 347 78 438 131 361 89 b 303 -15 329 63 303 28 b 400 -94 303 -64 335 -94 b 542 24 468 -94 503 -61 b 617 61 563 67 576 74 l 750 11 b 786 -65 790 -4 801 -22 "},"À":{"ha":956,"x_min":0,"x_max":0,"o":"m 397 1269 b 489 1274 418 1294 449 1296 l 685 1158 b 689 1106 707 1146 708 1129 l 650 1058 b 586 1053 639 1044 618 1043 l 335 1131 b 326 1186 301 1142 303 1157 m 971 57 b 931 0 985 19 971 0 l 781 0 b 676 58 710 0 688 14 l 644 158 l 344 158 l 313 58 b 211 0 297 14 278 0 l 65 0 b 28 57 26 0 14 19 l 347 938 b 419 986 360 976 376 986 l 578 986 b 650 940 618 986 638 975 m 531 539 b 501 706 514 594 503 668 l 500 733 l 486 733 b 460 540 488 667 478 603 l 408 376 l 582 376 "},"Á":{"ha":956,"x_min":0,"x_max":0,"o":"m 513 1269 b 604 1265 551 1292 582 1290 l 675 1185 b 668 1129 699 1158 697 1139 l 415 1051 b 351 1058 383 1040 367 1040 l 314 1104 b 317 1157 294 1128 296 1144 m 971 57 b 931 0 985 19 971 0 l 781 0 b 676 58 710 0 688 14 l 644 158 l 344 158 l 313 58 b 211 0 297 14 278 0 l 65 0 b 28 57 26 0 14 19 l 347 938 b 419 986 360 976 376 986 l 578 986 b 650 940 618 986 638 975 m 531 539 b 501 706 514 594 503 668 l 500 733 l 486 733 b 460 540 488 667 478 603 l 408 376 l 582 376 "},"Â":{"ha":956,"x_min":0,"x_max":0,"o":"m 528 1278 b 626 1236 578 1278 589 1274 l 768 1094 b 747 1047 794 1072 790 1047 l 631 1047 b 539 1076 574 1047 560 1050 l 499 1126 l 456 1078 b 365 1047 433 1051 419 1047 l 256 1047 b 235 1094 213 1047 211 1072 l 376 1236 b 422 1271 394 1254 410 1267 b 483 1278 433 1275 454 1278 m 971 57 b 931 0 985 19 971 0 l 781 0 b 676 58 710 0 688 14 l 644 158 l 344 158 l 313 58 b 211 0 297 14 278 0 l 65 0 b 28 57 26 0 14 19 l 347 938 b 419 986 360 976 376 986 l 578 986 b 650 940 618 986 638 975 m 531 539 b 501 706 514 594 503 668 l 500 733 l 486 733 b 460 540 488 667 478 603 l 408 376 l 582 376 "},"Ã":{"ha":956,"x_min":0,"x_max":0,"o":"m 701 1263 b 735 1231 728 1263 735 1253 b 599 1060 735 1107 689 1060 b 485 1089 560 1060 522 1069 b 414 1118 447 1108 424 1118 b 393 1088 400 1118 393 1108 b 367 1060 393 1069 385 1060 l 282 1060 b 250 1092 261 1060 250 1071 b 382 1263 250 1218 294 1263 b 500 1235 422 1263 463 1253 b 571 1206 538 1215 561 1206 b 592 1236 585 1206 592 1215 b 618 1263 592 1257 597 1263 m 971 57 b 931 0 985 19 971 0 l 781 0 b 676 58 710 0 688 14 l 644 158 l 344 158 l 313 58 b 211 0 297 14 278 0 l 65 0 b 28 57 26 0 14 19 l 347 938 b 419 986 360 976 376 986 l 578 986 b 650 940 618 986 638 975 m 531 539 b 501 706 514 594 503 668 l 500 733 l 486 733 b 460 540 488 667 478 603 l 408 376 l 582 376 "},"Ä":{"ha":956,"x_min":0,"x_max":0,"o":"m 354 1269 b 457 1171 432 1269 457 1244 l 457 1153 b 354 1054 457 1079 432 1054 l 343 1054 b 243 1153 267 1054 243 1079 l 243 1171 b 343 1269 243 1247 267 1269 m 653 1269 b 754 1171 731 1269 754 1247 l 754 1153 b 653 1054 754 1079 731 1054 l 643 1054 b 540 1153 565 1054 540 1079 l 540 1171 b 643 1269 540 1244 565 1269 m 971 57 b 931 0 985 19 971 0 l 781 0 b 676 58 710 0 688 14 l 644 158 l 344 158 l 313 58 b 211 0 297 14 278 0 l 65 0 b 28 57 26 0 14 19 l 347 938 b 419 986 360 976 376 986 l 578 986 b 650 940 618 986 638 975 m 531 539 b 501 706 514 594 503 668 l 500 733 l 486 733 b 460 540 488 667 478 603 l 408 376 l 582 376 "},"Å":{"ha":956,"x_min":0,"x_max":0,"o":"m 299 1057 b 501 1240 299 1172 381 1240 b 699 1057 619 1240 699 1168 b 647 935 699 1004 682 964 l 971 57 b 931 0 985 19 971 0 l 781 0 b 676 58 710 0 688 14 l 644 158 l 344 158 l 313 58 b 211 0 297 14 278 0 l 65 0 b 28 57 26 0 14 19 l 351 933 b 299 1057 317 964 299 1006 m 557 1054 b 501 1111 557 1089 535 1111 b 439 1054 464 1111 439 1089 b 501 999 439 1022 464 999 b 557 1054 535 999 557 1021 m 532 539 b 501 703 515 594 506 668 l 500 731 l 486 731 b 458 540 486 665 476 603 l 408 376 l 582 376 "},"Æ":{"ha":1257,"x_min":0,"x_max":0,"o":"m 1175 243 b 1233 185 1219 243 1233 229 l 1233 58 b 1175 0 1233 15 1219 0 l 696 0 b 636 58 651 0 636 15 l 636 146 l 358 146 l 299 51 b 190 0 275 11 258 0 l 47 0 b 10 57 4 0 -11 22 l 585 938 b 657 986 608 976 619 986 l 1164 986 b 1222 928 1208 986 1222 971 l 1222 803 b 1164 743 1222 758 1208 743 l 892 743 l 892 619 l 1090 619 b 1149 561 1133 619 1149 604 l 1149 436 b 1090 376 1149 392 1133 376 l 892 376 l 892 243 m 636 582 l 493 356 l 636 356 "},"Ç":{"ha":904,"x_min":0,"x_max":0,"o":"m 842 297 b 879 222 882 285 894 263 b 535 -18 825 76 710 -4 l 517 -64 l 529 -64 b 644 -201 607 -65 654 -125 b 435 -340 635 -294 564 -340 b 332 -325 394 -340 361 -335 b 294 -282 307 -315 294 -301 l 294 -224 b 338 -201 294 -193 308 -186 b 415 -222 365 -215 392 -222 b 463 -190 447 -222 463 -211 b 404 -160 463 -168 449 -161 l 375 -160 b 357 -118 350 -160 344 -146 l 401 -17 b 46 368 175 7 46 150 l 46 618 b 474 1007 46 861 201 1007 b 879 764 683 1007 818 926 b 842 689 894 724 882 701 l 693 636 b 618 674 650 624 633 631 b 474 764 594 733 546 764 b 321 619 367 764 321 718 l 321 367 b 474 222 321 268 367 222 b 618 313 547 222 596 253 b 693 350 635 357 650 365 "},"È":{"ha":817,"x_min":0,"x_max":0,"o":"m 319 1269 b 411 1274 340 1294 371 1296 l 607 1158 b 610 1106 629 1146 631 1129 l 572 1058 b 508 1053 560 1044 539 1043 l 256 1131 b 249 1186 222 1142 225 1157 m 711 986 b 771 928 756 986 771 971 l 771 803 b 711 743 771 758 756 743 l 344 743 l 344 619 l 638 619 b 697 561 682 619 697 604 l 697 436 b 638 376 697 392 682 376 l 344 376 l 344 243 l 724 243 b 782 185 767 243 782 229 l 782 58 b 724 0 782 15 767 0 l 129 0 b 69 58 85 0 69 15 l 69 928 b 129 986 69 971 85 986 "},"É":{"ha":817,"x_min":0,"x_max":0,"o":"m 435 1269 b 526 1265 474 1292 504 1290 l 597 1185 b 589 1129 621 1158 624 1140 l 338 1051 b 274 1058 304 1040 286 1040 l 235 1104 b 239 1157 217 1128 218 1144 m 711 986 b 771 928 756 986 771 971 l 771 803 b 711 743 771 758 756 743 l 344 743 l 344 619 l 638 619 b 697 561 682 619 697 604 l 697 436 b 638 376 697 392 682 376 l 344 376 l 344 243 l 724 243 b 782 185 767 243 782 229 l 782 58 b 724 0 782 15 767 0 l 129 0 b 69 58 85 0 69 15 l 69 928 b 129 986 69 971 85 986 "},"Ê":{"ha":817,"x_min":0,"x_max":0,"o":"m 449 1278 b 549 1236 499 1278 510 1274 l 690 1094 b 669 1047 714 1072 713 1047 l 553 1047 b 461 1076 496 1047 479 1050 l 421 1126 l 378 1078 b 286 1047 356 1050 342 1047 l 178 1047 b 157 1094 135 1047 131 1072 l 299 1236 b 343 1271 317 1254 331 1267 b 404 1278 354 1275 375 1278 m 711 986 b 771 928 756 986 771 971 l 771 803 b 711 743 771 758 756 743 l 344 743 l 344 619 l 638 619 b 697 561 682 619 697 604 l 697 436 b 638 376 697 392 682 376 l 344 376 l 344 243 l 724 243 b 782 185 767 243 782 229 l 782 58 b 724 0 782 15 767 0 l 129 0 b 69 58 85 0 69 15 l 69 928 b 129 986 69 971 85 986 "},"Ë":{"ha":817,"x_min":0,"x_max":0,"o":"m 276 1269 b 378 1171 353 1269 378 1244 l 378 1153 b 276 1054 378 1079 353 1054 l 265 1054 b 165 1153 189 1054 165 1079 l 165 1171 b 265 1269 165 1247 189 1269 m 575 1269 b 675 1171 651 1269 675 1247 l 675 1153 b 575 1054 675 1079 651 1054 l 565 1054 b 463 1153 488 1054 463 1079 l 463 1171 b 565 1269 463 1244 488 1269 m 711 986 b 771 928 756 986 771 971 l 771 803 b 711 743 771 758 756 743 l 344 743 l 344 619 l 638 619 b 697 561 682 619 697 604 l 697 436 b 638 376 697 392 682 376 l 344 376 l 344 243 l 724 243 b 782 185 767 243 782 229 l 782 58 b 724 0 782 15 767 0 l 129 0 b 69 58 85 0 69 15 l 69 928 b 129 986 69 971 85 986 "},"Ì":{"ha":415,"x_min":0,"x_max":0,"o":"m 110 1269 b 201 1274 131 1294 161 1296 l 397 1158 b 400 1106 419 1146 421 1129 l 363 1058 b 299 1053 350 1044 329 1043 l 46 1131 b 39 1186 13 1142 15 1157 m 72 931 b 128 986 72 971 88 986 l 292 986 b 347 931 332 986 347 971 l 347 56 b 292 0 347 15 332 0 l 128 0 b 72 56 88 0 72 15 "},"Í":{"ha":415,"x_min":0,"x_max":0,"o":"m 222 1269 b 314 1265 261 1292 292 1290 l 385 1185 b 376 1129 408 1158 410 1140 l 125 1051 b 61 1058 92 1040 74 1040 l 22 1104 b 26 1157 1 1131 3 1144 m 69 931 b 125 986 69 971 85 986 l 289 986 b 344 931 329 986 344 971 l 344 56 b 289 0 344 15 329 0 l 125 0 b 69 56 85 0 69 15 "},"Î":{"ha":415,"x_min":0,"x_max":0,"o":"m 240 1278 b 339 1236 290 1278 301 1274 l 482 1094 b 461 1047 506 1072 504 1047 l 344 1047 b 251 1076 288 1047 272 1050 l 213 1126 l 168 1078 b 78 1047 146 1050 133 1047 l -31 1047 b -53 1094 -74 1047 -76 1072 l 89 1236 b 135 1271 107 1254 122 1267 b 196 1278 146 1275 167 1278 m 74 931 b 129 986 74 971 89 986 l 293 986 b 349 931 333 986 349 971 l 349 56 b 293 0 349 15 333 0 l 129 0 b 74 56 89 0 74 15 "},"Ï":{"ha":415,"x_min":0,"x_max":0,"o":"m 64 1269 b 165 1171 140 1269 165 1244 l 165 1153 b 64 1054 165 1079 140 1054 l 53 1054 b -47 1153 -25 1054 -47 1079 l -47 1171 b 53 1269 -47 1247 -25 1269 m 363 1269 b 463 1171 439 1269 463 1247 l 463 1153 b 363 1054 463 1079 439 1054 l 353 1054 b 250 1153 275 1054 250 1079 l 250 1171 b 353 1269 250 1244 275 1269 m 69 931 b 125 986 69 971 85 986 l 289 986 b 344 931 329 986 344 971 l 344 56 b 289 0 344 15 329 0 l 125 0 b 69 56 85 0 69 15 "},"Ð":{"ha":981,"x_min":0,"x_max":0,"o":"m 508 986 b 936 597 781 986 936 840 l 936 389 b 508 0 936 149 781 0 l 169 0 b 111 58 126 0 111 15 l 111 411 l 47 411 b 13 447 21 411 13 418 l 13 553 b 47 589 13 576 24 589 l 111 589 l 111 928 b 169 986 111 971 126 986 m 661 593 b 499 743 661 693 607 743 l 386 743 l 386 589 l 500 589 b 533 553 526 589 533 581 l 533 447 b 500 411 533 418 526 411 l 386 411 l 386 243 l 499 243 b 661 393 607 243 661 293 "},"Ñ":{"ha":972,"x_min":0,"x_max":0,"o":"m 693 1263 b 726 1231 719 1263 726 1253 b 590 1060 726 1107 681 1060 b 476 1089 551 1060 514 1069 b 406 1118 439 1108 415 1118 b 385 1088 392 1118 385 1108 b 358 1060 385 1069 376 1060 l 274 1060 b 242 1092 253 1060 242 1071 b 374 1263 242 1218 286 1263 b 492 1235 414 1263 454 1253 b 563 1206 529 1215 553 1206 b 583 1236 576 1206 583 1215 b 610 1263 583 1257 589 1263 m 844 986 b 903 928 888 986 903 971 l 903 58 b 844 0 903 15 888 0 l 688 0 b 631 28 661 0 643 10 l 417 357 b 350 483 388 403 365 444 b 294 643 333 522 315 575 l 283 643 b 310 521 296 586 306 544 b 324 422 314 497 319 464 b 329 285 328 379 329 333 l 329 58 b 269 0 329 15 314 0 l 129 0 b 69 58 85 0 69 15 l 69 928 b 129 986 69 971 85 986 l 293 986 b 351 958 319 986 339 976 l 579 603 b 644 481 608 558 632 510 b 696 349 656 451 679 388 l 707 349 b 658 533 683 428 667 489 b 644 700 649 578 644 633 l 644 928 b 703 986 644 971 658 986 "},"Ò":{"ha":947,"x_min":0,"x_max":0,"o":"m 372 1283 b 464 1288 393 1308 424 1310 l 660 1172 b 663 1119 682 1160 683 1143 l 625 1072 b 561 1067 613 1058 592 1057 l 308 1144 b 301 1200 275 1156 278 1171 m 46 618 b 474 1007 46 861 201 1007 b 900 618 744 1007 900 861 l 900 368 b 474 -21 900 125 744 -21 b 46 368 201 -21 46 125 m 625 631 b 474 764 625 718 569 764 b 321 631 375 764 321 718 l 321 356 b 474 222 321 268 375 222 b 625 356 569 222 625 268 "},"Ó":{"ha":947,"x_min":0,"x_max":0,"o":"m 488 1283 b 579 1279 526 1306 557 1304 l 650 1199 b 642 1143 674 1172 676 1154 l 390 1065 b 326 1072 357 1054 339 1054 l 288 1118 b 292 1171 269 1142 271 1158 m 46 618 b 474 1007 46 861 201 1007 b 900 618 744 1007 900 861 l 900 368 b 474 -21 900 125 744 -21 b 46 368 201 -21 46 125 m 625 631 b 474 764 625 718 569 764 b 321 631 375 764 321 718 l 321 356 b 474 222 321 268 375 222 b 625 356 569 222 625 268 "},"Ô":{"ha":947,"x_min":0,"x_max":0,"o":"m 501 1292 b 601 1250 551 1292 563 1288 l 743 1108 b 722 1061 767 1086 765 1061 l 606 1061 b 514 1090 549 1061 532 1064 l 474 1140 l 431 1092 b 339 1061 408 1064 394 1061 l 231 1061 b 210 1108 188 1061 183 1086 l 351 1250 b 396 1285 369 1268 383 1281 b 457 1292 407 1289 428 1292 m 46 618 b 474 1007 46 861 201 1007 b 900 618 744 1007 900 861 l 900 368 b 474 -21 900 125 744 -21 b 46 368 201 -21 46 125 m 625 631 b 474 764 625 718 569 764 b 321 631 375 764 321 718 l 321 356 b 474 222 321 268 375 222 b 625 356 569 222 625 268 "},"Õ":{"ha":947,"x_min":0,"x_max":0,"o":"m 676 1276 b 708 1244 697 1276 708 1265 b 574 1074 708 1121 664 1074 b 460 1103 535 1074 497 1083 b 389 1132 422 1122 399 1132 b 368 1101 375 1132 368 1122 b 342 1074 368 1083 360 1074 l 257 1074 b 224 1106 235 1074 224 1085 b 357 1276 224 1232 269 1276 b 475 1249 397 1276 438 1267 b 546 1219 513 1229 536 1219 b 567 1250 560 1219 567 1229 b 593 1276 567 1271 572 1276 m 46 618 b 474 1007 46 861 201 1007 b 900 618 744 1007 900 861 l 900 368 b 474 -21 900 125 744 -21 b 46 368 201 -21 46 125 m 625 631 b 474 764 625 718 569 764 b 321 631 375 764 321 718 l 321 356 b 474 222 321 268 375 222 b 625 356 569 222 625 268 "},"Ö":{"ha":947,"x_min":0,"x_max":0,"o":"m 329 1283 b 431 1185 406 1283 431 1258 l 431 1167 b 329 1068 431 1093 406 1068 l 318 1068 b 218 1167 242 1068 218 1093 l 218 1185 b 318 1283 218 1261 242 1283 m 628 1283 b 728 1185 704 1283 728 1261 l 728 1167 b 628 1068 728 1093 704 1068 l 618 1068 b 515 1167 540 1068 515 1093 l 515 1185 b 618 1283 515 1258 540 1283 m 46 618 b 474 1007 46 861 201 1007 b 900 618 744 1007 900 861 l 900 368 b 474 -21 900 125 744 -21 b 46 368 201 -21 46 125 m 625 631 b 474 764 625 718 569 764 b 321 631 375 764 321 718 l 321 356 b 474 222 321 268 375 222 b 625 356 569 222 625 268 "},"×":{"ha":743,"x_min":0,"x_max":0,"o":"m 678 304 b 678 225 707 275 707 254 l 597 144 b 518 144 568 115 550 115 l 371 292 l 226 146 b 147 146 194 117 176 117 l 65 226 b 65 306 38 256 36 274 l 211 451 l 65 597 b 65 676 36 629 36 647 l 147 757 b 226 757 176 786 197 786 l 371 611 l 518 758 b 597 758 550 788 568 788 l 678 678 b 678 599 707 646 707 628 l 532 451 "},"Ø":{"ha":947,"x_min":0,"x_max":0,"o":"m 911 1046 b 924 1021 929 1046 933 1038 l 824 869 b 903 618 876 806 903 722 l 903 368 b 476 -21 903 125 749 -19 b 264 17 393 -21 322 -8 l 229 -36 b 181 -58 214 -57 213 -58 l 50 -58 b 39 -32 33 -58 28 -44 l 132 111 b 49 368 76 178 49 264 l 49 618 b 476 1007 49 861 204 1007 b 693 967 560 1007 632 993 l 731 1024 b 778 1046 743 1044 750 1046 m 558 747 b 476 764 536 758 508 764 b 324 631 378 764 324 718 l 324 428 b 326 392 324 421 325 408 m 399 236 b 476 222 424 226 450 222 b 628 356 572 222 628 268 l 628 553 b 626 586 628 568 628 579 "},"Ù":{"ha":961,"x_min":0,"x_max":0,"o":"m 379 1269 b 471 1274 400 1294 431 1296 l 667 1158 b 671 1106 689 1146 690 1129 l 632 1058 b 568 1053 621 1044 600 1043 l 317 1131 b 308 1186 283 1142 285 1157 m 338 350 b 481 222 338 265 385 222 b 625 350 576 222 625 265 l 625 928 b 683 986 625 971 639 986 l 840 986 b 900 928 885 986 900 971 l 900 363 b 481 -21 900 125 751 -21 b 63 363 213 -21 63 125 l 63 928 b 121 986 63 971 76 986 l 278 986 b 338 928 322 986 338 971 "},"Ú":{"ha":961,"x_min":0,"x_max":0,"o":"m 494 1269 b 586 1265 533 1292 564 1290 l 657 1185 b 650 1129 681 1158 679 1139 l 397 1051 b 333 1058 365 1040 349 1040 l 296 1104 b 299 1157 276 1128 278 1144 m 338 350 b 481 222 338 265 385 222 b 625 350 576 222 625 265 l 625 928 b 683 986 625 971 639 986 l 840 986 b 900 928 885 986 900 971 l 900 363 b 481 -21 900 125 751 -21 b 63 363 213 -21 63 125 l 63 928 b 121 986 63 971 76 986 l 278 986 b 338 928 322 986 338 971 "},"Û":{"ha":961,"x_min":0,"x_max":0,"o":"m 510 1278 b 608 1236 560 1278 571 1274 l 751 1094 b 729 1047 775 1072 772 1047 l 614 1047 b 521 1076 557 1047 542 1050 l 481 1126 l 438 1078 b 347 1047 415 1051 401 1047 l 238 1047 b 217 1094 194 1047 193 1072 l 358 1236 b 404 1271 376 1254 392 1267 b 465 1278 415 1275 436 1278 m 338 350 b 481 222 338 265 385 222 b 625 350 576 222 625 265 l 625 928 b 683 986 625 971 639 986 l 840 986 b 900 928 885 986 900 971 l 900 363 b 481 -21 900 125 751 -21 b 63 363 213 -21 63 125 l 63 928 b 121 986 63 971 76 986 l 278 986 b 338 928 322 986 338 971 "},"Ü":{"ha":961,"x_min":0,"x_max":0,"o":"m 336 1269 b 439 1171 414 1269 439 1244 l 439 1153 b 336 1054 439 1079 414 1054 l 326 1054 b 226 1153 249 1054 226 1079 l 226 1171 b 326 1269 226 1247 249 1269 m 635 1269 b 736 1171 713 1269 736 1247 l 736 1153 b 635 1054 736 1079 713 1054 l 625 1054 b 524 1153 549 1054 524 1079 l 524 1171 b 625 1269 524 1244 549 1269 m 338 350 b 481 222 338 265 385 222 b 625 350 576 222 625 265 l 625 928 b 683 986 625 971 639 986 l 840 986 b 900 928 885 986 900 971 l 900 363 b 481 -21 900 125 751 -21 b 63 363 213 -21 63 125 l 63 928 b 121 986 63 971 76 986 l 278 986 b 338 928 322 986 338 971 "},"Ý":{"ha":938,"x_min":0,"x_max":0,"o":"m 494 1269 b 586 1265 533 1292 564 1290 l 657 1185 b 649 1129 681 1158 682 1140 l 397 1051 b 333 1058 364 1040 346 1040 l 294 1104 b 299 1157 274 1131 275 1144 m 904 986 b 933 928 944 986 954 960 l 613 382 l 613 58 b 554 0 613 15 599 0 l 397 0 b 338 58 353 0 338 15 l 338 382 l 18 928 b 47 986 -3 960 7 986 l 214 986 b 290 978 251 986 276 983 b 329 935 303 972 317 958 l 478 651 l 631 935 b 744 986 657 981 672 986 "},"Þ":{"ha":883,"x_min":0,"x_max":0,"o":"m 493 861 b 761 764 606 861 694 829 b 861 499 828 699 861 611 b 761 236 861 388 828 300 b 493 139 694 171 606 139 l 343 139 l 343 58 b 285 0 343 15 329 0 l 128 0 b 69 58 83 0 69 15 l 69 928 b 128 986 69 971 83 986 l 285 986 b 343 928 329 986 343 971 l 343 861 m 458 382 b 576 500 531 382 576 432 b 458 618 576 568 531 618 l 343 618 l 343 382 "},"ß":{"ha":818,"x_min":0,"x_max":0,"o":"m 58 732 b 396 1042 58 925 175 1042 b 747 756 629 1042 747 940 b 647 547 747 663 714 593 l 647 542 b 786 289 738 501 786 435 b 467 0 786 99 671 0 l 410 0 b 351 58 365 0 351 15 l 351 185 b 410 243 351 229 365 243 l 429 243 b 507 325 481 244 507 271 b 429 408 507 381 481 408 l 410 408 b 351 468 365 408 351 424 l 351 588 b 401 646 351 632 364 646 l 413 646 b 476 724 456 646 476 672 b 396 799 476 774 450 799 b 317 719 343 799 317 772 l 317 58 b 257 0 317 15 301 0 l 117 0 b 58 58 72 0 58 15 "},"à":{"ha":735,"x_min":0,"x_max":0,"o":"m 267 1017 b 358 1019 290 1042 321 1043 l 551 903 b 554 850 572 890 574 874 l 514 804 b 450 800 504 790 482 789 l 200 883 b 193 939 171 893 169 913 m 56 599 b 364 743 106 694 208 743 b 688 443 597 743 688 633 l 688 101 b 635 18 688 51 678 35 b 360 -21 574 -8 482 -21 b 100 33 233 -21 147 -3 b 29 210 53 69 29 128 b 107 392 29 297 56 358 b 367 442 158 425 244 442 b 429 440 383 442 419 440 l 429 475 b 351 546 429 522 403 546 b 261 499 314 546 285 531 b 185 481 240 471 231 465 l 85 522 b 56 599 46 539 38 558 m 429 265 b 356 267 417 267 393 267 b 282 211 307 267 282 249 b 353 156 282 176 299 156 b 422 160 385 156 408 157 b 429 167 426 160 429 163 "},"á":{"ha":735,"x_min":0,"x_max":0,"o":"m 376 1019 b 468 1017 414 1043 444 1042 l 542 939 b 535 883 564 911 568 894 l 283 800 b 219 804 251 789 231 790 l 181 850 b 183 903 158 876 160 890 m 56 599 b 364 743 106 694 208 743 b 688 443 597 743 688 633 l 688 101 b 635 18 688 51 678 35 b 360 -21 574 -8 482 -21 b 100 33 233 -21 147 -3 b 29 210 53 69 29 128 b 107 392 29 297 56 358 b 367 442 158 425 244 442 b 429 440 383 442 419 440 l 429 475 b 351 546 429 522 403 546 b 261 499 314 546 285 531 b 185 481 240 471 231 465 l 85 522 b 56 599 46 539 38 558 m 429 265 b 356 267 417 267 393 267 b 282 211 307 267 282 249 b 353 156 282 176 299 156 b 422 160 385 156 408 157 b 429 167 426 160 429 163 "},"â":{"ha":735,"x_min":0,"x_max":0,"o":"m 393 1028 b 492 988 443 1028 454 1025 l 635 846 b 614 797 658 824 657 797 l 497 797 b 404 828 440 797 425 801 l 364 876 l 321 828 b 231 797 297 801 282 797 l 128 797 b 107 846 85 797 83 824 l 249 988 b 294 1022 267 1006 282 1018 b 356 1028 306 1026 326 1028 m 56 599 b 364 743 106 694 208 743 b 688 443 597 743 688 633 l 688 101 b 635 18 688 51 678 35 b 360 -21 574 -8 482 -21 b 100 33 233 -21 147 -3 b 29 210 53 69 29 128 b 107 392 29 297 56 358 b 367 442 158 425 244 442 b 429 440 383 442 419 440 l 429 475 b 351 546 429 522 403 546 b 261 499 314 546 285 531 b 185 481 240 471 231 465 l 85 522 b 56 599 46 539 38 558 m 429 265 b 356 267 417 267 393 267 b 282 211 307 267 282 249 b 353 156 282 176 299 156 b 422 160 385 156 408 157 b 429 167 426 160 429 163 "},"ã":{"ha":735,"x_min":0,"x_max":0,"o":"m 568 1015 b 600 983 589 1015 600 1004 b 464 813 600 857 557 813 b 351 842 425 813 388 822 b 279 869 314 860 290 869 b 260 839 267 869 260 860 b 233 813 260 821 251 813 l 147 813 b 115 844 126 813 115 824 b 249 1015 115 968 161 1015 b 365 986 289 1015 328 1006 b 438 957 403 967 428 957 b 457 988 450 957 457 967 b 483 1015 457 1006 465 1015 m 56 599 b 364 743 106 694 208 743 b 688 443 597 743 688 633 l 688 101 b 635 18 688 51 678 35 b 360 -21 574 -8 482 -21 b 100 33 233 -21 147 -3 b 29 210 53 69 29 128 b 107 392 29 297 56 358 b 367 442 158 425 244 442 b 429 440 383 442 419 440 l 429 475 b 351 546 429 522 403 546 b 261 499 314 546 285 531 b 185 481 240 471 231 465 l 85 522 b 56 599 46 539 38 558 m 429 265 b 356 267 417 267 393 267 b 282 211 307 267 282 249 b 353 156 282 176 299 156 b 422 160 385 156 408 157 b 429 167 426 160 429 163 "},"ä":{"ha":735,"x_min":0,"x_max":0,"o":"m 219 1018 b 322 919 297 1018 322 993 l 322 901 b 219 801 322 828 297 801 l 210 801 b 110 901 133 801 110 828 l 110 919 b 210 1018 110 996 132 1018 m 518 1018 b 619 919 596 1018 619 996 l 619 901 b 518 801 619 828 596 801 l 508 801 b 407 901 432 801 407 828 l 407 919 b 508 1018 407 993 432 1018 m 56 599 b 364 743 106 694 208 743 b 688 443 597 743 688 633 l 688 101 b 635 18 688 51 678 35 b 360 -21 574 -8 482 -21 b 100 33 233 -21 147 -3 b 29 210 53 69 29 128 b 107 392 29 297 56 358 b 367 442 158 425 244 442 b 429 440 383 442 419 440 l 429 475 b 351 546 429 522 403 546 b 261 499 314 546 285 531 b 185 481 240 471 231 465 l 85 522 b 56 599 46 539 38 558 m 429 265 b 356 267 417 267 393 267 b 282 211 307 267 282 249 b 353 156 282 176 299 156 b 422 160 385 156 408 157 b 429 167 426 160 429 163 "},"å":{"ha":735,"x_min":0,"x_max":0,"o":"m 238 826 b 186 944 203 856 186 894 b 236 1064 186 994 203 1035 b 367 1107 269 1093 313 1107 b 544 944 472 1107 544 1043 b 496 828 544 896 528 857 b 367 783 463 799 419 783 b 238 826 314 783 271 797 m 403 910 b 367 994 433 939 410 994 b 314 944 335 994 314 974 b 367 897 314 917 335 897 b 403 910 382 897 393 901 m 56 599 b 364 743 106 694 208 743 b 688 443 597 743 688 633 l 688 101 b 635 18 688 51 678 35 b 360 -21 574 -8 482 -21 b 100 33 233 -21 147 -3 b 29 210 53 69 29 128 b 107 392 29 297 56 358 b 367 442 158 425 244 442 b 429 440 383 442 419 440 l 429 475 b 351 546 429 522 403 546 b 261 499 314 546 285 531 b 185 481 240 471 231 465 l 85 522 b 56 599 46 539 38 558 m 429 265 b 356 267 417 267 393 267 b 282 211 307 267 282 249 b 353 156 282 176 299 156 b 422 160 385 156 408 157 b 429 167 426 160 429 163 "},"æ":{"ha":1085,"x_min":0,"x_max":0,"o":"m 57 599 b 349 743 107 694 204 743 b 532 690 422 743 483 725 b 719 743 583 725 646 743 b 1054 439 946 743 1054 618 l 1054 363 b 978 290 1054 314 1029 290 l 642 290 l 642 257 b 721 174 642 201 668 174 b 818 226 761 174 793 192 b 897 242 839 256 851 263 l 990 196 b 1017 115 1028 178 1038 151 b 718 -21 965 25 867 -21 b 557 17 658 -21 604 -8 b 344 -21 497 -8 426 -21 b 31 210 83 -15 31 47 b 101 393 31 299 54 360 b 350 442 147 425 231 442 b 404 440 365 442 397 440 l 404 483 b 338 546 404 526 388 546 b 260 496 307 546 281 529 b 190 481 243 468 235 464 l 86 522 b 57 599 47 539 39 558 m 794 476 b 719 560 794 533 774 560 b 643 476 668 560 643 532 l 643 458 l 794 458 m 406 265 b 343 267 396 267 375 267 b 283 211 297 267 283 249 b 340 156 283 172 294 156 l 406 161 l 406 207 "},"ç":{"ha":725,"x_min":0,"x_max":0,"o":"m 663 247 b 699 171 703 235 714 210 b 453 -15 656 67 574 4 l 435 -64 l 447 -64 b 561 -201 525 -65 571 -124 b 353 -340 551 -294 482 -340 b 249 -325 313 -340 278 -335 b 213 -282 225 -315 213 -301 l 213 -224 b 256 -201 213 -194 226 -186 b 333 -222 282 -215 307 -222 b 379 -190 364 -222 379 -211 b 321 -160 379 -168 365 -161 l 293 -160 b 274 -118 268 -160 261 -146 l 318 -18 b 39 286 132 -3 39 99 l 39 438 b 383 743 39 631 151 743 b 696 550 549 743 656 665 b 658 475 708 507 699 490 l 529 432 b 453 469 486 419 469 426 b 371 526 438 507 411 526 b 297 451 322 526 297 501 l 297 271 b 371 196 297 221 322 196 b 453 253 411 196 438 215 b 529 288 469 293 486 303 "},"è":{"ha":763,"x_min":0,"x_max":0,"o":"m 288 1017 b 379 1019 311 1042 342 1043 l 572 903 b 575 850 596 890 596 876 l 535 804 b 471 800 525 790 503 789 l 221 883 b 214 939 192 893 190 913 m 38 422 b 385 743 38 629 158 743 b 733 439 614 743 733 617 l 733 363 b 657 290 733 314 708 290 l 296 290 l 296 264 b 386 174 296 204 326 174 b 497 225 433 174 471 190 b 575 239 515 253 529 257 l 671 197 b 697 117 708 179 717 153 b 383 -21 644 25 540 -21 b 38 300 146 -21 38 106 m 474 476 b 385 560 474 532 444 560 b 296 476 325 560 296 532 l 296 458 l 474 458 "},"é":{"ha":763,"x_min":0,"x_max":0,"o":"m 397 1019 b 489 1017 435 1043 465 1042 l 561 939 b 554 883 585 911 589 894 l 304 800 b 240 804 271 788 256 788 l 200 850 b 203 903 179 876 179 890 m 38 422 b 385 743 38 629 158 743 b 733 439 614 743 733 617 l 733 363 b 657 290 733 314 708 290 l 296 290 l 296 264 b 386 174 296 204 326 174 b 497 225 433 174 471 190 b 575 239 515 253 529 257 l 671 197 b 697 117 708 179 717 153 b 383 -21 644 25 540 -21 b 38 300 146 -21 38 106 m 474 476 b 385 560 474 532 444 560 b 296 476 325 560 296 532 l 296 458 l 474 458 "},"ê":{"ha":763,"x_min":0,"x_max":0,"o":"m 413 1021 b 510 981 463 1021 472 1018 l 649 843 b 628 796 672 821 671 796 l 514 796 b 424 825 458 796 444 801 l 385 874 l 342 826 b 254 796 319 800 306 796 l 153 796 b 133 843 113 796 110 821 l 271 981 b 315 1015 289 999 304 1011 b 375 1021 326 1019 346 1021 m 38 422 b 385 743 38 629 158 743 b 733 439 614 743 733 617 l 733 363 b 657 290 733 314 708 290 l 296 290 l 296 264 b 386 174 296 204 326 174 b 497 225 433 174 471 190 b 575 239 515 253 529 257 l 671 197 b 697 117 708 179 717 153 b 383 -21 644 25 540 -21 b 38 300 146 -21 38 106 m 474 476 b 385 560 474 532 444 560 b 296 476 325 560 296 532 l 296 458 l 474 458 "},"ë":{"ha":763,"x_min":0,"x_max":0,"o":"m 240 1018 b 343 919 318 1018 343 993 l 343 901 b 240 801 343 828 318 801 l 231 801 b 131 901 154 801 131 828 l 131 919 b 231 1018 131 996 153 1018 m 539 1018 b 640 919 617 1018 640 996 l 640 901 b 539 801 640 828 617 801 l 529 801 b 428 901 453 801 428 828 l 428 919 b 529 1018 428 993 453 1018 m 38 422 b 385 743 38 629 158 743 b 733 439 614 743 733 617 l 733 363 b 657 290 733 314 708 290 l 296 290 l 296 264 b 386 174 296 204 326 174 b 497 225 433 174 471 190 b 575 239 515 253 529 257 l 671 197 b 697 117 708 179 717 153 b 383 -21 644 25 540 -21 b 38 300 146 -21 38 106 m 474 476 b 385 560 474 532 444 560 b 296 476 325 560 296 532 l 296 458 l 474 458 "},"ì":{"ha":374,"x_min":0,"x_max":0,"o":"m 104 1022 b 196 1019 129 1046 160 1046 l 372 893 b 372 840 394 876 394 864 l 329 797 b 265 797 317 783 294 783 l 31 893 b 26 949 -3 907 0 922 m 267 722 b 321 669 307 722 321 708 l 321 53 b 267 0 321 14 307 0 l 115 0 b 61 53 75 0 61 14 l 61 669 b 115 722 61 708 75 722 "},"í":{"ha":374,"x_min":0,"x_max":0,"o":"m 181 1019 b 272 1022 217 1046 247 1046 l 350 949 b 346 893 375 921 376 907 l 111 797 b 47 797 82 783 60 783 l 4 840 b 4 893 -18 864 -18 876 m 263 722 b 317 669 303 722 317 708 l 317 53 b 263 0 317 14 303 0 l 111 0 b 57 53 71 0 57 14 l 57 669 b 111 722 57 708 71 722 "},"î":{"ha":374,"x_min":0,"x_max":0,"o":"m 444 843 b 424 796 471 821 467 796 l 313 796 b 222 825 256 796 239 799 l 189 874 l 154 825 b 65 796 133 799 119 796 l -33 796 b -54 843 -74 796 -78 821 l 76 982 b 181 1021 110 1017 121 1021 l 217 1021 b 314 982 267 1021 281 1017 m 267 722 b 321 669 307 722 321 708 l 321 53 b 267 0 321 14 307 0 l 115 0 b 61 53 75 0 61 14 l 61 669 b 115 722 61 708 75 722 "},"ï":{"ha":374,"x_min":0,"x_max":0,"o":"m 49 1018 b 151 919 126 1018 151 993 l 151 901 b 49 801 151 828 126 801 l 38 801 b -62 901 -39 801 -62 828 l -62 919 b 38 1018 -62 996 -39 1018 m 335 1018 b 436 919 413 1018 436 996 l 436 901 b 335 801 436 828 413 801 l 325 801 b 224 901 249 801 224 828 l 224 919 b 325 1018 224 993 249 1018 m 263 722 b 317 669 303 722 317 708 l 317 53 b 263 0 317 14 303 0 l 111 0 b 57 53 71 0 57 14 l 57 669 b 111 722 57 708 71 722 "},"ð":{"ha":776,"x_min":0,"x_max":0,"o":"m 554 1053 b 590 1054 567 1068 575 1069 l 642 1014 b 644 976 656 1004 657 992 l 606 935 b 726 535 686 861 726 728 l 726 283 b 383 -21 726 93 606 -21 b 38 274 157 -21 38 83 l 38 404 b 346 685 38 582 157 685 b 504 647 417 685 469 672 b 451 765 497 697 481 736 l 404 714 b 367 713 388 699 385 701 l 321 742 b 319 779 307 751 307 764 l 349 814 b 192 822 321 819 268 822 b 133 878 147 822 133 835 l 132 976 b 189 1033 132 1019 146 1033 b 506 996 328 1033 433 1021 m 468 404 b 383 479 468 454 440 479 b 296 404 325 479 296 454 l 296 276 b 383 203 296 228 325 203 b 468 276 440 203 468 228 "},"ñ":{"ha":772,"x_min":0,"x_max":0,"o":"m 589 1015 b 621 983 610 1015 621 1004 b 485 813 621 857 578 813 b 372 842 446 813 408 822 b 301 869 335 860 311 869 b 281 839 288 869 281 860 b 254 813 281 821 272 813 l 168 813 b 136 844 147 813 136 824 b 269 1015 136 968 182 1015 b 386 986 310 1015 349 1006 b 458 957 424 967 449 957 b 478 988 471 957 478 967 b 506 1015 478 1006 488 1015 m 113 692 b 408 743 201 726 300 743 b 721 443 618 743 721 636 l 721 53 b 668 0 721 14 708 0 l 515 0 b 463 53 476 0 463 14 l 463 433 b 379 510 463 485 435 510 b 318 504 354 510 333 508 b 314 499 315 503 314 501 l 314 53 b 261 0 314 14 301 0 l 108 0 b 56 53 68 0 56 14 l 56 608 b 113 692 56 654 67 674 "},"ò":{"ha":767,"x_min":0,"x_max":0,"o":"m 285 1017 b 376 1019 308 1042 339 1043 l 569 903 b 572 850 593 890 594 876 l 533 804 b 468 800 522 790 500 789 l 218 883 b 211 939 185 894 189 911 m 39 439 b 383 743 39 629 161 743 b 728 439 607 743 728 632 l 728 283 b 383 -21 728 90 607 -21 b 39 283 161 -21 39 93 m 471 446 b 383 521 471 496 442 521 b 297 446 326 521 297 496 l 297 276 b 383 203 297 228 326 203 b 471 276 442 203 471 228 "},"ó":{"ha":767,"x_min":0,"x_max":0,"o":"m 394 1019 b 486 1017 432 1043 463 1042 l 560 939 b 553 883 582 911 586 894 l 303 800 b 238 804 271 789 249 790 l 199 850 b 201 903 176 876 178 890 m 39 439 b 383 743 39 629 161 743 b 728 439 607 743 728 632 l 728 283 b 383 -21 728 90 607 -21 b 39 283 161 -21 39 93 m 471 446 b 383 521 471 496 442 521 b 297 446 326 521 297 496 l 297 276 b 383 203 297 228 326 203 b 471 276 442 203 471 228 "},"ô":{"ha":767,"x_min":0,"x_max":0,"o":"m 411 1021 b 507 981 460 1021 472 1018 l 646 843 b 626 796 669 821 667 796 l 513 796 b 422 825 457 796 440 801 l 382 874 l 340 826 b 251 796 318 799 306 796 l 151 796 b 131 843 111 796 107 821 l 269 981 b 314 1015 288 999 303 1011 b 374 1021 325 1019 344 1021 m 39 439 b 383 743 39 629 161 743 b 728 439 607 743 728 632 l 728 283 b 383 -21 728 90 607 -21 b 39 283 161 -21 39 93 m 471 446 b 383 521 471 496 442 521 b 297 446 326 521 297 496 l 297 276 b 383 203 297 228 326 203 b 471 276 442 203 471 228 "},"õ":{"ha":767,"x_min":0,"x_max":0,"o":"m 586 1015 b 618 983 607 1015 618 1004 b 482 813 618 857 575 813 b 369 842 443 813 406 822 b 299 869 332 860 308 869 b 278 839 285 869 278 860 b 251 813 278 821 269 813 l 165 813 b 133 844 144 813 133 824 b 267 1015 133 968 179 1015 b 383 986 307 1015 346 1006 b 456 957 421 967 446 957 b 475 988 468 957 475 967 b 503 1015 475 1006 485 1015 m 39 439 b 383 743 39 629 161 743 b 728 439 607 743 728 632 l 728 283 b 383 -21 728 90 607 -21 b 39 283 161 -21 39 93 m 471 446 b 383 521 471 496 442 521 b 297 446 326 521 297 496 l 297 276 b 383 203 297 228 326 203 b 471 276 442 203 471 228 "},"ö":{"ha":767,"x_min":0,"x_max":0,"o":"m 239 1018 b 340 919 315 1018 340 993 l 340 901 b 239 801 340 828 315 801 l 228 801 b 128 901 151 801 128 828 l 128 919 b 228 1018 128 996 150 1018 m 538 1018 b 638 919 614 1018 638 996 l 638 901 b 538 801 638 828 614 801 l 528 801 b 425 901 450 801 425 828 l 425 919 b 528 1018 425 993 450 1018 m 39 439 b 383 743 39 629 161 743 b 728 439 607 743 728 632 l 728 283 b 383 -21 728 90 607 -21 b 39 283 161 -21 39 93 m 471 446 b 383 521 471 496 442 521 b 297 446 326 521 297 496 l 297 276 b 383 203 297 228 326 203 b 471 276 442 203 471 228 "},"÷":{"ha":771,"x_min":0,"x_max":0,"o":"m 421 840 b 525 736 500 840 525 815 l 525 721 b 421 615 525 642 500 615 l 351 615 b 246 721 272 615 246 642 l 246 736 b 351 840 246 815 272 840 m 675 571 b 733 511 718 571 733 556 l 733 393 b 675 335 733 349 718 335 l 97 335 b 38 393 53 335 38 349 l 38 511 b 97 571 38 556 53 571 m 421 289 b 525 185 500 289 525 264 l 525 169 b 421 64 525 90 500 64 l 351 64 b 246 169 272 64 246 90 l 246 185 b 351 289 246 264 272 289 "},"ø":{"ha":767,"x_min":0,"x_max":0,"o":"m 686 767 b 697 742 704 767 707 758 l 644 658 b 728 439 700 606 728 532 l 728 283 b 383 -21 728 90 607 -21 b 231 1 328 -21 276 -14 l 210 -29 b 165 -49 201 -42 186 -49 l 86 -49 b 74 -24 68 -49 64 -40 l 128 60 b 39 283 68 113 39 188 l 39 439 b 383 743 39 629 161 743 b 543 718 444 743 497 735 l 561 747 b 606 767 569 760 585 767 m 440 538 b 383 554 426 549 407 554 b 297 479 326 554 297 529 l 297 335 l 297 313 m 328 183 b 383 169 340 174 360 169 b 471 243 442 169 471 194 l 471 385 b 469 407 471 390 469 401 "},"ù":{"ha":772,"x_min":0,"x_max":0,"o":"m 286 1017 b 378 1019 310 1042 340 1043 l 571 903 b 574 850 594 890 596 876 l 535 804 b 469 800 524 790 501 789 l 219 883 b 213 939 186 894 190 911 m 664 722 b 717 669 704 722 717 708 l 717 114 b 660 31 717 68 706 49 b 364 -21 572 -4 474 -21 b 51 279 154 -21 51 86 l 51 669 b 104 722 51 708 64 722 l 257 722 b 310 669 297 722 310 708 l 310 289 b 393 213 310 238 338 213 b 449 218 411 213 431 214 b 458 231 456 219 458 224 l 458 669 b 511 722 458 708 472 722 "},"ú":{"ha":772,"x_min":0,"x_max":0,"o":"m 396 1019 b 488 1017 433 1043 464 1042 l 561 939 b 554 883 583 911 588 894 l 304 800 b 239 804 272 789 250 790 l 200 850 b 203 903 178 876 179 890 m 664 722 b 717 669 704 722 717 708 l 717 114 b 660 31 717 68 706 49 b 364 -21 572 -4 474 -21 b 51 279 154 -21 51 86 l 51 669 b 104 722 51 708 64 722 l 257 722 b 310 669 297 722 310 708 l 310 289 b 393 213 310 238 338 213 b 449 218 411 213 431 214 b 458 231 456 219 458 224 l 458 669 b 511 722 458 708 472 722 "},"û":{"ha":772,"x_min":0,"x_max":0,"o":"m 413 1028 b 511 988 464 1028 474 1025 l 654 846 b 633 797 678 824 676 797 l 517 797 b 424 828 460 797 444 801 l 385 876 l 340 828 b 250 797 318 801 304 797 l 147 797 b 126 846 104 797 103 824 l 268 988 b 314 1021 286 1006 301 1017 b 375 1028 325 1025 346 1028 m 664 722 b 717 669 704 722 717 708 l 717 114 b 660 31 717 68 706 49 b 364 -21 572 -4 474 -21 b 51 279 154 -21 51 86 l 51 669 b 104 722 51 708 64 722 l 257 722 b 310 669 297 722 310 708 l 310 289 b 393 213 310 238 338 213 b 449 218 411 213 431 214 b 458 231 456 219 458 224 l 458 669 b 511 722 458 708 472 722 "},"ü":{"ha":772,"x_min":0,"x_max":0,"o":"m 240 1018 b 342 919 317 1018 342 993 l 342 901 b 240 801 342 828 317 801 l 229 801 b 129 901 153 801 129 828 l 129 919 b 229 1018 129 996 151 1018 m 539 1018 b 639 919 615 1018 639 996 l 639 901 b 539 801 639 828 615 801 l 529 801 b 426 901 451 801 426 828 l 426 919 b 529 1018 426 993 451 1018 m 664 722 b 717 669 704 722 717 708 l 717 114 b 660 31 717 68 706 49 b 364 -21 572 -4 474 -21 b 51 279 154 -21 51 86 l 51 669 b 104 722 51 708 64 722 l 257 722 b 310 669 297 722 310 708 l 310 289 b 393 213 310 238 338 213 b 449 218 411 213 431 214 b 458 231 456 219 458 224 l 458 669 b 511 722 458 708 472 722 "},"ý":{"ha":775,"x_min":0,"x_max":0,"o":"m 407 1019 b 499 1017 444 1043 475 1042 l 572 939 b 565 883 594 911 599 894 l 315 800 b 250 804 283 789 261 790 l 211 850 b 214 903 189 876 190 890 m 675 722 b 728 669 715 722 728 708 l 728 1 b 394 -319 728 -194 624 -319 b 85 -182 246 -319 143 -274 b 111 -101 63 -149 71 -122 l 228 -44 b 304 -62 272 -28 282 -33 b 392 -108 326 -93 356 -108 b 469 -28 443 -108 469 -82 l 469 26 b 375 21 444 22 413 21 b 63 321 165 21 63 128 l 63 669 b 115 722 63 708 75 722 l 268 722 b 321 669 308 722 321 708 l 321 331 b 404 254 321 279 349 254 b 469 260 431 254 451 256 l 469 669 b 522 722 469 708 483 722 "},"þ":{"ha":764,"x_min":0,"x_max":0,"o":"m 58 974 b 113 1028 58 1014 72 1028 l 265 1028 b 318 974 306 1028 318 1014 l 318 739 b 407 743 344 742 375 743 b 725 443 619 743 725 636 l 725 293 b 401 -21 725 88 614 -21 b 318 -14 389 -21 361 -18 l 318 -251 b 264 -304 318 -292 304 -304 l 113 -304 b 58 -251 72 -304 58 -292 m 467 450 b 388 518 467 496 440 518 b 318 510 365 518 342 515 l 318 210 b 381 203 339 206 360 203 b 467 279 438 203 467 228 "},"ÿ":{"ha":775,"x_min":0,"x_max":0,"o":"m 251 1018 b 353 919 328 1018 353 993 l 353 901 b 251 801 353 828 328 801 l 240 801 b 140 901 164 801 140 828 l 140 919 b 240 1018 140 996 163 1018 m 550 1018 b 650 919 626 1018 650 996 l 650 901 b 550 801 650 828 626 801 l 540 801 b 438 901 463 801 438 828 l 438 919 b 540 1018 438 993 463 1018 m 675 722 b 728 669 715 722 728 708 l 728 1 b 394 -319 728 -194 624 -319 b 85 -182 246 -319 143 -274 b 111 -101 63 -149 71 -122 l 228 -44 b 304 -62 272 -28 282 -33 b 392 -108 326 -93 356 -108 b 469 -28 443 -108 469 -82 l 469 26 b 375 21 444 22 413 21 b 63 321 165 21 63 128 l 63 669 b 115 722 63 708 75 722 l 268 722 b 321 669 308 722 321 708 l 321 331 b 404 254 321 279 349 254 b 469 260 431 254 451 256 l 469 669 b 522 722 469 708 483 722 "},"Ā":{"ha":956,"x_min":0,"x_max":0,"o":"m 668 1239 b 718 1189 707 1239 718 1229 l 718 1131 b 668 1081 718 1090 707 1081 l 329 1081 b 279 1131 290 1081 279 1090 l 279 1189 b 329 1239 279 1228 292 1239 m 971 57 b 931 0 985 19 971 0 l 781 0 b 676 58 710 0 688 14 l 644 158 l 344 158 l 313 58 b 211 0 297 14 278 0 l 65 0 b 28 57 26 0 14 19 l 347 938 b 419 986 360 976 376 986 l 578 986 b 650 940 618 986 638 975 m 531 539 b 501 706 514 594 503 668 l 500 733 l 486 733 b 460 540 488 667 478 603 l 408 376 l 582 376 "},"ā":{"ha":735,"x_min":0,"x_max":0,"o":"m 533 986 b 583 936 574 986 583 976 l 583 878 b 533 828 583 838 574 828 l 194 828 b 144 878 156 828 144 838 l 144 936 b 194 986 144 975 157 986 m 56 599 b 364 743 106 694 208 743 b 688 443 597 743 688 633 l 688 101 b 635 18 688 51 678 35 b 360 -21 574 -8 482 -21 b 100 33 233 -21 147 -3 b 29 210 53 69 29 128 b 107 392 29 297 56 358 b 367 442 158 425 244 442 b 429 440 383 442 419 440 l 429 475 b 351 546 429 522 403 546 b 261 499 314 546 285 531 b 185 481 240 471 231 465 l 85 522 b 56 599 46 539 38 558 m 429 265 b 356 267 417 267 393 267 b 282 211 307 267 282 249 b 353 156 282 176 299 156 b 422 160 385 156 408 157 b 429 167 426 160 429 163 "},"Ă":{"ha":956,"x_min":0,"x_max":0,"o":"m 744 1194 b 499 1047 707 1096 625 1047 b 254 1194 374 1047 292 1096 b 278 1243 246 1217 254 1233 l 369 1278 b 422 1261 401 1289 407 1285 b 499 1215 439 1231 464 1215 b 574 1261 531 1215 556 1231 b 624 1279 586 1285 596 1289 l 721 1243 b 744 1194 746 1233 754 1218 m 971 57 b 931 0 985 19 971 0 l 781 0 b 676 58 710 0 688 14 l 644 158 l 344 158 l 313 58 b 211 0 297 14 278 0 l 65 0 b 28 57 26 0 14 19 l 347 938 b 419 986 360 976 376 986 l 578 986 b 650 940 618 986 638 975 m 531 539 b 501 706 514 594 503 668 l 500 733 l 486 733 b 460 540 488 667 478 603 l 408 376 l 582 376 "},"ă":{"ha":735,"x_min":0,"x_max":0,"o":"m 611 944 b 364 797 574 846 492 797 b 119 944 238 797 157 846 b 144 993 110 971 117 982 l 235 1028 b 289 1011 267 1039 274 1033 b 364 965 304 981 329 965 b 440 1011 397 965 422 981 b 489 1028 456 1033 461 1038 l 588 993 b 611 944 611 983 619 967 m 56 599 b 364 743 106 694 208 743 b 688 443 597 743 688 633 l 688 101 b 635 18 688 51 678 35 b 360 -21 574 -8 482 -21 b 100 33 233 -21 147 -3 b 29 210 53 69 29 128 b 107 392 29 297 56 358 b 367 442 158 425 244 442 b 429 440 383 442 419 440 l 429 475 b 351 546 429 522 403 546 b 261 499 314 546 285 531 b 185 481 240 471 231 465 l 85 522 b 56 599 46 539 38 558 m 429 265 b 356 267 417 267 393 267 b 282 211 307 267 282 249 b 353 156 282 176 299 156 b 422 160 385 156 408 157 b 429 167 426 160 429 163 "},"Ą":{"ha":956,"x_min":0,"x_max":0,"o":"m 578 986 b 650 940 618 986 638 975 l 972 56 b 967 7 979 33 978 17 b 871 -161 896 -58 865 -124 b 896 -186 874 -178 882 -186 b 922 -178 903 -186 913 -183 b 954 -186 938 -168 947 -171 l 983 -251 b 975 -293 990 -269 988 -283 b 821 -342 933 -325 882 -342 b 672 -249 733 -342 685 -311 b 776 0 657 -168 692 -85 b 676 58 706 1 689 14 l 646 158 l 344 158 l 313 58 b 213 0 300 14 279 0 l 65 0 b 28 57 26 0 14 19 l 349 938 b 421 986 361 976 378 986 m 532 539 b 501 706 515 594 503 668 l 500 733 l 488 733 b 460 540 488 667 478 603 l 408 376 l 582 376 "},"ą":{"ha":736,"x_min":0,"x_max":0,"o":"m 56 599 b 364 743 106 694 208 743 b 688 443 597 743 688 633 l 688 101 b 671 39 688 72 682 51 b 574 -161 600 -43 567 -110 b 600 -186 576 -178 585 -186 b 625 -178 607 -186 615 -183 b 658 -186 640 -168 651 -171 l 686 -251 b 679 -293 693 -269 692 -283 b 524 -342 638 -325 586 -342 b 376 -249 438 -342 389 -311 b 468 -15 361 -176 392 -99 b 360 -21 428 -19 392 -21 b 100 33 233 -21 147 -3 b 29 210 53 69 29 128 b 107 392 29 297 56 358 b 367 442 158 425 244 442 b 429 440 383 442 419 440 l 429 475 b 351 546 429 522 403 546 b 261 499 314 546 285 531 b 185 481 240 471 231 465 l 85 522 b 56 599 46 539 38 558 m 429 265 b 356 267 417 267 393 267 b 282 211 307 267 282 249 b 353 156 282 176 299 156 b 422 160 385 156 408 157 b 429 167 426 160 429 163 "},"Ć":{"ha":904,"x_min":0,"x_max":0,"o":"m 490 1269 b 582 1265 529 1292 560 1290 l 653 1185 b 644 1129 676 1158 678 1140 l 393 1051 b 329 1058 360 1040 342 1040 l 290 1104 b 294 1157 269 1131 271 1144 m 46 618 b 474 1007 46 861 201 1007 b 879 764 683 1007 818 926 b 842 689 894 724 882 701 l 693 636 b 618 674 650 624 633 631 b 474 764 594 733 546 764 b 321 619 367 764 321 718 l 321 367 b 474 222 321 268 367 222 b 618 313 547 222 596 253 b 693 350 635 357 650 365 l 842 297 b 879 222 882 285 894 263 b 474 -21 818 60 683 -21 b 46 368 201 -21 46 125 "},"ć":{"ha":725,"x_min":0,"x_max":0,"o":"m 390 1019 b 482 1017 428 1043 458 1042 l 556 939 b 549 883 578 911 582 894 l 299 800 b 233 804 267 789 244 790 l 194 850 b 197 903 172 876 174 890 m 39 438 b 383 743 39 631 151 743 b 696 550 549 743 656 665 b 658 475 708 507 699 490 l 529 432 b 453 469 486 419 469 426 b 371 526 438 507 411 526 b 297 451 322 526 297 501 l 297 271 b 371 196 297 221 322 196 b 453 253 411 196 438 215 b 529 288 469 293 486 303 l 663 247 b 699 171 703 235 714 210 b 368 -21 646 43 536 -21 b 39 286 146 -21 39 90 "},"Ĉ":{"ha":904,"x_min":0,"x_max":0,"o":"m 504 1278 b 603 1236 554 1278 565 1274 l 746 1094 b 725 1047 769 1072 768 1047 l 608 1047 b 515 1076 551 1047 536 1050 l 476 1126 l 432 1078 b 342 1047 410 1050 397 1047 l 233 1047 b 211 1094 190 1047 188 1072 l 353 1236 b 399 1271 371 1254 386 1267 b 460 1278 410 1275 431 1278 m 46 618 b 474 1007 46 861 201 1007 b 879 764 683 1007 818 926 b 842 689 894 724 882 701 l 693 636 b 618 674 650 624 633 631 b 474 764 594 733 546 764 b 321 619 367 764 321 718 l 321 367 b 474 222 321 268 367 222 b 618 313 547 222 596 253 b 693 350 635 357 650 365 l 842 297 b 879 222 882 285 894 263 b 474 -21 818 60 683 -21 b 46 368 201 -21 46 125 "},"ĉ":{"ha":725,"x_min":0,"x_max":0,"o":"m 407 1021 b 503 981 456 1021 468 1018 l 642 843 b 622 796 665 821 663 796 l 508 796 b 418 825 453 796 436 801 l 378 874 l 336 826 b 247 796 314 799 301 796 l 147 796 b 126 843 107 796 103 821 l 265 981 b 310 1015 283 999 299 1011 b 369 1021 321 1019 340 1021 m 39 438 b 383 743 39 631 151 743 b 696 550 549 743 656 665 b 658 475 708 507 699 490 l 529 432 b 453 469 486 419 469 426 b 371 526 438 507 411 526 b 297 451 322 526 297 501 l 297 271 b 371 196 297 221 322 196 b 453 253 411 196 438 215 b 529 288 469 293 486 303 l 663 247 b 699 171 703 235 714 210 b 368 -21 646 43 536 -21 b 39 286 146 -21 39 90 "},"Ċ":{"ha":904,"x_min":0,"x_max":0,"o":"m 481 1271 b 583 1167 560 1271 583 1249 l 583 1156 b 481 1051 583 1074 560 1051 l 472 1051 b 367 1156 390 1051 367 1074 l 367 1167 b 472 1271 367 1249 390 1271 m 46 618 b 474 1007 46 861 201 1007 b 879 764 683 1007 818 926 b 842 689 894 724 882 701 l 693 636 b 618 674 650 624 633 631 b 474 764 594 733 546 764 b 321 619 367 764 321 718 l 321 367 b 474 222 321 268 367 222 b 618 313 547 222 596 253 b 693 350 635 357 650 365 l 842 297 b 879 222 882 285 894 263 b 474 -21 818 60 683 -21 b 46 368 201 -21 46 125 "},"ċ":{"ha":725,"x_min":0,"x_max":0,"o":"m 383 1022 b 486 918 463 1022 486 1000 l 486 907 b 383 803 486 825 463 803 l 375 803 b 269 907 293 803 269 825 l 269 918 b 375 1022 269 1000 293 1022 m 39 438 b 383 743 39 631 151 743 b 696 550 549 743 656 665 b 658 475 708 507 699 490 l 529 432 b 453 469 486 419 469 426 b 371 526 438 507 411 526 b 297 451 322 526 297 501 l 297 271 b 371 196 297 221 322 196 b 453 253 411 196 438 215 b 529 288 469 293 486 303 l 663 247 b 699 171 703 235 714 210 b 368 -21 646 43 536 -21 b 39 286 146 -21 39 90 "},"Č":{"ha":904,"x_min":0,"x_max":0,"o":"m 719 1278 b 738 1229 763 1278 764 1251 l 599 1088 b 554 1054 581 1069 565 1058 b 494 1047 543 1050 524 1047 l 457 1047 b 356 1088 403 1047 393 1050 l 215 1229 b 232 1278 189 1251 189 1278 l 349 1278 b 439 1247 404 1278 418 1274 l 482 1200 l 522 1247 b 614 1278 544 1274 563 1278 m 46 618 b 474 1007 46 861 201 1007 b 879 764 683 1007 818 926 b 842 689 894 724 882 701 l 693 636 b 618 674 650 624 633 631 b 474 764 594 733 546 764 b 321 619 367 764 321 718 l 321 367 b 474 222 321 268 367 222 b 618 313 547 222 596 253 b 693 350 635 357 650 365 l 842 297 b 879 222 882 285 894 263 b 474 -21 818 60 683 -21 b 46 368 201 -21 46 125 "},"č":{"ha":725,"x_min":0,"x_max":0,"o":"m 603 1004 b 618 960 640 1004 642 981 l 492 829 b 396 790 458 794 447 790 l 361 790 b 268 829 311 790 301 794 l 140 960 b 156 1004 117 981 117 1004 l 261 1004 b 346 976 313 1004 325 1000 l 385 932 l 422 975 b 506 1004 443 999 457 1004 m 39 438 b 383 743 39 631 151 743 b 696 550 549 743 656 665 b 658 475 708 507 699 490 l 529 432 b 453 469 486 419 469 426 b 371 526 438 507 411 526 b 297 451 322 526 297 501 l 297 271 b 371 196 297 221 322 196 b 453 253 411 196 438 215 b 529 288 469 293 486 303 l 663 247 b 699 171 703 235 714 210 b 368 -21 646 43 536 -21 b 39 286 146 -21 39 90 "},"Ď":{"ha":940,"x_min":0,"x_max":0,"o":"m 683 1278 b 701 1229 724 1278 725 1251 l 561 1088 b 458 1047 522 1049 515 1047 l 419 1047 b 318 1088 365 1047 356 1050 l 178 1229 b 194 1278 157 1253 150 1278 l 311 1278 b 403 1247 367 1278 381 1274 l 444 1200 l 486 1247 b 578 1278 508 1274 524 1278 m 468 986 b 894 597 739 986 894 840 l 894 389 b 468 0 894 149 739 0 l 129 0 b 69 58 85 0 69 15 l 69 928 b 129 986 69 971 85 986 m 619 593 b 458 743 619 693 565 743 l 344 743 l 344 243 l 458 243 b 619 393 565 243 619 293 "},"ď":{"ha":894,"x_min":0,"x_max":0,"o":"m 39 429 b 353 743 39 633 147 743 b 446 739 363 743 393 742 l 446 975 b 500 1028 446 1014 460 1028 l 651 1028 b 706 975 692 1028 706 1014 l 706 107 b 647 28 706 61 696 49 b 361 -21 565 -4 469 -21 b 119 57 253 -21 172 6 b 39 279 65 108 39 183 m 929 754 b 863 707 917 717 901 707 l 790 707 b 756 746 758 707 751 714 l 779 969 b 846 1028 785 1015 800 1028 l 956 1028 b 1001 969 1004 1028 1014 1010 m 446 513 b 385 519 425 517 404 519 b 299 443 328 519 299 494 l 299 272 b 378 204 299 226 325 204 b 442 210 404 204 425 206 b 446 217 444 211 446 213 "},"Đ":{"ha":981,"x_min":0,"x_max":0,"o":"m 508 986 b 936 597 781 986 936 840 l 936 389 b 508 0 936 149 781 0 l 169 0 b 111 58 126 0 111 15 l 111 411 l 47 411 b 13 447 21 411 13 418 l 13 553 b 47 589 13 576 24 589 l 111 589 l 111 928 b 169 986 111 971 126 986 m 661 593 b 499 743 661 693 607 743 l 386 743 l 386 589 l 500 589 b 533 553 526 589 533 581 l 533 447 b 500 411 533 418 526 411 l 386 411 l 386 243 l 499 243 b 661 393 607 243 661 293 "},"đ":{"ha":761,"x_min":0,"x_max":0,"o":"m 765 947 b 799 911 792 947 799 939 l 799 846 b 765 808 799 817 792 808 l 706 808 l 706 107 b 647 28 706 61 696 49 b 361 -21 565 -4 469 -21 b 119 57 253 -21 172 6 b 39 279 65 108 39 183 l 39 429 b 353 743 39 633 147 743 b 446 739 363 743 393 742 l 446 808 l 326 808 b 293 846 300 808 293 817 l 293 911 b 326 947 293 939 303 947 l 446 947 l 446 975 b 500 1028 446 1014 460 1028 l 651 1028 b 706 975 692 1028 706 1014 l 706 947 m 446 513 b 385 519 425 517 404 519 b 299 443 328 519 299 494 l 299 272 b 378 204 299 226 325 204 b 442 210 404 204 425 206 b 446 217 444 211 446 213 "},"Ē":{"ha":817,"x_min":0,"x_max":0,"o":"m 589 1239 b 640 1189 629 1239 640 1229 l 640 1131 b 589 1081 640 1090 629 1081 l 251 1081 b 201 1131 211 1081 201 1090 l 201 1189 b 251 1239 201 1228 214 1239 m 711 986 b 771 928 756 986 771 971 l 771 803 b 711 743 771 758 756 743 l 344 743 l 344 619 l 638 619 b 697 561 682 619 697 604 l 697 436 b 638 376 697 392 682 376 l 344 376 l 344 243 l 724 243 b 782 185 767 243 782 229 l 782 58 b 724 0 782 15 767 0 l 129 0 b 69 58 85 0 69 15 l 69 928 b 129 986 69 971 85 986 "},"ē":{"ha":763,"x_min":0,"x_max":0,"o":"m 540 975 b 586 928 578 975 586 965 l 586 871 b 540 824 586 833 578 824 l 229 824 b 185 871 194 824 185 833 l 185 928 b 229 975 185 965 196 975 m 38 422 b 385 743 38 629 158 743 b 733 439 614 743 733 617 l 733 363 b 657 290 733 314 708 290 l 296 290 l 296 264 b 386 174 296 204 326 174 b 497 225 433 174 471 190 b 575 239 515 253 529 257 l 671 197 b 697 117 708 179 717 153 b 383 -21 644 25 540 -21 b 38 300 146 -21 38 106 m 474 476 b 385 560 474 532 444 560 b 296 476 325 560 296 532 l 296 458 l 474 458 "},"Ĕ":{"ha":817,"x_min":0,"x_max":0,"o":"m 667 1194 b 421 1047 629 1096 547 1047 b 176 1194 299 1047 211 1100 b 200 1243 168 1217 176 1233 l 292 1278 b 344 1261 324 1289 329 1285 b 421 1215 361 1231 386 1215 b 496 1261 453 1215 478 1231 b 546 1279 511 1285 517 1286 l 643 1243 b 667 1194 667 1233 675 1218 m 711 986 b 771 928 756 986 771 971 l 771 803 b 711 743 771 758 756 743 l 344 743 l 344 619 l 638 619 b 697 561 682 619 697 604 l 697 436 b 638 376 697 392 682 376 l 344 376 l 344 243 l 724 243 b 782 185 767 243 782 229 l 782 58 b 724 0 782 15 767 0 l 129 0 b 69 58 85 0 69 15 l 69 928 b 129 986 69 971 85 986 "},"ĕ":{"ha":763,"x_min":0,"x_max":0,"o":"m 632 944 b 385 797 594 846 513 797 b 140 944 258 797 178 846 b 164 993 132 967 140 983 l 256 1028 b 310 1011 288 1039 294 1033 b 385 965 325 981 350 965 b 461 1011 418 965 443 981 b 510 1028 476 1033 482 1038 l 607 993 b 632 944 635 982 642 971 m 38 422 b 385 743 38 629 158 743 b 733 439 614 743 733 617 l 733 363 b 657 290 733 314 708 290 l 296 290 l 296 264 b 386 174 296 204 326 174 b 497 225 433 174 471 190 b 575 239 515 253 529 257 l 671 197 b 697 117 708 179 717 153 b 383 -21 644 25 540 -21 b 38 300 146 -21 38 106 m 474 476 b 385 560 474 532 444 560 b 296 476 325 560 296 532 l 296 458 l 474 458 "},"Ė":{"ha":817,"x_min":0,"x_max":0,"o":"m 425 1271 b 528 1167 504 1271 528 1249 l 528 1156 b 425 1051 528 1074 504 1051 l 417 1051 b 313 1156 335 1051 313 1074 l 313 1167 b 417 1271 313 1249 335 1271 m 711 986 b 771 928 756 986 771 971 l 771 803 b 711 743 771 758 756 743 l 344 743 l 344 619 l 638 619 b 697 561 682 619 697 604 l 697 436 b 638 376 697 392 682 376 l 344 376 l 344 243 l 724 243 b 782 185 767 243 782 229 l 782 58 b 724 0 782 15 767 0 l 129 0 b 69 58 85 0 69 15 l 69 928 b 129 986 69 971 85 986 "},"ė":{"ha":763,"x_min":0,"x_max":0,"o":"m 389 1022 b 493 918 471 1022 493 997 l 493 907 b 389 803 493 828 471 803 l 381 803 b 276 907 299 803 276 828 l 276 918 b 381 1022 276 997 299 1022 m 38 422 b 385 743 38 629 158 743 b 733 439 614 743 733 617 l 733 363 b 657 290 733 314 708 290 l 296 290 l 296 264 b 386 174 296 204 326 174 b 497 225 433 174 471 190 b 575 239 515 253 529 257 l 671 197 b 697 117 708 179 717 153 b 383 -21 644 25 540 -21 b 38 300 146 -21 38 106 m 474 476 b 385 560 474 532 444 560 b 296 476 325 560 296 532 l 296 458 l 474 458 "},"Ę":{"ha":817,"x_min":0,"x_max":0,"o":"m 711 986 b 771 928 756 986 771 971 l 771 803 b 711 743 771 758 756 743 l 344 743 l 344 619 l 638 619 b 697 561 682 619 697 604 l 697 436 b 638 376 697 392 682 376 l 344 376 l 344 243 l 724 243 b 782 185 767 243 782 229 l 782 58 b 768 13 782 38 778 22 b 682 -104 719 -43 692 -82 b 672 -160 672 -124 669 -142 b 697 -183 674 -175 682 -183 b 721 -176 707 -183 714 -181 b 754 -185 736 -167 747 -169 l 782 -250 b 775 -292 789 -268 788 -282 b 621 -339 735 -324 683 -339 b 472 -246 535 -339 485 -308 b 579 0 456 -167 501 -72 l 129 0 b 69 58 85 0 69 15 l 69 928 b 129 986 69 971 85 986 "},"ę":{"ha":764,"x_min":0,"x_max":0,"o":"m 38 422 b 385 743 38 629 158 743 b 733 439 614 743 733 617 l 733 363 b 657 290 733 314 708 290 l 296 290 l 296 264 b 386 174 296 204 326 174 b 497 225 433 174 471 190 b 575 239 515 253 529 257 l 671 197 b 697 117 708 179 717 153 b 656 63 686 96 672 78 b 553 -161 579 -25 544 -100 b 578 -186 554 -178 563 -186 b 603 -178 586 -186 594 -183 b 636 -186 618 -168 629 -171 l 664 -251 b 657 -293 672 -269 669 -283 b 503 -342 615 -325 564 -342 b 354 -249 415 -342 367 -311 b 446 -18 340 -176 371 -100 b 383 -21 419 -19 399 -21 b 38 300 146 -21 38 106 m 474 476 b 385 560 474 532 444 560 b 296 476 325 560 296 532 l 296 458 l 474 458 "},"Ě":{"ha":817,"x_min":0,"x_max":0,"o":"m 665 1278 b 682 1229 706 1278 708 1251 l 543 1088 b 499 1054 525 1069 510 1058 b 439 1047 488 1050 468 1047 l 401 1047 b 300 1088 347 1047 338 1050 l 160 1229 b 176 1278 133 1251 133 1278 l 293 1278 b 385 1247 349 1278 363 1274 l 426 1200 l 468 1247 b 560 1278 490 1274 506 1278 m 711 986 b 771 928 756 986 771 971 l 771 803 b 711 743 771 758 756 743 l 344 743 l 344 619 l 638 619 b 697 561 682 619 697 604 l 697 436 b 638 376 697 392 682 376 l 344 376 l 344 243 l 724 243 b 782 185 767 243 782 229 l 782 58 b 724 0 782 15 767 0 l 129 0 b 69 58 85 0 69 15 l 69 928 b 129 986 69 971 85 986 "},"ě":{"ha":763,"x_min":0,"x_max":0,"o":"m 608 1004 b 625 960 647 1004 649 981 l 497 829 b 403 790 464 794 454 790 l 368 790 b 275 829 318 790 308 794 l 146 960 b 161 1004 124 981 122 1004 l 268 1004 b 351 976 319 1004 331 1000 l 390 932 l 428 975 b 513 1004 449 999 463 1004 m 38 422 b 385 743 38 629 158 743 b 733 439 614 743 733 617 l 733 363 b 657 290 733 314 708 290 l 296 290 l 296 264 b 386 174 296 204 326 174 b 497 225 433 174 471 190 b 575 239 515 253 529 257 l 671 197 b 697 117 708 179 717 153 b 383 -21 644 25 540 -21 b 38 300 146 -21 38 106 m 474 476 b 385 560 474 532 444 560 b 296 476 325 560 296 532 l 296 458 l 474 458 "},"Ĝ":{"ha":940,"x_min":0,"x_max":0,"o":"m 501 1292 b 601 1250 551 1292 563 1288 l 743 1108 b 722 1061 767 1086 765 1061 l 606 1061 b 514 1090 549 1061 532 1064 l 474 1140 l 431 1092 b 339 1061 408 1064 394 1061 l 231 1061 b 210 1108 188 1061 183 1086 l 351 1250 b 396 1285 369 1268 383 1281 b 457 1292 407 1289 428 1292 m 842 567 b 900 507 886 567 900 551 l 900 324 b 788 76 900 222 863 140 b 474 -21 711 11 607 -21 b 46 368 201 -21 46 125 l 46 618 b 474 1007 46 861 201 1007 b 879 764 683 1007 818 926 b 842 689 894 724 882 701 l 693 636 b 618 674 650 621 633 631 b 474 764 594 733 546 764 b 321 619 367 764 321 718 l 321 367 b 474 222 321 268 367 222 b 624 317 567 222 624 257 l 624 344 l 490 344 b 432 403 447 344 432 358 l 432 507 b 490 567 432 551 447 567 "},"ĝ":{"ha":760,"x_min":0,"x_max":0,"o":"m 425 1021 b 522 981 475 1021 485 1018 l 661 843 b 640 796 685 821 683 796 l 526 796 b 436 825 471 796 457 801 l 397 874 l 354 826 b 267 796 332 800 318 796 l 165 796 b 146 843 125 796 122 821 l 283 981 b 328 1015 301 999 317 1011 b 388 1021 339 1019 358 1021 m 47 429 b 386 743 47 635 160 743 b 660 696 501 743 593 728 b 714 615 706 675 714 661 l 714 1 b 379 -319 714 -194 608 -319 b 69 -182 231 -319 128 -274 b 96 -101 49 -149 57 -122 l 213 -44 b 288 -58 244 -29 269 -33 b 378 -108 314 -92 343 -108 b 454 -28 429 -108 454 -82 l 454 28 b 360 19 417 22 386 19 b 47 318 150 19 47 125 m 450 513 b 393 518 436 517 417 518 b 307 442 336 518 307 493 l 307 313 b 386 243 307 267 333 243 b 454 250 408 243 444 250 l 454 506 b 450 513 454 510 453 511 "},"Ğ":{"ha":940,"x_min":0,"x_max":0,"o":"m 719 1208 b 474 1061 682 1110 600 1061 b 229 1208 351 1061 264 1114 b 253 1257 221 1231 229 1247 l 344 1292 b 397 1275 376 1303 382 1299 b 474 1229 414 1244 439 1229 b 549 1275 506 1229 531 1244 b 599 1293 564 1299 569 1300 l 696 1257 b 719 1208 719 1247 728 1232 m 842 567 b 900 507 886 567 900 551 l 900 324 b 788 76 900 222 863 140 b 474 -21 711 11 607 -21 b 46 368 201 -21 46 125 l 46 618 b 474 1007 46 861 201 1007 b 879 764 683 1007 818 926 b 842 689 894 724 882 701 l 693 636 b 618 674 650 621 633 631 b 474 764 594 733 546 764 b 321 619 367 764 321 718 l 321 367 b 474 222 321 268 367 222 b 624 317 567 222 624 257 l 624 344 l 490 344 b 432 403 447 344 432 358 l 432 507 b 490 567 432 551 447 567 "},"ğ":{"ha":760,"x_min":0,"x_max":0,"o":"m 644 944 b 397 797 607 846 525 797 b 153 944 271 797 190 846 b 176 993 144 967 153 983 l 268 1028 b 322 1011 300 1039 307 1033 b 397 965 338 981 363 965 b 474 1011 431 965 456 981 b 522 1028 489 1033 494 1038 l 619 993 b 644 944 647 982 654 971 m 47 429 b 386 743 47 635 160 743 b 660 696 501 743 593 728 b 714 615 706 675 714 661 l 714 1 b 379 -319 714 -194 608 -319 b 69 -182 231 -319 128 -274 b 96 -101 49 -149 57 -122 l 213 -44 b 288 -58 244 -29 269 -33 b 378 -108 314 -92 343 -108 b 454 -28 429 -108 454 -82 l 454 28 b 360 19 417 22 386 19 b 47 318 150 19 47 125 m 450 513 b 393 518 436 517 417 518 b 307 442 336 518 307 493 l 307 313 b 386 243 307 267 333 243 b 454 250 408 243 444 250 l 454 506 b 450 513 454 510 453 511 "},"Ġ":{"ha":940,"x_min":0,"x_max":0,"o":"m 478 1285 b 581 1181 557 1285 581 1263 l 581 1169 b 478 1065 581 1088 557 1065 l 469 1065 b 365 1169 388 1065 365 1088 l 365 1181 b 469 1285 365 1263 388 1285 m 842 567 b 900 507 886 567 900 551 l 900 324 b 788 76 900 222 863 140 b 474 -21 711 11 607 -21 b 46 368 201 -21 46 125 l 46 618 b 474 1007 46 861 201 1007 b 879 764 683 1007 818 926 b 842 689 894 724 882 701 l 693 636 b 618 674 650 621 633 631 b 474 764 594 733 546 764 b 321 619 367 764 321 718 l 321 367 b 474 222 321 268 367 222 b 624 317 567 222 624 257 l 624 344 l 490 344 b 432 403 447 344 432 358 l 432 507 b 490 567 432 551 447 567 "},"ġ":{"ha":760,"x_min":0,"x_max":0,"o":"m 401 1022 b 506 918 483 1022 506 997 l 506 907 b 401 803 506 828 483 803 l 393 803 b 289 907 311 803 289 828 l 289 918 b 393 1022 289 997 311 1022 m 47 429 b 386 743 47 635 160 743 b 660 696 501 743 593 728 b 714 615 706 675 714 661 l 714 1 b 379 -319 714 -194 608 -319 b 69 -182 231 -319 128 -274 b 96 -101 49 -149 57 -122 l 213 -44 b 288 -58 244 -29 269 -33 b 378 -108 314 -92 343 -108 b 454 -28 429 -108 454 -82 l 454 28 b 360 19 417 22 386 19 b 47 318 150 19 47 125 m 450 513 b 393 518 436 517 417 518 b 307 442 336 518 307 493 l 307 313 b 386 243 307 267 333 243 b 454 250 408 243 444 250 l 454 506 b 450 513 454 510 453 511 "},"Ģ":{"ha":940,"x_min":0,"x_max":0,"o":"m 842 567 b 900 507 886 567 900 551 l 900 324 b 788 76 900 222 863 140 b 474 -21 711 11 607 -21 b 46 368 201 -21 46 125 l 46 618 b 474 1007 46 861 201 1007 b 879 764 683 1007 818 926 b 842 689 894 724 882 701 l 693 636 b 618 674 650 621 633 631 b 474 764 594 733 546 764 b 321 619 367 764 321 718 l 321 367 b 474 222 321 268 367 222 b 624 317 567 222 624 257 l 624 344 l 490 344 b 432 403 447 344 432 358 l 432 507 b 490 567 432 551 447 567 m 542 -315 b 478 -361 532 -346 510 -361 l 390 -361 b 353 -319 358 -361 349 -349 l 375 -125 b 436 -67 381 -82 396 -67 l 561 -67 b 608 -125 607 -67 624 -86 "},"ģ":{"ha":761,"x_min":0,"x_max":0,"o":"m 331 981 b 403 1029 346 1019 363 1029 l 483 1029 b 519 989 517 1029 524 1021 l 507 850 b 438 788 501 801 486 788 l 321 788 b 275 850 272 788 257 808 m 47 429 b 386 743 47 635 160 743 b 660 696 501 743 593 728 b 714 615 706 675 714 661 l 714 1 b 379 -319 714 -194 608 -319 b 69 -182 231 -319 128 -274 b 96 -101 49 -149 57 -122 l 213 -44 b 288 -58 244 -29 269 -33 b 378 -108 314 -92 343 -108 b 454 -28 429 -108 454 -82 l 454 28 b 360 19 417 22 386 19 b 47 318 150 19 47 125 m 450 513 b 393 518 436 517 417 518 b 307 442 336 518 307 493 l 307 313 b 386 243 307 267 333 243 b 454 250 408 243 444 250 l 454 506 b 450 513 454 510 453 511 "},"Ĥ":{"ha":958,"x_min":0,"x_max":0,"o":"m 508 1278 b 607 1236 558 1278 569 1274 l 750 1094 b 728 1047 774 1072 771 1047 l 613 1047 b 519 1076 556 1047 540 1050 l 479 1126 l 436 1078 b 346 1047 414 1051 400 1047 l 236 1047 b 215 1094 193 1047 192 1072 l 357 1236 b 403 1271 375 1254 390 1267 b 464 1278 414 1275 435 1278 m 831 988 b 889 928 874 988 889 972 l 889 58 b 831 0 889 15 874 0 l 672 0 b 614 58 629 0 614 15 l 614 378 l 344 378 l 344 58 b 286 0 344 15 331 0 l 129 0 b 69 58 85 0 69 15 l 69 928 b 129 988 69 972 85 988 l 286 988 b 344 928 331 988 344 972 l 344 621 l 614 621 l 614 928 b 672 988 614 972 629 988 "},"ĥ":{"ha":775,"x_min":0,"x_max":0,"o":"m 219 1307 b 314 1267 268 1307 279 1301 l 451 1131 b 431 1085 475 1110 471 1085 l 318 1085 b 231 1114 264 1085 249 1090 l 192 1161 l 150 1114 b 63 1085 128 1088 114 1085 l -36 1085 b -56 1131 -76 1085 -79 1110 l 81 1267 b 125 1301 99 1285 114 1297 b 183 1307 135 1306 154 1307 m 267 1028 b 321 975 307 1028 321 1014 l 321 738 b 415 743 350 742 382 743 b 728 443 625 743 728 636 l 728 53 b 675 0 728 14 714 0 l 522 0 b 469 53 482 0 469 14 l 469 433 b 386 510 469 485 442 510 b 321 504 357 510 336 508 l 321 53 b 267 0 321 14 307 0 l 115 0 b 61 53 75 0 61 14 l 61 975 b 115 1028 61 1014 75 1028 "},"Ħ":{"ha":1003,"x_min":0,"x_max":0,"o":"m 963 874 b 996 838 989 874 996 865 l 996 763 b 963 726 996 733 989 726 l 910 726 l 910 58 b 851 0 910 15 896 0 l 694 0 b 635 58 650 0 635 15 l 635 378 l 367 378 l 367 58 b 307 0 367 15 351 0 l 150 0 b 92 58 106 0 92 15 l 92 726 l 40 726 b 7 763 14 726 7 733 l 7 838 b 40 874 7 861 18 874 l 92 874 l 92 928 b 150 988 92 972 106 988 l 307 988 b 367 928 351 988 367 972 l 367 874 l 635 874 l 635 928 b 694 988 635 972 650 988 l 851 988 b 910 928 896 988 910 972 l 910 874 m 367 726 l 367 621 l 635 621 l 635 726 "},"ħ":{"ha":776,"x_min":0,"x_max":0,"o":"m 318 738 b 413 743 347 742 379 743 b 725 443 622 743 725 636 l 725 53 b 672 0 725 14 711 0 l 519 0 b 467 53 479 0 467 14 l 467 433 b 383 510 467 485 439 510 b 318 504 354 510 333 508 l 318 53 b 264 0 318 14 304 0 l 113 0 b 58 53 72 0 58 14 l 58 807 l 19 807 b -14 844 -7 807 -14 815 l -14 907 b 19 943 -14 935 -4 943 l 58 943 l 58 975 b 113 1028 58 1014 72 1028 l 264 1028 b 318 975 304 1028 318 1014 l 318 943 l 444 943 b 479 907 471 943 479 935 l 479 844 b 444 807 479 815 472 807 l 318 807 "},"Ĩ":{"ha":415,"x_min":0,"x_max":0,"o":"m 411 1263 b 443 1231 432 1263 443 1251 b 307 1060 443 1107 400 1060 b 194 1089 268 1060 231 1069 b 124 1118 157 1108 133 1118 b 103 1088 110 1118 103 1108 b 76 1060 103 1069 94 1060 l -10 1060 b -42 1092 -31 1060 -42 1071 b 92 1263 -42 1218 4 1263 b 208 1235 132 1263 171 1253 b 281 1206 246 1215 271 1206 b 300 1236 293 1206 300 1215 b 328 1263 300 1254 310 1263 m 69 931 b 125 986 69 971 85 986 l 289 986 b 344 931 329 986 344 971 l 344 56 b 289 0 344 15 329 0 l 125 0 b 69 56 85 0 69 15 "},"ĩ":{"ha":374,"x_min":0,"x_max":0,"o":"m 349 1025 b 375 992 367 1025 375 1014 b 263 817 375 863 339 817 b 172 844 231 817 201 826 b 115 872 143 863 124 872 b 97 844 103 872 97 863 b 75 817 97 826 90 817 l 3 817 b -24 850 -15 817 -24 828 b 88 1025 -24 967 14 1025 b 181 996 119 1025 151 1015 b 238 967 210 976 229 967 b 257 997 250 967 257 976 b 279 1025 257 1015 264 1025 m 263 722 b 317 669 303 722 317 708 l 317 53 b 263 0 317 14 303 0 l 111 0 b 57 53 71 0 57 14 l 57 669 b 111 722 57 708 71 722 "},"Ī":{"ha":415,"x_min":0,"x_max":0,"o":"m 376 1239 b 428 1189 417 1239 428 1229 l 428 1131 b 376 1081 428 1090 417 1081 l 38 1081 b -11 1131 -1 1081 -11 1090 l -11 1189 b 38 1239 -11 1228 3 1239 m 69 931 b 125 986 69 971 85 986 l 289 986 b 344 931 329 986 344 971 l 344 56 b 289 0 344 15 329 0 l 125 0 b 69 56 85 0 69 15 "},"ī":{"ha":374,"x_min":0,"x_max":0,"o":"m 308 982 b 346 933 338 982 346 972 l 346 875 b 308 825 346 835 338 825 l 64 825 b 28 875 35 825 28 835 l 28 933 b 64 982 28 971 38 982 m 263 722 b 317 669 303 722 317 708 l 317 53 b 263 0 317 14 303 0 l 111 0 b 57 53 71 0 57 14 l 57 669 b 111 722 57 708 71 722 "},"Ĭ":{"ha":415,"x_min":0,"x_max":0,"o":"m 468 1194 b 222 1047 431 1096 349 1047 b -22 1194 100 1047 13 1100 b 1 1243 -32 1217 -24 1233 l 93 1278 b 146 1261 122 1289 131 1285 b 222 1215 163 1231 188 1215 b 297 1261 254 1215 279 1231 b 346 1279 313 1285 318 1286 l 444 1243 b 468 1194 468 1233 476 1218 m 83 931 b 139 986 83 971 99 986 l 303 986 b 358 931 343 986 358 971 l 358 56 b 303 0 358 15 343 0 l 139 0 b 83 56 99 0 83 15 "},"ĭ":{"ha":374,"x_min":0,"x_max":0,"o":"m 418 993 b 442 944 442 983 450 967 b 201 797 404 846 325 797 b -37 944 78 797 -3 846 b -14 993 -47 967 -39 983 l 78 1028 b 131 1011 107 1039 115 1033 b 201 967 146 982 169 967 b 271 1011 232 967 256 982 b 319 1028 286 1033 292 1038 m 276 722 b 331 669 317 722 331 708 l 331 53 b 276 0 331 14 317 0 l 125 0 b 71 53 85 0 71 14 l 71 669 b 125 722 71 708 85 722 "},"Į":{"ha":415,"x_min":0,"x_max":0,"o":"m 372 -251 b 364 -293 379 -269 376 -283 b 210 -342 322 -325 271 -342 b 61 -249 122 -342 74 -311 b 161 0 44 -169 85 -78 b 82 63 99 0 82 17 l 82 931 b 138 986 82 971 97 986 l 301 986 b 357 931 342 986 357 971 l 357 56 b 339 6 357 32 351 15 b 260 -161 279 -57 253 -112 b 285 -186 263 -178 271 -186 b 311 -178 292 -186 301 -183 b 343 -186 326 -168 336 -171 "},"į":{"ha":374,"x_min":0,"x_max":0,"o":"m 176 782 b 72 885 97 782 72 807 l 72 900 b 176 1003 72 978 97 1003 l 246 1003 b 349 900 324 1003 349 978 l 349 885 b 246 782 349 807 324 782 m 364 -251 b 357 -293 371 -269 369 -283 b 204 -342 315 -325 264 -342 b 57 -249 118 -342 69 -311 b 147 0 42 -172 71 -89 b 81 60 96 0 81 15 l 81 669 b 135 722 81 708 94 722 l 286 722 b 340 669 326 722 340 708 l 340 53 b 326 10 340 32 336 18 b 254 -161 272 -56 247 -112 b 281 -186 257 -178 265 -186 b 304 -179 288 -186 296 -183 b 338 -187 319 -169 331 -172 "},"İ":{"ha":415,"x_min":0,"x_max":0,"o":"m 213 1271 b 315 1167 292 1271 315 1249 l 315 1156 b 213 1051 315 1074 292 1051 l 204 1051 b 99 1156 122 1051 99 1074 l 99 1167 b 204 1271 99 1249 122 1271 m 69 931 b 125 986 69 971 85 986 l 289 986 b 344 931 329 986 344 971 l 344 56 b 289 0 344 15 329 0 l 125 0 b 69 56 85 0 69 15 "},"ı":{"ha":374,"x_min":0,"x_max":0,"o":"m 263 722 b 317 669 303 722 317 708 l 317 53 b 263 0 317 14 303 0 l 111 0 b 57 53 71 0 57 14 l 57 669 b 111 722 57 708 71 722 "},"Ĳ":{"ha":1228,"x_min":0,"x_max":0,"o":"m 1108 988 b 1165 929 1151 988 1165 972 l 1165 343 b 782 -21 1165 111 1032 -21 b 421 214 600 -21 479 57 b 458 289 408 254 418 274 l 603 340 b 681 307 643 356 664 347 b 789 222 704 250 740 222 b 890 342 857 222 890 263 l 890 929 b 947 988 890 972 904 988 m 69 931 b 125 986 69 971 85 986 l 289 986 b 344 931 329 986 344 971 l 344 56 b 289 0 344 15 329 0 l 125 0 b 69 56 85 0 69 15 "},"ĳ":{"ha":750,"x_min":0,"x_max":0,"o":"m 222 1003 b 325 900 300 1003 325 978 l 325 885 b 222 782 325 807 300 782 l 153 782 b 49 885 74 782 49 807 l 49 900 b 153 1003 49 978 74 1003 m 596 1003 b 699 900 675 1003 699 978 l 699 885 b 596 782 699 807 675 782 l 526 782 b 424 885 447 782 424 807 l 424 900 b 526 1003 424 978 447 1003 m 263 722 b 317 669 303 722 317 708 l 317 53 b 263 0 317 14 303 0 l 111 0 b 57 53 71 0 57 14 l 57 669 b 111 722 57 708 71 722 m 636 722 b 690 669 676 722 690 708 l 690 -14 b 338 -319 690 -224 575 -319 b 282 -265 297 -319 282 -306 l 282 -147 b 338 -92 282 -107 294 -92 b 432 3 400 -92 432 -60 l 432 669 b 486 722 432 708 446 722 "},"Ĵ":{"ha":815,"x_min":0,"x_max":0,"o":"m 664 1278 b 763 1236 714 1278 725 1274 l 906 1094 b 885 1047 929 1072 928 1047 l 768 1047 b 675 1076 711 1047 696 1050 l 635 1126 l 592 1078 b 501 1047 569 1051 556 1047 l 392 1047 b 371 1094 349 1047 347 1072 l 513 1236 b 558 1271 531 1254 546 1267 b 619 1278 569 1275 590 1278 m 715 988 b 772 929 758 988 772 972 l 772 343 b 390 -21 772 111 639 -21 b 29 214 207 -21 86 57 b 65 289 15 250 28 275 l 210 340 b 288 307 250 356 271 347 b 396 222 311 250 347 222 b 497 342 464 222 497 263 l 497 929 b 556 988 497 972 511 988 "},"ĵ":{"ha":375,"x_min":0,"x_max":0,"o":"m 215 1021 b 313 982 264 1021 275 1017 l 451 843 b 431 796 475 821 474 796 l 317 796 b 226 825 261 796 244 801 l 186 874 l 144 825 b 57 796 122 801 107 796 l -44 796 b -65 843 -85 796 -89 821 l 74 982 b 118 1015 92 1000 107 1011 b 178 1021 129 1019 149 1021 m 263 722 b 317 669 303 722 317 708 l 317 -14 b -36 -319 317 -224 201 -319 b -92 -265 -76 -319 -92 -306 l -92 -147 b -36 -92 -92 -107 -76 -92 b 58 3 26 -92 58 -60 l 58 669 b 113 722 58 708 72 722 "},"Ķ":{"ha":910,"x_min":0,"x_max":0,"o":"m 894 68 b 858 0 915 31 903 0 l 708 0 b 585 58 632 0 607 10 l 464 307 b 369 376 440 357 419 376 l 344 376 l 344 58 b 286 0 344 15 331 0 l 129 0 b 69 58 85 0 69 15 l 69 928 b 129 986 69 971 85 986 l 286 986 b 344 928 331 986 344 971 l 344 619 l 364 619 l 375 619 l 575 935 b 615 978 589 957 603 971 b 686 986 628 983 651 986 l 846 986 b 879 925 889 986 901 963 l 626 522 b 711 415 658 499 688 464 m 519 -315 b 457 -361 510 -346 489 -361 l 368 -361 b 331 -319 339 -361 326 -351 l 353 -125 b 415 -67 358 -82 372 -67 l 539 -67 b 586 -125 585 -67 601 -86 "},"ķ":{"ha":768,"x_min":0,"x_max":0,"o":"m 740 71 b 697 0 767 22 753 0 l 569 0 b 468 53 504 0 485 8 l 406 219 b 342 261 393 247 372 261 l 317 261 l 317 54 b 263 0 317 14 303 0 l 111 0 b 58 54 71 0 58 14 l 58 974 b 111 1028 58 1014 71 1028 l 263 1028 b 317 974 303 1028 317 1014 l 317 472 l 338 472 l 346 472 l 463 672 b 563 722 485 713 503 722 l 686 722 b 729 654 742 722 756 700 l 572 385 b 618 322 589 371 604 350 m 471 -271 b 399 -319 456 -310 439 -319 l 318 -319 b 282 -279 285 -319 278 -311 l 296 -121 b 364 -60 300 -75 315 -60 l 482 -60 b 526 -121 528 -60 542 -81 "},"ĸ":{"ha":763,"x_min":0,"x_max":0,"o":"m 736 68 b 693 0 760 22 746 0 l 565 0 b 458 50 499 0 479 10 l 364 224 l 317 163 l 317 56 b 260 0 317 13 303 0 l 114 0 b 57 56 71 0 57 13 l 57 668 b 114 722 57 708 71 722 l 260 722 b 317 668 303 722 317 708 l 317 517 l 439 675 b 538 722 471 714 482 722 l 696 722 b 729 661 747 722 757 694 l 547 433 "},"Ĺ":{"ha":753,"x_min":0,"x_max":0,"o":"m 222 1269 b 314 1265 261 1292 292 1290 l 385 1185 b 376 1129 408 1158 410 1140 l 125 1051 b 61 1058 92 1040 74 1040 l 22 1104 b 26 1157 1 1131 3 1144 m 286 986 b 344 928 331 986 344 971 l 344 243 l 679 243 b 738 185 722 243 738 229 l 738 58 b 679 0 738 15 722 0 l 129 0 b 69 58 85 0 69 15 l 69 928 b 129 986 69 971 85 986 "},"ĺ":{"ha":378,"x_min":0,"x_max":0,"o":"m 203 1293 b 292 1288 240 1314 271 1313 l 361 1203 b 354 1147 386 1175 386 1158 l 108 1072 b 44 1076 76 1061 56 1063 l 6 1125 b 8 1178 -17 1151 -15 1165 m 319 53 b 265 0 319 14 306 0 l 114 0 b 60 53 74 0 60 14 l 60 975 b 114 1028 60 1014 74 1028 l 265 1028 b 319 975 306 1028 319 1014 "},"Ļ":{"ha":753,"x_min":0,"x_max":0,"o":"m 286 986 b 344 928 331 986 344 971 l 344 243 l 679 243 b 738 185 722 243 738 229 l 738 58 b 679 0 738 15 722 0 l 129 0 b 69 58 85 0 69 15 l 69 928 b 129 986 69 971 85 986 m 444 -315 b 382 -361 435 -346 414 -361 l 293 -361 b 256 -319 264 -361 251 -351 l 279 -125 b 340 -67 283 -82 300 -67 l 464 -67 b 511 -125 510 -67 526 -86 "},"ļ":{"ha":378,"x_min":0,"x_max":0,"o":"m 321 53 b 268 0 321 14 307 0 l 115 0 b 63 53 75 0 63 14 l 63 975 b 115 1028 63 1014 75 1028 l 268 1028 b 321 975 307 1028 321 1014 m 246 -260 b 174 -308 231 -299 214 -308 l 89 -308 b 51 -268 56 -308 47 -300 l 65 -114 b 133 -51 69 -65 88 -51 l 257 -51 b 301 -114 303 -51 317 -72 "},"Ľ":{"ha":757,"x_min":0,"x_max":0,"o":"m 285 986 b 344 928 329 986 344 971 l 344 243 l 678 243 b 736 185 722 243 736 229 l 736 58 b 678 0 736 15 722 0 l 128 0 b 69 58 83 0 69 15 l 69 928 b 128 986 69 971 83 986 m 614 713 b 549 665 599 675 588 665 l 468 665 b 435 701 439 665 431 674 l 461 932 b 522 986 465 975 479 986 l 647 986 b 694 932 692 986 707 968 "},"ľ":{"ha":469,"x_min":0,"x_max":0,"o":"m 318 53 b 265 0 318 14 304 0 l 113 0 b 60 53 72 0 60 14 l 60 975 b 113 1028 60 1014 72 1028 l 265 1028 b 318 975 304 1028 318 1014 m 547 775 b 482 728 532 736 521 728 l 401 728 b 368 763 372 728 364 735 l 390 974 b 451 1028 394 1017 408 1028 l 576 1028 b 624 974 622 1028 639 1010 "},"Ŀ":{"ha":757,"x_min":0,"x_max":0,"o":"m 286 986 b 344 928 331 986 344 971 l 344 243 l 679 243 b 738 185 722 243 738 229 l 738 58 b 679 0 738 15 722 0 l 129 0 b 69 58 85 0 69 15 l 69 928 b 129 986 69 971 85 986 m 582 694 b 685 592 660 694 685 669 l 685 539 b 582 436 685 461 660 436 l 532 436 b 429 539 454 436 429 461 l 429 592 b 532 694 429 669 454 694 "},"ŀ":{"ha":665,"x_min":0,"x_max":0,"o":"m 318 53 b 265 0 318 14 304 0 l 113 0 b 60 53 72 0 60 14 l 60 975 b 113 1028 60 1014 72 1028 l 265 1028 b 318 975 304 1028 318 1014 m 549 661 b 658 553 632 661 658 635 l 658 496 b 549 388 658 414 632 388 l 496 388 b 388 496 414 388 388 414 l 388 553 b 496 661 388 635 414 661 "},"Ł":{"ha":819,"x_min":0,"x_max":0,"o":"m 761 243 b 819 185 806 243 819 229 l 819 58 b 761 0 819 15 806 0 l 211 0 b 153 58 167 0 153 15 l 153 344 l 97 321 b 40 338 64 308 53 311 l 6 408 b 24 458 -6 432 0 449 l 153 517 l 153 928 b 211 986 153 971 167 986 l 368 986 b 428 928 413 986 428 971 l 428 639 l 583 708 b 640 690 610 721 628 715 l 675 621 b 657 571 686 597 681 581 l 428 468 l 428 243 "},"ł":{"ha":524,"x_min":0,"x_max":0,"o":"m 542 611 b 528 560 554 590 549 572 l 408 497 l 408 53 b 354 0 408 14 394 0 l 203 0 b 149 53 163 0 149 14 l 149 358 l 113 339 b 54 353 88 325 68 329 l 19 413 b 35 464 7 433 13 451 l 149 525 l 149 975 b 203 1028 149 1014 163 1028 l 354 1028 b 408 975 394 1028 408 1014 l 408 663 l 449 685 b 507 671 474 699 493 694 "},"Ń":{"ha":972,"x_min":0,"x_max":0,"o":"m 504 1269 b 596 1265 543 1292 574 1290 l 667 1185 b 660 1129 690 1158 689 1139 l 407 1051 b 343 1058 375 1040 358 1040 l 306 1104 b 308 1157 286 1128 288 1144 m 844 986 b 903 928 888 986 903 971 l 903 58 b 844 0 903 15 888 0 l 688 0 b 631 28 661 0 643 10 l 417 357 b 350 483 388 403 365 444 b 294 643 333 522 315 575 l 283 643 b 310 521 296 586 306 544 b 324 422 314 497 319 464 b 329 285 328 379 329 333 l 329 58 b 269 0 329 15 314 0 l 129 0 b 69 58 85 0 69 15 l 69 928 b 129 986 69 971 85 986 l 293 986 b 351 958 319 986 339 976 l 579 603 b 644 481 608 558 632 510 b 696 349 656 451 679 388 l 707 349 b 658 533 683 428 667 489 b 644 700 649 578 644 633 l 644 928 b 703 986 644 971 658 986 "},"ń":{"ha":772,"x_min":0,"x_max":0,"o":"m 397 1019 b 489 1017 435 1043 465 1042 l 563 939 b 556 883 585 911 589 894 l 306 800 b 240 804 274 789 251 790 l 201 850 b 204 903 179 876 181 890 m 113 692 b 408 743 201 726 300 743 b 721 443 618 743 721 636 l 721 53 b 668 0 721 14 708 0 l 515 0 b 463 53 476 0 463 14 l 463 433 b 379 510 463 485 435 510 b 318 504 354 510 333 508 b 314 499 315 503 314 501 l 314 53 b 261 0 314 14 301 0 l 108 0 b 56 53 68 0 56 14 l 56 608 b 113 692 56 654 67 674 "},"Ņ":{"ha":972,"x_min":0,"x_max":0,"o":"m 844 986 b 903 928 888 986 903 971 l 903 58 b 844 0 903 15 888 0 l 688 0 b 631 28 661 0 643 10 l 417 357 b 350 483 388 403 365 444 b 294 643 333 522 315 575 l 283 643 b 310 521 296 586 306 544 b 324 422 314 497 319 464 b 329 285 328 379 329 333 l 329 58 b 269 0 329 15 314 0 l 129 0 b 69 58 85 0 69 15 l 69 928 b 129 986 69 971 85 986 l 293 986 b 351 958 319 986 339 976 l 579 603 b 644 481 608 558 632 510 b 696 349 656 451 679 388 l 707 349 b 658 533 683 428 667 489 b 644 700 649 578 644 633 l 644 928 b 703 986 644 971 658 986 m 544 -315 b 482 -361 535 -346 514 -361 l 393 -361 b 356 -319 364 -361 351 -351 l 379 -125 b 440 -67 383 -82 400 -67 l 564 -67 b 611 -125 610 -67 626 -86 "},"ņ":{"ha":772,"x_min":0,"x_max":0,"o":"m 113 692 b 408 743 201 726 300 743 b 721 443 618 743 721 636 l 721 53 b 668 0 721 14 708 0 l 515 0 b 463 53 476 0 463 14 l 463 433 b 379 510 463 485 435 510 b 318 504 354 510 333 508 b 314 499 315 503 314 501 l 314 53 b 261 0 314 14 301 0 l 108 0 b 56 53 68 0 56 14 l 56 608 b 113 692 56 654 67 674 m 456 -257 b 383 -306 440 -296 424 -306 l 303 -306 b 267 -265 269 -306 263 -297 l 279 -107 b 349 -46 285 -61 300 -46 l 465 -46 b 511 -107 511 -46 526 -67 "},"Ň":{"ha":972,"x_min":0,"x_max":0,"o":"m 735 1278 b 753 1229 775 1278 776 1251 l 613 1088 b 510 1047 574 1049 567 1047 l 471 1047 b 369 1088 417 1047 407 1050 l 229 1229 b 246 1278 208 1253 201 1278 l 363 1278 b 454 1247 418 1278 432 1274 l 496 1200 l 538 1247 b 629 1278 560 1274 575 1278 m 844 986 b 903 928 888 986 903 971 l 903 58 b 844 0 903 15 888 0 l 688 0 b 631 28 661 0 643 10 l 417 357 b 350 483 388 403 365 444 b 294 643 333 522 315 575 l 283 643 b 310 521 296 586 306 544 b 324 422 314 497 319 464 b 329 285 328 379 329 333 l 329 58 b 269 0 329 15 314 0 l 129 0 b 69 58 85 0 69 15 l 69 928 b 129 986 69 971 85 986 l 293 986 b 351 958 319 986 339 976 l 579 603 b 644 481 608 558 632 510 b 696 349 656 451 679 388 l 707 349 b 658 533 683 428 667 489 b 644 700 649 578 644 633 l 644 928 b 703 986 644 971 658 986 "},"ň":{"ha":772,"x_min":0,"x_max":0,"o":"m 610 1004 b 625 960 647 1004 649 981 l 499 829 b 403 790 465 794 454 790 l 368 790 b 275 829 318 790 308 794 l 147 960 b 163 1004 124 981 124 1004 l 268 1004 b 353 976 319 1004 332 1000 l 392 932 l 429 975 b 513 1004 450 999 464 1004 m 113 692 b 408 743 201 726 300 743 b 721 443 618 743 721 636 l 721 53 b 668 0 721 14 708 0 l 515 0 b 463 53 476 0 463 14 l 463 433 b 379 510 463 485 435 510 b 318 504 354 510 333 508 b 314 499 315 503 314 501 l 314 53 b 261 0 314 14 301 0 l 108 0 b 56 53 68 0 56 14 l 56 608 b 113 692 56 654 67 674 "},"ŉ":{"ha":772,"x_min":0,"x_max":0,"o":"m 231 783 b 160 749 208 754 199 749 l 63 749 b 36 783 35 749 26 757 l 108 981 b 175 1028 124 1019 132 1028 l 324 1028 b 358 974 369 1028 382 1006 m 118 692 b 414 743 207 726 306 743 b 726 443 624 743 726 636 l 726 53 b 674 0 726 14 714 0 l 521 0 b 468 53 482 0 468 14 l 468 433 b 385 510 468 485 440 510 b 324 504 360 510 339 508 b 319 499 321 503 319 501 l 319 53 b 267 0 319 14 307 0 l 114 0 b 61 53 74 0 61 14 l 61 608 b 118 692 61 654 72 674 "},"Ŋ":{"ha":972,"x_min":0,"x_max":0,"o":"m 844 986 b 903 928 888 986 903 971 l 903 -14 b 550 -319 903 -224 788 -319 b 494 -265 510 -319 494 -306 l 494 -147 b 550 -92 494 -107 510 -92 b 640 3 615 -92 640 -60 l 640 15 l 417 357 b 350 483 388 403 365 444 b 294 643 333 522 315 575 l 283 643 b 310 521 296 586 306 544 b 324 422 314 497 319 464 b 329 285 328 379 329 333 l 329 58 b 269 0 329 15 314 0 l 129 0 b 69 58 85 0 69 15 l 69 928 b 129 986 69 971 85 986 l 293 986 b 351 958 319 986 339 976 l 579 603 b 644 481 608 558 632 510 b 696 349 656 451 679 388 l 707 349 b 658 533 683 428 667 489 b 644 700 649 578 644 633 l 644 928 b 703 986 644 971 658 986 "},"ŋ":{"ha":774,"x_min":0,"x_max":0,"o":"m 113 692 b 408 743 201 726 300 743 b 721 443 618 743 721 636 l 721 -19 b 374 -319 721 -226 607 -319 b 319 -265 333 -319 319 -306 l 319 -149 b 374 -96 319 -108 333 -96 b 463 -3 433 -96 463 -65 l 463 433 b 379 510 463 485 435 510 b 318 504 354 510 333 508 b 314 499 315 503 314 501 l 314 53 b 261 0 314 14 301 0 l 108 0 b 56 53 68 0 56 14 l 56 608 b 113 692 56 654 67 674 "},"Ō":{"ha":947,"x_min":0,"x_max":0,"o":"m 642 1253 b 693 1203 682 1253 693 1243 l 693 1144 b 642 1094 693 1104 682 1094 l 304 1094 b 254 1144 264 1094 254 1104 l 254 1203 b 304 1253 254 1242 267 1253 m 46 618 b 474 1007 46 861 201 1007 b 900 618 744 1007 900 861 l 900 368 b 474 -21 900 125 744 -21 b 46 368 201 -21 46 125 m 625 631 b 474 764 625 718 569 764 b 321 631 375 764 321 718 l 321 356 b 474 222 321 268 375 222 b 625 356 569 222 625 268 "},"ō":{"ha":767,"x_min":0,"x_max":0,"o":"m 538 975 b 585 928 575 975 585 965 l 585 871 b 538 824 585 833 575 824 l 228 824 b 182 871 190 824 182 833 l 182 928 b 228 975 182 965 194 975 m 39 439 b 383 743 39 629 161 743 b 728 439 607 743 728 632 l 728 283 b 383 -21 728 90 607 -21 b 39 283 161 -21 39 93 m 471 446 b 383 521 471 496 442 521 b 297 446 326 521 297 496 l 297 276 b 383 203 297 228 326 203 b 471 276 442 203 471 228 "},"Ŏ":{"ha":947,"x_min":0,"x_max":0,"o":"m 719 1208 b 474 1061 682 1110 600 1061 b 229 1208 351 1061 264 1114 b 253 1257 221 1231 229 1247 l 344 1292 b 397 1275 376 1303 382 1299 b 474 1229 414 1244 439 1229 b 549 1275 506 1229 531 1244 b 599 1293 564 1299 569 1300 l 696 1257 b 719 1208 719 1247 728 1232 m 46 618 b 474 1007 46 861 201 1007 b 900 618 744 1007 900 861 l 900 368 b 474 -21 900 125 744 -21 b 46 368 201 -21 46 125 m 625 631 b 474 764 625 718 569 764 b 321 631 375 764 321 718 l 321 356 b 474 222 321 268 375 222 b 625 356 569 222 625 268 "},"ŏ":{"ha":767,"x_min":0,"x_max":0,"o":"m 629 944 b 383 797 592 846 510 797 b 139 944 261 797 174 849 b 163 993 129 967 138 983 l 254 1028 b 307 1011 283 1039 292 1033 b 383 965 322 981 349 965 b 458 1011 415 965 440 981 b 507 1028 474 1033 479 1038 l 606 993 b 629 944 629 983 638 967 m 39 439 b 383 743 39 629 161 743 b 728 439 607 743 728 632 l 728 283 b 383 -21 728 90 607 -21 b 39 283 161 -21 39 93 m 471 446 b 383 521 471 496 442 521 b 297 446 326 521 297 496 l 297 276 b 383 203 297 228 326 203 b 471 276 442 203 471 228 "},"Ő":{"ha":947,"x_min":0,"x_max":0,"o":"m 318 1260 b 408 1296 340 1292 371 1303 l 501 1275 b 517 1217 539 1268 544 1240 l 360 1085 b 299 1064 336 1065 317 1058 l 236 1075 b 219 1128 204 1082 199 1099 m 593 1260 b 685 1293 619 1292 650 1303 l 781 1268 b 796 1208 818 1257 825 1231 l 626 1081 b 565 1060 606 1063 585 1056 l 504 1074 b 488 1126 471 1081 467 1104 m 46 618 b 474 1007 46 861 201 1007 b 900 618 744 1007 900 861 l 900 368 b 474 -21 900 125 744 -21 b 46 368 201 -21 46 125 m 625 631 b 474 764 625 718 569 764 b 321 631 375 764 321 718 l 321 356 b 474 222 321 268 375 222 b 625 356 569 222 625 268 "},"ő":{"ha":767,"x_min":0,"x_max":0,"o":"m 240 969 b 324 1003 261 999 289 1010 l 408 983 b 422 929 442 976 449 951 l 279 808 b 222 789 253 788 243 783 l 165 799 b 149 849 136 806 131 822 m 493 969 b 578 1000 517 999 544 1008 l 667 976 b 681 922 701 967 707 940 l 525 806 b 468 786 499 785 492 781 l 411 799 b 397 847 382 804 376 826 m 39 439 b 383 743 39 629 161 743 b 728 439 607 743 728 632 l 728 283 b 383 -21 728 90 607 -21 b 39 283 161 -21 39 93 m 471 446 b 383 521 471 496 442 521 b 297 446 326 521 297 496 l 297 276 b 383 203 297 228 326 203 b 471 276 442 203 471 228 "},"Œ":{"ha":1228,"x_min":0,"x_max":0,"o":"m 1135 243 b 1193 185 1179 243 1193 229 l 1193 58 b 1135 0 1193 15 1179 0 l 646 0 b 474 -21 600 -14 543 -21 b 46 368 201 -21 46 125 l 46 618 b 474 1007 46 861 201 1007 b 635 986 533 1007 588 1000 l 1124 986 b 1182 928 1167 986 1182 971 l 1182 803 b 1124 743 1182 758 1167 743 l 832 743 l 832 619 l 1049 619 b 1108 561 1093 619 1108 604 l 1108 436 b 1049 376 1108 392 1093 376 l 832 376 l 832 243 m 321 356 b 474 222 321 268 375 222 b 557 239 506 222 533 228 l 557 747 b 474 764 533 758 506 764 b 321 631 375 764 321 718 "},"œ":{"ha":1115,"x_min":0,"x_max":0,"o":"m 558 686 b 751 743 611 724 675 743 b 1085 439 975 743 1085 618 l 1085 363 b 1010 290 1085 314 1060 290 l 674 290 l 674 264 b 753 174 674 204 700 174 b 846 222 792 174 822 190 b 929 242 868 256 878 263 l 1022 196 b 1049 115 1060 178 1069 151 b 750 -21 997 25 899 -21 b 557 38 675 -21 611 -1 b 365 -21 507 -1 443 -21 b 39 283 150 -21 39 90 l 39 439 b 365 743 39 632 150 743 b 558 686 442 743 506 724 m 826 476 b 751 560 826 533 806 560 b 675 476 700 560 675 532 l 675 458 l 826 458 m 436 450 b 365 521 436 497 413 521 b 297 450 319 521 297 497 l 297 272 b 365 203 297 226 319 203 b 436 272 413 203 436 226 "},"Ŕ":{"ha":918,"x_min":0,"x_max":0,"o":"m 457 1269 b 549 1265 494 1290 525 1289 l 619 1185 b 611 1129 643 1158 644 1140 l 360 1051 b 294 1058 328 1040 310 1040 l 257 1104 b 261 1157 235 1131 235 1142 m 525 986 b 871 651 738 986 871 864 b 721 365 871 517 821 421 b 758 306 736 347 749 326 l 883 68 b 847 0 904 31 892 0 l 697 0 b 569 67 625 0 592 17 l 481 257 b 376 328 454 307 431 328 l 344 328 l 344 58 b 286 0 344 15 331 0 l 129 0 b 69 58 85 0 69 15 l 69 928 b 129 986 69 971 85 986 m 586 653 b 494 743 586 708 554 743 l 344 743 l 344 560 l 494 560 b 586 653 551 560 586 596 "},"ŕ":{"ha":503,"x_min":0,"x_max":0,"o":"m 286 1019 b 378 1017 324 1043 354 1042 l 451 939 b 444 883 475 913 474 893 l 194 800 b 131 804 163 789 140 790 l 90 850 b 93 903 69 876 69 890 m 396 743 l 439 743 b 492 690 479 743 492 729 l 492 572 b 439 518 492 532 479 518 l 386 518 b 322 513 361 518 340 517 b 315 504 318 513 315 510 l 315 53 b 261 0 315 14 301 0 l 110 0 b 56 53 69 0 56 14 l 56 615 b 114 699 56 661 68 681 b 396 743 182 725 275 739 "},"Ŗ":{"ha":918,"x_min":0,"x_max":0,"o":"m 525 986 b 871 651 738 986 871 864 b 721 365 871 517 821 421 b 758 306 736 347 749 326 l 883 68 b 847 0 904 31 892 0 l 697 0 b 569 67 625 0 592 17 l 481 257 b 376 328 454 307 431 328 l 344 328 l 344 58 b 286 0 344 15 331 0 l 129 0 b 69 58 85 0 69 15 l 69 928 b 129 986 69 971 85 986 m 586 653 b 494 743 586 708 554 743 l 344 743 l 344 560 l 494 560 b 586 653 551 560 586 596 m 526 -315 b 464 -361 517 -346 496 -361 l 375 -361 b 339 -319 347 -361 335 -347 l 361 -125 b 422 -67 367 -82 382 -67 l 547 -67 b 594 -125 593 -67 608 -86 "},"ŗ":{"ha":503,"x_min":0,"x_max":0,"o":"m 399 743 l 442 743 b 494 690 482 743 494 729 l 494 572 b 442 518 494 532 482 518 l 389 518 b 325 513 364 518 343 517 b 318 504 321 513 318 510 l 318 53 b 264 0 318 14 304 0 l 113 0 b 58 53 72 0 58 14 l 58 615 b 117 699 58 661 71 681 b 399 743 185 725 278 739 m 243 -267 b 171 -315 231 -306 211 -315 l 90 -315 b 54 -275 57 -315 50 -307 l 68 -115 b 136 -54 72 -69 88 -54 l 254 -54 b 299 -115 300 -54 314 -75 "},"Ř":{"ha":918,"x_min":0,"x_max":0,"o":"m 686 1278 b 704 1229 729 1278 731 1251 l 565 1088 b 521 1054 547 1069 532 1058 b 461 1047 510 1050 490 1047 l 424 1047 b 322 1088 369 1047 357 1050 l 182 1229 b 197 1278 156 1251 157 1278 l 314 1278 b 406 1247 369 1278 385 1274 l 449 1200 l 489 1247 b 581 1278 511 1274 529 1278 m 525 986 b 871 651 738 986 871 864 b 721 365 871 517 821 421 b 758 306 736 347 749 326 l 883 68 b 847 0 904 31 892 0 l 697 0 b 569 67 625 0 592 17 l 481 257 b 376 328 454 307 431 328 l 344 328 l 344 58 b 286 0 344 15 331 0 l 129 0 b 69 58 85 0 69 15 l 69 928 b 129 986 69 971 85 986 m 586 653 b 494 743 586 708 554 743 l 344 743 l 344 560 l 494 560 b 586 653 551 560 586 596 "},"ř":{"ha":503,"x_min":0,"x_max":0,"o":"m 500 1004 b 517 960 539 1004 539 981 l 389 829 b 294 790 356 794 344 790 l 260 790 b 167 829 210 790 200 794 l 38 960 b 53 1004 15 981 14 1004 l 160 1004 b 243 976 210 1004 225 1000 l 282 932 l 319 975 b 404 1004 340 999 354 1004 m 397 743 l 440 743 b 493 690 481 743 493 729 l 493 572 b 440 518 493 532 481 518 l 388 518 b 324 513 363 518 342 517 b 317 504 319 513 317 510 l 317 53 b 263 0 317 14 303 0 l 111 0 b 57 53 71 0 57 14 l 57 615 b 115 699 57 661 69 681 b 397 743 183 725 276 739 "},"Ś":{"ha":899,"x_min":0,"x_max":0,"o":"m 472 1283 b 564 1279 511 1306 542 1304 l 635 1199 b 626 1143 658 1172 660 1154 l 375 1065 b 311 1072 342 1054 324 1054 l 272 1118 b 276 1171 251 1144 253 1158 m 47 696 b 157 922 47 789 83 865 b 460 1007 229 979 331 1007 b 847 813 664 1007 782 946 b 814 735 865 776 854 750 l 675 675 b 600 704 638 658 622 664 b 460 776 576 753 529 776 b 328 704 372 776 328 753 b 510 619 328 650 386 635 b 708 572 596 608 629 604 b 797 517 746 557 775 538 b 879 296 842 474 879 396 b 760 64 879 197 839 119 b 449 -21 679 7 575 -21 b 44 194 232 -21 97 51 b 82 271 29 238 42 256 l 213 318 b 294 288 253 333 274 326 b 451 214 319 239 372 214 b 600 293 550 214 600 240 b 438 375 600 343 547 360 b 324 394 381 383 381 382 b 264 408 297 399 278 404 b 156 458 235 418 182 438 b 78 550 129 479 93 511 b 47 696 61 588 47 636 "},"ś":{"ha":719,"x_min":0,"x_max":0,"o":"m 385 1019 b 476 1017 422 1043 453 1042 l 550 939 b 543 883 572 911 576 894 l 292 800 b 228 804 260 789 239 790 l 189 850 b 192 903 167 876 168 890 m 57 506 b 367 743 57 651 165 743 b 688 594 526 743 633 693 b 658 518 706 560 696 535 l 553 472 b 507 467 531 463 519 458 b 481 492 494 475 497 474 b 381 531 460 518 426 531 b 293 493 314 531 293 521 b 407 447 293 464 317 454 b 714 225 629 429 714 371 b 388 -21 714 74 597 -21 b 57 144 210 -21 100 35 b 90 217 43 179 54 203 l 200 256 b 274 235 246 268 257 263 b 378 190 292 206 326 190 b 478 233 450 190 478 201 b 346 285 478 268 453 278 b 57 506 157 297 57 354 "},"Ŝ":{"ha":899,"x_min":0,"x_max":0,"o":"m 486 1292 b 585 1250 536 1292 547 1288 l 728 1108 b 707 1061 751 1086 750 1061 l 590 1061 b 497 1090 533 1061 518 1064 l 458 1140 l 414 1092 b 324 1061 392 1064 379 1061 l 215 1061 b 193 1108 172 1061 169 1086 l 335 1250 b 381 1285 353 1268 368 1281 b 442 1292 392 1289 413 1292 m 47 696 b 157 922 47 789 83 865 b 460 1007 229 979 331 1007 b 847 813 664 1007 782 946 b 814 735 865 776 854 750 l 675 675 b 600 704 638 658 622 664 b 460 776 576 753 529 776 b 328 704 372 776 328 753 b 510 619 328 650 386 635 b 708 572 596 608 629 604 b 797 517 746 557 775 538 b 879 296 842 474 879 396 b 760 64 879 197 839 119 b 449 -21 679 7 575 -21 b 44 194 232 -21 97 51 b 82 271 29 238 42 256 l 213 318 b 294 288 253 333 274 326 b 451 214 319 239 372 214 b 600 293 550 214 600 240 b 438 375 600 343 547 360 b 324 394 381 383 381 382 b 264 408 297 399 278 404 b 156 458 235 418 182 438 b 78 550 129 479 93 511 b 47 696 61 588 47 636 "},"ŝ":{"ha":719,"x_min":0,"x_max":0,"o":"m 400 1021 b 497 981 450 1021 460 1018 l 636 843 b 615 796 660 821 658 796 l 501 796 b 411 825 447 796 432 801 l 372 874 l 331 826 b 242 796 308 800 293 796 l 142 796 b 121 843 99 796 97 821 l 260 981 b 304 1015 278 999 293 1011 b 364 1021 315 1019 335 1021 m 57 506 b 367 743 57 651 165 743 b 688 594 526 743 633 693 b 658 518 706 560 696 535 l 553 472 b 507 467 531 463 519 458 b 481 492 494 475 497 474 b 381 531 460 518 426 531 b 293 493 314 531 293 521 b 407 447 293 464 317 454 b 714 225 629 429 714 371 b 388 -21 714 74 597 -21 b 57 144 210 -21 100 35 b 90 217 43 179 54 203 l 200 256 b 274 235 246 268 257 263 b 378 190 292 206 326 190 b 478 233 450 190 478 201 b 346 285 478 268 453 278 b 57 506 157 297 57 354 "},"Ş":{"ha":897,"x_min":0,"x_max":0,"o":"m 522 619 b 721 572 608 608 642 604 b 810 517 758 557 788 538 b 892 296 854 474 892 396 b 553 -15 892 122 758 11 l 533 -64 l 547 -64 b 661 -201 624 -65 671 -125 b 453 -340 651 -294 582 -340 b 349 -325 413 -340 378 -335 b 313 -282 325 -315 313 -301 l 311 -224 b 356 -201 311 -193 326 -186 b 432 -222 382 -215 407 -222 b 479 -190 464 -222 479 -211 b 421 -160 479 -168 465 -161 l 393 -160 b 374 -118 368 -160 361 -146 l 418 -19 b 57 194 226 -11 106 60 b 93 271 43 232 56 257 l 225 318 b 307 288 265 333 285 326 b 463 214 331 239 383 214 b 613 293 563 214 613 240 b 450 375 613 343 557 360 b 336 394 393 383 393 382 b 276 408 310 399 290 404 b 168 458 247 418 194 438 b 90 550 142 479 106 511 b 60 696 74 588 60 636 b 471 1007 60 883 211 1007 b 860 813 675 1007 793 947 b 826 735 878 776 867 750 l 688 675 b 613 704 649 658 633 664 b 471 776 588 753 540 776 b 340 704 383 776 340 753 b 522 619 340 650 399 635 "},"ş":{"ha":719,"x_min":0,"x_max":0,"o":"m 57 506 b 367 743 57 651 165 743 b 688 594 526 743 633 693 b 658 518 706 560 696 535 l 553 472 b 507 467 531 463 519 458 b 481 492 494 475 497 474 b 381 531 460 518 426 531 b 293 493 314 531 293 521 b 407 447 293 464 317 454 b 714 225 629 429 714 371 b 464 -17 714 93 625 4 l 440 -74 l 454 -74 b 565 -206 528 -75 575 -132 b 363 -339 556 -294 488 -339 b 260 -325 322 -339 289 -335 b 225 -283 236 -315 225 -301 l 224 -228 b 267 -206 224 -199 238 -190 b 342 -225 290 -218 315 -225 b 388 -194 372 -225 388 -215 b 331 -165 388 -176 368 -167 l 303 -165 b 285 -126 279 -165 272 -153 l 333 -18 b 57 144 188 -8 94 46 b 90 217 43 179 54 203 l 200 256 b 274 235 246 268 257 263 b 378 190 292 206 326 190 b 478 233 450 190 478 201 b 346 285 478 268 453 278 b 57 506 157 297 57 354 "},"Š":{"ha":899,"x_min":0,"x_max":0,"o":"m 701 1292 b 719 1243 744 1292 746 1265 l 581 1101 b 536 1068 563 1083 547 1072 b 476 1061 525 1064 506 1061 l 439 1061 b 338 1101 385 1061 375 1064 l 197 1243 b 214 1292 171 1265 171 1292 l 331 1292 b 421 1261 386 1292 400 1288 l 464 1214 l 504 1261 b 596 1292 526 1288 544 1292 m 47 696 b 157 922 47 789 83 865 b 460 1007 229 979 331 1007 b 847 813 664 1007 782 946 b 814 735 865 776 854 750 l 675 675 b 600 704 638 658 622 664 b 460 776 576 753 529 776 b 328 704 372 776 328 753 b 510 619 328 650 386 635 b 708 572 596 608 629 604 b 797 517 746 557 775 538 b 879 296 842 474 879 396 b 760 64 879 197 839 119 b 449 -21 679 7 575 -21 b 44 194 232 -21 97 51 b 82 271 29 238 42 256 l 213 318 b 294 288 253 333 274 326 b 451 214 319 239 372 214 b 600 293 550 214 600 240 b 438 375 600 343 547 360 b 324 394 381 383 381 382 b 264 408 297 399 278 404 b 156 458 235 418 182 438 b 78 550 129 479 93 511 b 47 696 61 588 47 636 "},"š":{"ha":719,"x_min":0,"x_max":0,"o":"m 594 999 b 610 954 632 999 632 975 l 485 826 b 390 789 451 793 440 789 l 356 789 b 264 826 307 789 297 793 l 138 954 b 153 999 115 975 114 999 l 257 999 b 340 971 307 999 322 994 l 379 928 l 415 971 b 499 999 436 994 450 999 m 57 506 b 367 743 57 651 165 743 b 688 594 526 743 633 693 b 658 518 706 560 696 535 l 553 472 b 507 467 531 463 519 458 b 481 492 494 475 497 474 b 381 531 460 518 426 531 b 293 493 314 531 293 521 b 407 447 293 464 317 454 b 714 225 629 429 714 371 b 388 -21 714 74 597 -21 b 57 144 210 -21 100 35 b 90 217 43 179 54 203 l 200 256 b 274 235 246 268 257 263 b 378 190 292 206 326 190 b 478 233 450 190 478 201 b 346 285 478 268 453 278 b 57 506 157 297 57 354 "},"Ť":{"ha":838,"x_min":0,"x_max":0,"o":"m 664 1278 b 681 1229 704 1278 707 1251 l 542 1088 b 497 1054 524 1069 508 1058 b 438 1047 486 1050 467 1047 l 400 1047 b 299 1088 346 1047 336 1050 l 158 1229 b 175 1278 132 1251 132 1278 l 292 1278 b 383 1247 347 1278 361 1274 l 425 1200 l 467 1247 b 558 1278 489 1274 504 1278 m 763 986 b 822 928 807 986 822 971 l 822 803 b 763 743 822 758 807 743 l 557 743 l 557 58 b 497 0 557 15 542 0 l 340 0 b 282 58 296 0 282 15 l 282 743 l 75 743 b 17 803 31 743 17 758 l 17 928 b 75 986 17 971 31 986 "},"ť":{"ha":557,"x_min":0,"x_max":0,"o":"m 618 818 b 549 771 606 781 588 771 l 469 771 b 435 810 438 771 433 778 l 447 969 b 513 1028 451 1014 468 1028 l 633 1028 b 679 969 681 1028 696 1008 m 328 889 b 382 836 368 889 382 875 l 382 722 l 478 722 b 531 669 518 722 531 708 l 531 565 b 478 511 531 525 518 511 l 382 511 l 382 307 b 476 210 382 233 406 210 b 531 156 519 210 531 196 l 531 36 b 476 -18 531 -4 519 -18 b 122 289 231 -22 122 61 l 122 511 l 63 511 b 10 565 22 511 10 525 l 10 669 b 63 722 10 708 22 722 l 122 722 l 122 836 b 176 889 122 875 136 889 "},"Ŧ":{"ha":853,"x_min":0,"x_max":0,"o":"m 771 986 b 829 928 815 986 829 971 l 829 803 b 771 743 829 758 815 743 l 564 743 l 564 517 l 697 517 b 732 481 724 517 732 508 l 732 388 b 697 350 732 358 725 350 l 564 350 l 564 58 b 506 0 564 15 550 0 l 349 0 b 289 58 304 0 289 15 l 289 350 l 157 350 b 122 388 129 350 122 358 l 122 481 b 157 517 122 504 133 517 l 289 517 l 289 743 l 83 743 b 24 803 39 743 24 758 l 24 928 b 83 986 24 971 39 986 "},"ŧ":{"ha":558,"x_min":0,"x_max":0,"o":"m 329 889 b 382 836 369 889 382 876 l 382 722 l 479 722 b 532 669 518 722 532 710 l 532 565 b 479 513 532 525 518 513 l 382 513 l 382 439 l 478 439 b 511 403 504 439 511 431 l 511 339 b 478 301 511 310 504 301 l 382 301 l 382 294 b 476 211 382 226 408 211 b 532 156 519 211 532 196 l 532 36 b 476 -18 532 -4 517 -18 b 124 290 231 -22 124 61 l 124 301 l 63 301 b 29 339 36 301 29 310 l 29 403 b 63 439 29 431 39 439 l 124 439 l 124 513 l 63 513 b 10 565 22 513 10 525 l 10 669 b 63 722 10 710 22 722 l 124 722 l 124 836 b 176 889 124 876 136 889 "},"Ũ":{"ha":961,"x_min":0,"x_max":0,"o":"m 685 1263 b 717 1231 706 1263 717 1251 b 581 1060 717 1107 674 1060 b 467 1089 542 1060 504 1069 b 396 1118 429 1108 406 1118 b 376 1088 383 1118 376 1108 b 349 1060 376 1069 367 1060 l 264 1060 b 232 1092 243 1060 232 1071 b 365 1263 232 1218 278 1263 b 482 1235 406 1263 444 1253 b 553 1206 519 1215 543 1206 b 574 1236 567 1206 574 1215 b 600 1263 574 1254 582 1263 m 338 350 b 481 222 338 265 385 222 b 625 350 576 222 625 265 l 625 928 b 683 986 625 971 639 986 l 840 986 b 900 928 885 986 900 971 l 900 363 b 481 -21 900 125 751 -21 b 63 363 213 -21 63 125 l 63 928 b 121 986 63 971 76 986 l 278 986 b 338 928 322 986 338 971 "},"ũ":{"ha":772,"x_min":0,"x_max":0,"o":"m 588 1015 b 619 983 608 1015 619 1004 b 483 813 619 857 576 813 b 371 842 444 813 407 822 b 300 869 333 860 310 869 b 279 839 286 869 279 860 b 253 813 279 821 271 813 l 167 813 b 135 844 146 813 135 824 b 268 1015 135 968 181 1015 b 385 986 308 1015 347 1006 b 457 957 422 967 447 957 b 476 988 469 957 476 967 b 504 1015 476 1006 486 1015 m 664 722 b 717 669 704 722 717 708 l 717 114 b 660 31 717 68 706 49 b 364 -21 572 -4 474 -21 b 51 279 154 -21 51 86 l 51 669 b 104 722 51 708 64 722 l 257 722 b 310 669 297 722 310 708 l 310 289 b 393 213 310 238 338 213 b 449 218 411 213 431 214 b 458 231 456 219 458 224 l 458 669 b 511 722 458 708 472 722 "},"Ū":{"ha":961,"x_min":0,"x_max":0,"o":"m 650 1239 b 700 1189 690 1239 700 1229 l 700 1131 b 650 1081 700 1090 690 1081 l 311 1081 b 261 1131 272 1081 261 1090 l 261 1189 b 311 1239 261 1228 274 1239 m 338 350 b 481 222 338 265 385 222 b 625 350 576 222 625 265 l 625 928 b 683 986 625 971 639 986 l 840 986 b 900 928 885 986 900 971 l 900 363 b 481 -21 900 125 751 -21 b 63 363 213 -21 63 125 l 63 928 b 121 986 63 971 76 986 l 278 986 b 338 928 322 986 338 971 "},"ū":{"ha":772,"x_min":0,"x_max":0,"o":"m 553 986 b 604 936 593 986 604 976 l 604 878 b 553 828 604 838 593 828 l 214 828 b 165 878 175 828 165 838 l 165 936 b 214 986 165 975 179 986 m 664 722 b 717 669 704 722 717 708 l 717 114 b 660 31 717 68 706 49 b 364 -21 572 -4 474 -21 b 51 279 154 -21 51 86 l 51 669 b 104 722 51 708 64 722 l 257 722 b 310 669 297 722 310 708 l 310 289 b 393 213 310 238 338 213 b 449 218 411 213 431 214 b 458 231 456 219 458 224 l 458 669 b 511 722 458 708 472 722 "},"Ŭ":{"ha":961,"x_min":0,"x_max":0,"o":"m 728 1194 b 481 1047 690 1096 607 1047 b 236 1194 356 1047 274 1096 b 260 1243 228 1217 236 1233 l 351 1278 b 406 1261 383 1289 390 1285 b 481 1215 422 1231 447 1215 b 557 1261 514 1215 539 1231 b 606 1279 572 1285 578 1286 l 703 1243 b 728 1194 731 1233 738 1221 m 338 350 b 481 222 338 265 385 222 b 625 350 576 222 625 265 l 625 928 b 683 986 625 971 639 986 l 840 986 b 900 928 885 986 900 971 l 900 363 b 481 -21 900 125 751 -21 b 63 363 213 -21 63 125 l 63 928 b 121 986 63 971 76 986 l 278 986 b 338 928 322 986 338 971 "},"ŭ":{"ha":772,"x_min":0,"x_max":0,"o":"m 631 944 b 385 797 593 846 511 797 b 140 944 263 797 175 849 b 164 993 131 967 139 983 l 256 1028 b 308 1011 285 1039 293 1033 b 385 965 324 981 350 965 b 460 1011 417 965 442 981 b 508 1028 475 1033 481 1038 l 607 993 b 631 944 631 983 639 967 m 664 722 b 717 669 704 722 717 708 l 717 114 b 660 31 717 68 706 49 b 364 -21 572 -4 474 -21 b 51 279 154 -21 51 86 l 51 669 b 104 722 51 708 64 722 l 257 722 b 310 669 297 722 310 708 l 310 289 b 393 213 310 238 338 213 b 449 218 411 213 431 214 b 458 231 456 219 458 224 l 458 669 b 511 722 458 708 472 722 "},"Ů":{"ha":961,"x_min":0,"x_max":0,"o":"m 353 1069 b 301 1188 318 1099 301 1138 b 353 1307 301 1238 318 1278 b 483 1350 386 1336 429 1350 b 660 1188 589 1350 660 1286 b 483 1026 660 1089 588 1026 b 353 1069 429 1026 386 1040 m 518 1153 b 483 1238 549 1182 524 1238 b 431 1188 449 1238 431 1221 b 483 1140 431 1160 450 1140 b 518 1153 497 1140 508 1144 m 338 350 b 481 222 338 265 385 222 b 625 350 576 222 625 265 l 625 928 b 683 986 625 971 639 986 l 840 986 b 900 928 885 986 900 971 l 900 363 b 481 -21 900 125 751 -21 b 63 363 213 -21 63 125 l 63 928 b 121 986 63 971 76 986 l 278 986 b 338 928 322 986 338 971 "},"ů":{"ha":772,"x_min":0,"x_max":0,"o":"m 253 786 b 201 904 218 815 201 854 b 251 1024 201 954 218 994 b 382 1067 285 1053 328 1067 b 560 904 488 1067 560 1003 b 511 788 560 856 543 817 b 382 743 478 758 435 743 b 253 786 329 743 286 757 m 418 869 b 382 953 449 900 425 953 b 329 904 350 953 329 933 b 382 856 329 876 350 856 b 418 869 397 856 408 860 m 664 722 b 717 669 704 722 717 708 l 717 114 b 660 31 717 68 706 49 b 364 -21 572 -4 474 -21 b 51 279 154 -21 51 86 l 51 669 b 104 722 51 708 64 722 l 257 722 b 310 669 297 722 310 708 l 310 289 b 393 213 310 238 338 213 b 449 218 411 213 431 214 b 458 231 456 219 458 224 l 458 669 b 511 722 458 708 472 722 "},"Ű":{"ha":961,"x_min":0,"x_max":0,"o":"m 325 1246 b 415 1282 347 1278 378 1289 l 508 1261 b 524 1203 546 1254 551 1226 l 367 1071 b 306 1050 339 1047 332 1044 l 244 1061 b 226 1114 213 1068 206 1085 m 601 1246 b 692 1279 626 1278 657 1289 l 789 1254 b 803 1194 826 1243 832 1217 l 635 1067 b 572 1046 611 1049 590 1042 l 511 1060 b 496 1113 479 1067 475 1090 m 338 350 b 481 222 338 265 385 222 b 625 350 576 222 625 265 l 625 928 b 683 986 625 971 639 986 l 840 986 b 900 928 885 986 900 971 l 900 363 b 481 -21 900 125 751 -21 b 63 363 213 -21 63 125 l 63 928 b 121 986 63 971 76 986 l 278 986 b 338 928 322 986 338 971 "},"ű":{"ha":772,"x_min":0,"x_max":0,"o":"m 228 990 b 319 1026 251 1022 282 1033 l 413 1007 b 428 947 450 999 453 972 l 271 815 b 208 794 243 793 232 788 l 147 806 b 131 858 114 813 108 829 m 504 990 b 596 1024 528 1022 558 1033 l 692 999 b 707 939 729 988 735 961 l 538 813 b 476 792 510 790 500 785 l 415 804 b 399 858 382 811 376 829 m 664 722 b 717 669 704 722 717 708 l 717 114 b 660 31 717 68 706 49 b 364 -21 572 -4 474 -21 b 51 279 154 -21 51 86 l 51 669 b 104 722 51 708 64 722 l 257 722 b 310 669 297 722 310 708 l 310 289 b 393 213 310 238 338 213 b 449 218 411 213 431 214 b 458 231 456 219 458 224 l 458 669 b 511 722 458 708 472 722 "},"Ų":{"ha":961,"x_min":0,"x_max":0,"o":"m 840 986 b 900 928 885 986 900 971 l 900 363 b 781 72 900 238 860 140 b 640 -161 682 -24 635 -122 b 667 -186 643 -178 651 -186 b 692 -178 674 -186 682 -183 b 725 -186 707 -168 718 -171 l 753 -251 b 746 -293 760 -269 758 -283 b 590 -342 703 -325 651 -342 b 451 -253 508 -342 463 -312 b 540 -18 436 -182 474 -94 b 481 -21 528 -19 507 -21 b 63 363 213 -21 63 125 l 63 928 b 121 986 63 971 76 986 l 278 986 b 338 928 322 986 338 971 l 338 350 b 481 222 338 265 385 222 b 625 350 576 222 625 265 l 625 928 b 683 986 625 971 639 986 "},"ų":{"ha":774,"x_min":0,"x_max":0,"o":"m 664 722 b 717 669 704 722 717 708 l 717 114 b 703 57 717 88 713 69 b 604 -157 626 -39 599 -119 b 629 -182 607 -174 615 -182 b 656 -174 638 -182 646 -179 b 688 -182 671 -164 681 -167 l 717 -251 b 708 -293 724 -269 721 -283 b 554 -342 667 -325 615 -342 b 406 -249 467 -342 418 -311 b 499 -11 390 -174 422 -94 b 364 -21 453 -18 408 -21 b 51 279 154 -21 51 86 l 51 669 b 104 722 51 708 64 722 l 257 722 b 310 669 297 722 310 708 l 310 289 b 393 213 310 238 338 213 b 449 218 411 213 431 214 b 458 231 456 219 458 224 l 458 669 b 511 722 458 708 472 722 "},"Ŵ":{"ha":1304,"x_min":0,"x_max":0,"o":"m 696 1278 b 796 1236 746 1278 757 1274 l 938 1094 b 917 1047 961 1072 960 1047 l 800 1047 b 708 1076 743 1047 726 1050 l 668 1126 l 625 1078 b 533 1047 603 1050 589 1047 l 425 1047 b 404 1094 382 1047 378 1072 l 546 1236 b 590 1271 564 1254 578 1267 b 651 1278 601 1275 622 1278 m 1256 986 b 1293 929 1296 986 1304 968 l 1072 49 b 1001 0 1063 10 1044 0 l 839 0 b 767 46 799 0 774 15 l 692 369 b 665 619 676 447 667 531 l 654 619 b 624 369 651 533 642 450 l 550 49 b 478 0 539 10 521 0 l 318 0 b 246 46 276 0 253 15 l 26 929 b 64 986 15 968 24 986 l 235 986 b 313 935 286 986 306 975 l 374 571 b 393 325 386 496 393 414 l 403 325 b 429 571 403 410 411 492 l 515 935 b 593 986 525 978 544 986 l 743 986 b 821 935 789 986 811 975 l 906 571 b 932 325 921 503 929 421 l 943 325 b 964 571 946 415 953 497 l 1022 935 b 1101 986 1029 975 1050 986 "},"ŵ":{"ha":1076,"x_min":0,"x_max":0,"o":"m 579 1021 b 676 981 629 1021 639 1018 l 815 843 b 794 796 839 821 838 796 l 681 796 b 590 825 625 796 611 801 l 551 874 l 508 826 b 421 796 486 800 472 796 l 319 796 b 300 843 279 796 276 821 l 438 981 b 482 1015 456 999 471 1011 b 542 1021 493 1019 513 1021 m 1022 722 b 1067 661 1072 722 1083 710 l 903 47 b 831 0 894 15 871 0 l 694 0 b 621 47 653 0 628 15 l 576 233 b 554 400 565 283 556 360 l 551 431 l 542 431 b 513 233 535 354 525 289 l 467 47 b 394 0 458 15 435 0 l 268 0 b 194 47 228 0 204 15 l 29 661 b 74 722 13 710 24 722 l 204 722 b 293 669 269 722 286 714 l 326 485 b 342 306 333 442 340 357 l 343 268 l 354 268 b 376 485 358 364 367 436 l 418 668 b 507 722 425 713 442 722 l 596 722 b 683 669 658 722 674 714 l 726 485 b 746 306 736 440 744 356 l 749 268 l 760 268 b 776 485 761 358 767 431 l 810 668 b 897 722 817 713 832 722 "},"Ŷ":{"ha":938,"x_min":0,"x_max":0,"o":"m 508 1278 b 607 1236 558 1278 569 1274 l 750 1094 b 729 1047 774 1072 772 1047 l 613 1047 b 519 1076 556 1047 540 1050 l 481 1126 l 436 1078 b 346 1047 414 1050 401 1047 l 238 1047 b 215 1094 194 1047 192 1072 l 357 1236 b 403 1271 375 1254 390 1267 b 464 1278 414 1275 435 1278 m 904 986 b 933 928 944 986 954 960 l 613 382 l 613 58 b 554 0 613 15 599 0 l 397 0 b 338 58 353 0 338 15 l 338 382 l 18 928 b 47 986 -3 960 7 986 l 214 986 b 290 978 251 986 276 983 b 329 935 303 972 317 958 l 478 651 l 631 935 b 744 986 657 981 672 986 "},"ŷ":{"ha":775,"x_min":0,"x_max":0,"o":"m 424 1021 b 519 981 472 1021 485 1018 l 658 843 b 639 796 682 821 679 796 l 525 796 b 435 825 469 796 453 801 l 394 874 l 353 826 b 264 796 331 799 318 796 l 164 796 b 143 843 124 796 119 821 l 282 981 b 326 1015 300 999 315 1011 b 386 1021 338 1019 357 1021 m 675 722 b 728 669 715 722 728 708 l 728 1 b 394 -319 728 -194 624 -319 b 85 -182 246 -319 143 -274 b 111 -101 63 -149 71 -122 l 228 -44 b 304 -62 272 -28 282 -33 b 392 -108 326 -93 356 -108 b 469 -28 443 -108 469 -82 l 469 26 b 375 21 444 22 413 21 b 63 321 165 21 63 128 l 63 669 b 115 722 63 708 75 722 l 268 722 b 321 669 308 722 321 708 l 321 331 b 404 254 321 279 349 254 b 469 260 431 254 451 256 l 469 669 b 522 722 469 708 483 722 "},"Ÿ":{"ha":938,"x_min":0,"x_max":0,"o":"m 336 1269 b 438 1171 413 1269 438 1244 l 438 1153 b 336 1054 438 1079 413 1054 l 325 1054 b 225 1153 247 1054 225 1079 l 225 1171 b 325 1269 225 1247 247 1269 m 635 1269 b 735 1171 711 1269 735 1247 l 735 1153 b 635 1054 735 1079 711 1054 l 625 1054 b 522 1153 547 1054 522 1079 l 522 1171 b 625 1269 522 1244 547 1269 m 904 986 b 933 928 944 986 954 960 l 613 382 l 613 58 b 554 0 613 15 599 0 l 397 0 b 338 58 353 0 338 15 l 338 382 l 18 928 b 47 986 -3 960 7 986 l 214 986 b 290 978 251 986 276 983 b 329 935 303 972 317 958 l 478 651 l 631 935 b 744 986 657 981 672 986 "},"Ź":{"ha":849,"x_min":0,"x_max":0,"o":"m 446 1269 b 538 1265 485 1292 515 1290 l 608 1185 b 601 1129 632 1158 631 1139 l 349 1051 b 285 1058 317 1040 300 1040 l 247 1104 b 250 1157 228 1128 229 1144 m 746 986 b 804 928 790 986 804 971 l 804 844 b 786 783 804 821 799 801 l 401 243 l 753 243 b 811 185 797 243 811 229 l 811 58 b 753 0 811 15 797 0 l 94 0 b 36 58 51 0 36 15 l 36 143 b 56 201 36 164 43 183 l 440 743 l 101 743 b 43 803 58 743 43 758 l 43 928 b 101 986 43 971 58 986 "},"ź":{"ha":685,"x_min":0,"x_max":0,"o":"m 354 1019 b 446 1017 392 1043 422 1042 l 519 939 b 513 883 543 913 542 893 l 263 800 b 199 804 231 789 208 790 l 158 850 b 161 903 139 874 140 890 m 597 219 b 650 168 638 219 650 207 l 650 53 b 597 0 650 14 638 0 l 89 0 b 35 53 49 0 35 14 l 35 161 b 56 217 35 183 42 201 l 313 503 l 96 503 b 43 554 56 503 43 515 l 43 669 b 96 722 43 708 56 722 l 590 722 b 643 669 629 722 643 708 l 643 561 b 615 497 643 540 633 518 l 351 219 "},"Ż":{"ha":849,"x_min":0,"x_max":0,"o":"m 436 1271 b 540 1167 518 1271 540 1249 l 540 1156 b 436 1051 540 1074 518 1051 l 428 1051 b 324 1156 346 1051 324 1074 l 324 1167 b 428 1271 324 1249 346 1271 m 746 986 b 804 928 790 986 804 971 l 804 844 b 786 783 804 821 799 801 l 401 243 l 753 243 b 811 185 797 243 811 229 l 811 58 b 753 0 811 15 797 0 l 94 0 b 36 58 51 0 36 15 l 36 143 b 56 201 36 164 43 183 l 440 743 l 101 743 b 43 803 58 743 43 758 l 43 928 b 101 986 43 971 58 986 "},"ż":{"ha":685,"x_min":0,"x_max":0,"o":"m 347 1022 b 450 918 426 1022 450 1000 l 450 907 b 347 803 450 825 426 803 l 339 803 b 235 907 257 803 235 828 l 235 918 b 339 1022 235 997 257 1022 m 597 219 b 650 168 638 219 650 207 l 650 53 b 597 0 650 14 638 0 l 89 0 b 35 53 49 0 35 14 l 35 161 b 56 217 35 183 42 201 l 313 503 l 96 503 b 43 554 56 503 43 515 l 43 669 b 96 722 43 708 56 722 l 590 722 b 643 669 629 722 643 708 l 643 561 b 615 497 643 540 633 518 l 351 219 "},"Ž":{"ha":849,"x_min":0,"x_max":0,"o":"m 676 1278 b 694 1229 717 1278 718 1251 l 554 1088 b 451 1047 515 1049 508 1047 l 413 1047 b 311 1088 358 1047 349 1050 l 171 1229 b 188 1278 150 1253 143 1278 l 304 1278 b 396 1247 360 1278 374 1274 l 438 1200 l 479 1247 b 571 1278 501 1274 517 1278 m 746 986 b 804 928 790 986 804 971 l 804 844 b 786 783 804 821 799 801 l 401 243 l 753 243 b 811 185 797 243 811 229 l 811 58 b 753 0 811 15 797 0 l 94 0 b 36 58 51 0 36 15 l 36 143 b 56 201 36 164 43 183 l 440 743 l 101 743 b 43 803 58 743 43 758 l 43 928 b 101 986 43 971 58 986 "},"ž":{"ha":685,"x_min":0,"x_max":0,"o":"m 563 997 b 578 954 600 997 601 975 l 453 826 b 360 789 419 793 410 789 l 325 789 b 233 826 276 789 267 793 l 107 954 b 122 997 86 975 82 997 l 228 997 b 310 971 278 997 292 993 l 347 928 l 385 971 b 467 997 406 993 418 997 m 597 219 b 650 168 638 219 650 207 l 650 53 b 597 0 650 14 638 0 l 89 0 b 35 53 49 0 35 14 l 35 161 b 56 217 35 183 42 201 l 313 503 l 96 503 b 43 554 56 503 43 515 l 43 669 b 96 722 43 708 56 722 l 590 722 b 643 669 629 722 643 708 l 643 561 b 615 497 643 540 633 518 l 351 219 "},"ſ":{"ha":463,"x_min":0,"x_max":0,"o":"m 118 726 b 471 1028 118 933 236 1028 b 526 974 511 1028 526 1014 l 526 872 b 471 817 526 832 514 817 b 376 722 408 817 376 785 l 376 53 b 322 0 376 14 363 0 l 172 0 b 118 53 132 0 118 14 l 118 511 l 74 511 b 19 565 33 511 19 525 l 19 669 b 74 722 19 708 33 722 l 118 722 "},"ƒ":{"ha":669,"x_min":0,"x_max":0,"o":"m 217 700 b 594 1028 239 910 363 1028 b 649 974 635 1028 649 1014 l 649 856 b 594 800 649 815 635 800 b 474 693 511 800 483 771 l 463 589 l 567 589 b 621 535 607 589 621 575 l 621 414 b 567 361 621 374 607 361 l 440 361 l 404 22 b 26 -306 382 -187 258 -306 b -28 -251 -14 -306 -28 -292 l -28 -133 b 26 -78 -28 -93 -14 -78 b 147 29 108 -78 138 -44 l 181 361 l 90 361 b 38 414 50 361 38 374 l 38 535 b 90 589 38 575 50 589 l 204 589 "},"Ǻ":{"ha":954,"x_min":0,"x_max":0,"o":"m 525 1364 b 611 1363 563 1381 590 1381 l 675 1300 b 668 1260 697 1279 694 1267 l 433 1201 b 372 1206 403 1194 382 1196 l 336 1242 b 351 1286 318 1260 322 1274 m 300 1001 b 503 1183 300 1114 382 1183 b 701 1001 621 1183 701 1111 b 654 897 701 958 686 924 l 972 57 b 932 0 988 19 975 0 l 782 0 b 678 58 711 0 689 14 l 646 158 l 346 158 l 314 58 b 213 0 299 14 279 0 l 67 0 b 29 57 26 0 14 19 l 349 897 b 300 1001 317 924 300 958 m 543 964 b 504 1061 578 999 551 1061 b 443 1004 467 1061 443 1039 b 504 947 443 971 467 947 b 543 964 519 947 533 953 m 532 539 b 503 706 515 594 504 668 l 501 733 l 488 733 b 461 540 489 667 479 603 l 410 376 l 583 376 "},"ǻ":{"ha":735,"x_min":0,"x_max":0,"o":"m 376 1274 b 463 1271 413 1290 442 1289 l 531 1214 b 525 1172 554 1193 551 1179 l 290 1110 b 231 1114 261 1101 242 1103 l 193 1147 b 196 1186 171 1167 175 1175 m 186 932 b 363 1090 186 1031 257 1090 b 533 932 464 1090 533 1028 b 363 776 533 836 464 776 b 186 932 257 776 186 836 m 408 932 b 363 981 408 961 389 981 b 311 932 331 981 311 961 b 363 886 311 904 331 886 b 408 932 390 886 408 904 m 56 599 b 364 743 106 694 208 743 b 688 443 597 743 688 633 l 688 101 b 635 18 688 51 678 35 b 360 -21 574 -8 482 -21 b 100 33 233 -21 147 -3 b 29 210 53 69 29 128 b 107 392 29 297 56 358 b 367 442 158 425 244 442 b 429 440 383 442 419 440 l 429 475 b 351 546 429 522 403 546 b 261 499 314 546 285 531 b 185 481 240 471 231 465 l 85 522 b 56 599 46 539 38 558 m 429 265 b 356 267 417 267 393 267 b 282 211 307 267 282 249 b 353 156 282 176 299 156 b 422 160 385 156 408 157 b 429 167 426 160 429 163 "},"Ǽ":{"ha":1257,"x_min":0,"x_max":0,"o":"m 917 1269 b 1008 1265 956 1292 986 1290 l 1079 1185 b 1071 1129 1103 1158 1106 1140 l 819 1051 b 756 1058 786 1040 768 1040 l 717 1104 b 721 1157 699 1128 700 1144 m 1175 243 b 1233 185 1219 243 1233 229 l 1233 58 b 1175 0 1233 15 1219 0 l 696 0 b 636 58 651 0 636 15 l 636 146 l 358 146 l 299 51 b 190 0 275 11 258 0 l 47 0 b 10 57 4 0 -11 22 l 585 938 b 657 986 608 976 619 986 l 1164 986 b 1222 928 1208 986 1222 971 l 1222 803 b 1164 743 1222 758 1208 743 l 892 743 l 892 619 l 1090 619 b 1149 561 1133 619 1149 604 l 1149 436 b 1090 376 1149 392 1133 376 l 892 376 l 892 243 m 636 582 l 493 356 l 636 356 "},"ǽ":{"ha":1085,"x_min":0,"x_max":0,"o":"m 540 1019 b 632 1017 578 1043 608 1042 l 706 939 b 699 883 729 913 728 893 l 449 800 b 385 804 417 789 394 790 l 344 850 b 347 903 325 874 326 890 m 57 599 b 349 743 107 694 204 743 b 532 690 422 743 483 725 b 719 743 583 725 646 743 b 1054 439 946 743 1054 618 l 1054 363 b 978 290 1054 314 1029 290 l 642 290 l 642 257 b 721 174 642 201 668 174 b 818 226 761 174 793 192 b 897 242 839 256 851 263 l 990 196 b 1017 115 1028 178 1038 151 b 718 -21 965 25 867 -21 b 557 17 658 -21 604 -8 b 344 -21 497 -8 426 -21 b 31 210 83 -15 31 47 b 101 393 31 299 54 360 b 350 442 147 425 231 442 b 404 440 365 442 397 440 l 404 483 b 338 546 404 526 388 546 b 260 496 307 546 281 529 b 190 481 243 468 235 464 l 86 522 b 57 599 47 539 39 558 m 794 476 b 719 560 794 533 774 560 b 643 476 668 560 643 532 l 643 458 l 794 458 m 406 265 b 343 267 396 267 375 267 b 283 211 297 267 283 249 b 340 156 283 172 294 156 l 406 161 l 406 207 "},"Ǿ":{"ha":947,"x_min":0,"x_max":0,"o":"m 492 1283 b 583 1279 529 1304 560 1303 l 654 1199 b 646 1143 678 1172 679 1154 l 394 1065 b 329 1072 363 1054 344 1054 l 292 1118 b 296 1171 269 1144 269 1156 m 911 1046 b 924 1021 929 1046 933 1038 l 824 869 b 903 618 876 806 903 722 l 903 368 b 476 -21 903 125 749 -19 b 264 17 393 -21 322 -8 l 229 -36 b 181 -58 214 -57 213 -58 l 50 -58 b 39 -32 33 -58 28 -44 l 132 111 b 49 368 76 178 49 264 l 49 618 b 476 1007 49 861 204 1007 b 693 967 560 1007 632 993 l 731 1024 b 778 1046 743 1044 750 1046 m 558 747 b 476 764 536 758 508 764 b 324 631 378 764 324 718 l 324 428 b 326 392 324 421 325 408 m 399 236 b 476 222 424 226 450 222 b 628 356 572 222 628 268 l 628 553 b 626 586 628 568 628 579 "},"ǿ":{"ha":767,"x_min":0,"x_max":0,"o":"m 394 1019 b 486 1017 432 1043 463 1042 l 560 939 b 553 883 582 911 586 894 l 303 800 b 238 804 271 789 249 790 l 199 850 b 201 903 176 876 178 890 m 686 767 b 697 742 704 767 707 758 l 644 658 b 728 439 700 606 728 532 l 728 283 b 383 -21 728 90 607 -21 b 231 1 328 -21 276 -14 l 210 -29 b 165 -49 201 -42 186 -49 l 86 -49 b 74 -24 68 -49 64 -40 l 128 60 b 39 283 68 113 39 188 l 39 439 b 383 743 39 629 161 743 b 543 718 444 743 497 735 l 561 747 b 606 767 569 760 585 767 m 440 538 b 383 554 426 549 407 554 b 297 479 326 554 297 529 l 297 335 l 297 313 m 328 183 b 383 169 340 174 360 169 b 471 243 442 169 471 194 l 471 385 b 469 407 471 390 469 401 "},"Ș":{"ha":899,"x_min":0,"x_max":0,"o":"m 47 696 b 157 922 47 789 83 865 b 460 1007 229 979 331 1007 b 847 813 664 1007 782 946 b 814 735 865 776 854 750 l 675 675 b 600 704 638 658 622 664 b 460 776 576 753 529 776 b 328 704 372 776 328 753 b 510 619 328 650 386 635 b 708 572 596 608 629 604 b 797 517 746 557 775 538 b 879 296 842 474 879 396 b 760 64 879 197 839 119 b 449 -21 679 7 575 -21 b 44 194 232 -21 97 51 b 82 271 29 238 42 256 l 213 318 b 294 288 253 333 274 326 b 451 214 319 239 372 214 b 600 293 550 214 600 240 b 438 375 600 343 547 360 b 324 394 381 383 381 382 b 264 408 297 399 278 404 b 156 458 235 418 182 438 b 78 550 129 479 93 511 b 47 696 61 588 47 636 m 524 -315 b 460 -361 514 -346 492 -361 l 372 -361 b 335 -319 340 -361 331 -349 l 357 -125 b 418 -67 363 -82 378 -67 l 543 -67 b 590 -125 589 -67 606 -86 "},"ș":{"ha":719,"x_min":0,"x_max":0,"o":"m 57 506 b 367 743 57 651 165 743 b 688 594 526 743 633 693 b 658 518 706 560 696 535 l 553 472 b 507 467 531 463 519 458 b 481 492 494 475 497 474 b 381 531 460 518 426 531 b 293 493 314 531 293 521 b 407 447 293 464 317 454 b 714 225 629 429 714 371 b 388 -21 714 74 597 -21 b 57 144 210 -21 100 35 b 90 217 43 179 54 203 l 200 256 b 274 235 246 268 257 263 b 378 190 292 206 326 190 b 478 233 450 190 478 201 b 346 285 478 268 453 278 b 57 506 157 297 57 354 m 447 -258 b 375 -307 432 -297 415 -307 l 294 -307 b 258 -267 261 -307 254 -300 l 272 -118 b 340 -56 276 -69 292 -56 l 458 -56 b 503 -118 504 -56 518 -76 "},"Ț":{"ha":838,"x_min":0,"x_max":0,"o":"m 763 986 b 822 928 807 986 822 971 l 822 803 b 763 743 822 758 807 743 l 557 743 l 557 58 b 497 0 557 15 542 0 l 340 0 b 282 58 296 0 282 15 l 282 743 l 75 743 b 17 803 31 743 17 758 l 17 928 b 75 986 17 971 31 986 m 465 -315 b 399 -361 456 -346 433 -361 l 306 -361 b 265 -319 274 -361 264 -349 l 290 -125 b 356 -67 296 -82 311 -67 l 488 -67 b 538 -125 536 -67 553 -86 "},"ț":{"ha":558,"x_min":0,"x_max":0,"o":"m 328 889 b 382 836 368 889 382 875 l 382 722 l 478 722 b 531 669 518 722 531 708 l 531 565 b 478 511 531 525 518 511 l 382 511 l 382 307 b 476 210 382 233 406 210 b 531 156 519 210 531 196 l 531 36 b 476 -18 531 -4 519 -18 b 122 289 231 -22 122 61 l 122 511 l 63 511 b 10 565 22 511 10 525 l 10 669 b 63 722 10 708 22 722 l 122 722 l 122 836 b 176 889 122 875 136 889 m 363 -315 b 300 -361 353 -346 332 -361 l 211 -361 b 174 -319 182 -361 169 -351 l 196 -125 b 258 -67 201 -82 215 -67 l 382 -67 b 429 -125 428 -67 444 -86 "},"ȷ":{"ha":376,"x_min":0,"x_max":0,"o":"m 263 722 b 318 669 303 722 318 708 l 318 -14 b -36 -319 318 -224 201 -319 b -90 -265 -76 -319 -90 -306 l -90 -147 b -36 -92 -90 -107 -76 -92 b 58 3 26 -92 58 -60 l 58 669 b 114 722 58 708 74 722 "},"ˆ":{"ha":557,"x_min":0,"x_max":0,"o":"m 301 1028 b 400 986 351 1028 363 1024 l 542 844 b 521 797 568 822 564 797 l 404 797 b 313 826 347 797 333 800 l 272 876 l 229 828 b 139 797 207 801 193 797 l 36 797 b 15 844 -7 797 -11 822 l 157 986 b 201 1021 175 1004 189 1017 b 263 1028 213 1025 233 1028 "},"ˇ":{"ha":582,"x_min":0,"x_max":0,"o":"m 538 1026 b 556 979 578 1026 579 1001 l 415 838 b 313 796 376 797 369 796 l 274 796 b 172 838 219 796 210 800 l 32 979 b 49 1026 11 1001 4 1026 l 165 1026 b 257 997 221 1026 235 1021 l 299 949 l 340 996 b 432 1026 363 1022 378 1026 "},"˘":{"ha":399,"x_min":0,"x_max":0,"o":"m 450 944 b 204 797 413 846 331 797 b -40 944 78 797 -3 846 b -17 993 -49 967 -40 983 l 75 1028 b 128 1011 107 1038 113 1035 b 204 965 143 981 169 965 b 279 1011 236 965 261 981 b 329 1028 294 1033 301 1038 l 426 993 b 450 944 451 983 460 967 "},"˙":{"ha":306,"x_min":0,"x_max":0,"o":"m 157 1022 b 261 918 239 1022 261 1000 l 261 907 b 157 803 261 825 239 803 l 149 803 b 44 907 69 803 44 828 l 44 918 b 149 1022 44 997 69 1022 "},"˚":{"ha":333,"x_min":0,"x_max":0,"o":"m -12 914 b 168 1078 -12 1015 61 1078 b 346 914 274 1078 346 1013 b 168 754 346 815 274 754 b -12 914 61 754 -12 814 m 204 879 b 168 964 235 908 211 964 b 115 914 136 964 115 943 b 168 867 115 886 136 867 b 204 879 183 867 194 871 "},"˛":{"ha":350,"x_min":0,"x_max":0,"o":"m 319 6 b 238 -161 258 -61 231 -117 b 264 -186 240 -178 249 -186 b 289 -178 271 -186 279 -183 b 322 -186 304 -168 315 -171 l 350 -251 b 343 -293 357 -269 356 -283 b 188 -342 301 -325 250 -342 b 40 -249 101 -342 53 -311 b 149 1 25 -171 61 -87 "},"˜":{"ha":424,"x_min":0,"x_max":0,"o":"m 421 1015 b 453 983 442 1015 453 1004 b 317 813 453 857 410 813 b 203 842 278 813 240 822 b 132 869 165 860 142 869 b 113 839 119 869 113 860 b 85 813 113 821 103 813 l 0 813 b -32 844 -21 813 -32 824 b 101 1015 -32 968 14 1015 b 218 986 142 1015 181 1006 b 289 957 256 967 279 957 b 310 988 303 957 310 967 b 336 1015 310 1006 318 1015 "},"˝":{"ha":549,"x_min":0,"x_max":0,"o":"m 151 990 b 242 1026 174 1022 204 1033 l 335 1007 b 350 947 372 997 378 971 l 193 815 b 132 794 164 793 156 788 l 71 806 b 53 858 39 813 32 829 m 426 990 b 518 1024 451 1022 482 1033 l 615 999 b 629 939 653 988 658 961 l 461 813 b 399 792 433 790 422 785 l 338 804 b 322 858 304 811 301 835 "},"̦":{"ha":0,"x_min":0,"x_max":0,"o":"m 257 -315 b 194 -361 247 -346 226 -361 l 106 -361 b 68 -319 76 -361 64 -351 l 90 -125 b 153 -67 96 -82 110 -67 l 276 -67 b 324 -125 322 -67 339 -86 "},"π":{"ha":943,"x_min":0,"x_max":0,"o":"m 867 722 b 919 669 907 722 919 710 l 919 551 b 867 497 919 511 907 497 l 838 497 l 838 246 b 860 133 838 201 844 164 b 829 56 876 96 867 71 l 693 0 b 618 26 654 -17 636 -12 b 579 231 592 86 579 154 l 579 497 l 440 497 l 440 53 b 388 0 440 14 428 0 l 235 0 b 182 53 196 0 182 14 l 182 497 b 124 481 167 496 147 490 b 54 504 89 465 69 469 l 6 613 b 31 682 -11 647 -4 665 b 246 722 94 708 167 722 "},"Ё":{"ha":817,"x_min":0,"x_max":0,"o":"m 271 1258 b 372 1160 347 1258 372 1233 l 372 1142 b 271 1042 372 1068 347 1042 l 260 1042 b 160 1142 183 1042 160 1068 l 160 1160 b 260 1258 160 1236 183 1258 m 569 1258 b 669 1160 646 1258 669 1236 l 669 1142 b 569 1042 669 1068 646 1042 l 560 1042 b 457 1142 482 1042 457 1068 l 457 1160 b 560 1258 457 1233 482 1258 m 711 986 b 771 928 756 986 771 971 l 771 803 b 711 743 771 758 756 743 l 344 743 l 344 619 l 638 619 b 697 561 682 619 697 604 l 697 436 b 638 376 697 392 682 376 l 344 376 l 344 243 l 724 243 b 782 185 767 243 782 229 l 782 58 b 724 0 782 15 767 0 l 129 0 b 69 58 85 0 69 15 l 69 928 b 129 986 69 971 85 986 "},"А":{"ha":956,"x_min":0,"x_max":0,"o":"m 971 57 b 931 0 985 19 971 0 l 781 0 b 676 58 710 0 688 14 l 644 158 l 344 158 l 313 58 b 211 0 297 14 278 0 l 65 0 b 28 57 26 0 14 19 l 347 938 b 419 986 360 976 376 986 l 578 986 b 650 940 618 986 638 975 m 531 539 b 501 706 514 594 503 668 l 500 733 l 486 733 b 460 540 488 667 478 603 l 408 376 l 582 376 "},"Б":{"ha":890,"x_min":0,"x_max":0,"o":"m 742 988 b 800 928 785 988 800 972 l 800 819 b 742 761 800 775 785 761 l 344 761 l 344 638 l 543 638 b 867 318 739 638 867 517 b 779 86 867 221 838 143 b 543 0 719 29 642 0 l 128 0 b 69 56 85 0 69 15 l 69 928 b 129 988 69 972 85 988 m 586 319 b 485 411 586 381 553 411 l 344 411 l 344 226 l 485 226 b 586 319 553 226 586 257 "},"В":{"ha":914,"x_min":0,"x_max":0,"o":"m 536 988 b 843 724 729 988 843 892 b 743 519 843 633 810 565 l 743 514 b 883 275 836 474 883 393 b 789 72 883 188 851 121 b 542 0 725 24 643 0 l 129 0 b 69 58 85 0 69 15 l 69 928 b 129 988 69 972 85 988 m 564 686 b 479 764 564 738 536 764 l 344 764 l 344 611 l 479 611 b 564 686 536 611 564 636 m 594 307 b 506 388 594 361 565 388 l 344 388 l 344 225 l 506 225 b 594 307 565 225 594 253 "},"Г":{"ha":738,"x_min":0,"x_max":0,"o":"m 663 986 b 722 928 707 986 722 971 l 722 803 b 663 743 722 758 707 743 l 344 743 l 344 58 b 286 0 344 15 331 0 l 129 0 b 69 58 85 0 69 15 l 69 928 b 129 986 69 971 85 986 "},"Д":{"ha":1096,"x_min":0,"x_max":0,"o":"m 889 986 b 949 928 933 986 949 971 l 949 243 l 1015 243 b 1074 186 1060 243 1074 229 l 1074 -154 b 1015 -212 1074 -197 1060 -212 l 863 -212 b 803 -154 818 -212 803 -197 l 803 0 l 294 0 l 294 -154 b 236 -212 294 -197 279 -212 l 82 -212 b 24 -154 39 -212 24 -197 l 24 186 b 82 243 24 229 39 243 l 113 243 b 197 374 150 275 179 319 b 224 611 215 428 224 507 l 224 928 b 283 986 224 971 239 986 m 493 743 l 493 613 b 428 243 493 458 471 335 l 674 243 l 674 743 "},"Е":{"ha":817,"x_min":0,"x_max":0,"o":"m 711 986 b 771 928 756 986 771 971 l 771 803 b 711 743 771 758 756 743 l 344 743 l 344 619 l 638 619 b 697 561 682 619 697 604 l 697 436 b 638 376 697 392 682 376 l 344 376 l 344 243 l 724 243 b 782 185 767 243 782 229 l 782 58 b 724 0 782 15 767 0 l 129 0 b 69 58 85 0 69 15 l 69 928 b 129 986 69 971 85 986 "},"Ж":{"ha":1358,"x_min":0,"x_max":0,"o":"m 1301 986 b 1335 925 1342 986 1356 963 l 1113 508 b 1175 415 1135 485 1156 453 l 1350 68 b 1314 0 1371 31 1358 0 l 1164 0 b 1040 58 1088 0 1063 10 l 926 314 b 836 378 904 363 888 378 l 825 378 l 825 58 b 767 0 825 15 810 0 l 608 0 b 550 58 565 0 550 15 l 550 378 l 539 378 b 449 314 489 378 471 363 l 335 58 b 211 0 313 10 288 0 l 61 0 b 25 68 17 0 4 31 l 200 415 b 263 508 219 453 240 485 l 40 925 b 74 986 21 965 32 986 l 233 986 b 344 935 307 986 322 979 l 508 618 b 539 619 517 619 526 619 l 550 619 l 550 928 b 608 986 550 971 565 986 l 767 986 b 825 928 810 986 825 971 l 825 619 l 836 619 b 867 618 849 619 860 619 l 1031 935 b 1142 986 1053 979 1068 986 "},"З":{"ha":901,"x_min":0,"x_max":0,"o":"m 847 718 b 739 517 847 624 811 557 b 881 281 846 467 881 392 b 488 -21 881 79 750 -21 b 43 222 253 -21 104 60 b 81 297 28 263 40 285 l 217 346 b 292 308 260 361 276 351 b 465 218 315 249 374 218 b 592 300 558 218 592 243 b 506 382 592 357 565 382 l 374 382 b 314 440 329 382 314 397 l 314 556 b 374 615 314 600 329 615 l 483 615 b 568 692 540 615 568 638 b 460 768 568 743 532 768 b 296 678 374 768 319 738 b 221 640 279 635 261 625 l 83 689 b 47 764 46 701 33 726 b 486 1007 107 926 253 1007 b 847 718 726 1007 847 911 "},"И":{"ha":979,"x_min":0,"x_max":0,"o":"m 850 988 b 910 928 894 988 910 972 l 910 58 b 850 0 910 15 894 0 l 694 0 b 635 60 650 0 635 15 l 635 296 b 639 407 635 340 635 372 b 651 492 643 442 643 453 b 661 532 656 510 658 524 b 674 583 663 540 667 557 b 688 640 681 610 685 628 l 676 640 b 615 482 650 569 631 517 b 546 354 600 447 576 406 l 354 28 b 297 0 344 10 325 0 l 129 0 b 69 58 85 0 69 15 l 69 928 b 129 986 69 971 85 986 l 286 986 b 344 928 331 986 344 971 l 344 690 b 336 518 344 615 342 558 b 293 347 329 478 315 421 l 303 347 b 436 636 353 474 397 571 l 625 960 b 683 988 638 978 657 988 "},"Й":{"ha":979,"x_min":0,"x_max":0,"o":"m 776 1193 b 496 1038 733 1089 640 1038 b 218 1193 353 1038 261 1089 b 246 1244 207 1221 214 1232 l 350 1281 b 410 1263 383 1292 394 1289 b 496 1215 429 1231 458 1215 b 582 1263 533 1215 561 1231 b 638 1282 599 1289 606 1292 l 749 1244 b 776 1193 781 1233 788 1221 m 850 988 b 910 928 894 988 910 972 l 910 58 b 850 0 910 15 894 0 l 694 0 b 635 60 650 0 635 15 l 635 296 b 639 407 635 340 635 372 b 651 492 643 442 643 453 b 661 532 656 510 658 524 b 674 583 663 540 667 557 b 688 640 681 610 685 628 l 676 640 b 615 482 650 569 631 517 b 546 354 600 447 576 406 l 354 28 b 297 0 344 10 325 0 l 129 0 b 69 58 85 0 69 15 l 69 928 b 129 986 69 971 85 986 l 286 986 b 344 928 331 986 344 971 l 344 690 b 336 518 344 615 342 558 b 293 347 329 478 315 421 l 303 347 b 436 636 353 474 397 571 l 625 960 b 683 988 638 978 657 988 "},"К":{"ha":910,"x_min":0,"x_max":0,"o":"m 894 68 b 858 0 915 31 903 0 l 708 0 b 585 58 632 0 607 10 l 464 307 b 369 376 440 357 419 376 l 344 376 l 344 58 b 286 0 344 15 331 0 l 129 0 b 69 58 85 0 69 15 l 69 928 b 129 986 69 971 85 986 l 286 986 b 344 928 331 986 344 971 l 344 619 l 364 619 l 375 619 l 575 935 b 615 978 589 957 603 971 b 686 986 628 983 651 986 l 846 986 b 879 925 889 986 901 963 l 626 522 b 711 415 658 499 688 464 "},"Л":{"ha":969,"x_min":0,"x_max":0,"o":"m 846 986 b 906 928 890 986 906 971 l 906 58 b 846 0 906 15 890 0 l 689 0 b 631 58 644 0 631 15 l 631 743 l 464 743 l 464 613 b 381 181 464 417 436 274 b 174 -10 324 86 264 35 b 94 18 135 -31 117 -22 l 15 160 b 43 240 -6 199 3 218 b 149 344 92 268 118 290 b 193 611 179 399 193 485 l 193 928 b 253 986 193 971 208 986 "},"М":{"ha":1146,"x_min":0,"x_max":0,"o":"m 1017 988 b 1076 929 1061 988 1076 974 l 1076 57 b 1017 0 1076 14 1061 0 l 865 0 b 807 57 821 0 807 14 l 807 256 b 868 619 807 356 828 476 l 853 619 b 811 507 846 596 832 558 b 760 390 790 456 774 417 l 682 233 b 615 193 665 204 650 193 l 522 193 b 456 233 485 193 471 201 l 374 390 b 288 619 344 442 317 518 l 274 619 b 331 254 311 468 331 346 l 331 57 b 271 0 331 14 315 0 l 129 0 b 69 57 85 0 69 14 l 69 929 b 129 988 69 974 85 988 l 260 988 b 342 944 308 988 321 979 l 571 494 l 800 943 b 878 988 818 981 832 988 "},"Н":{"ha":958,"x_min":0,"x_max":0,"o":"m 831 988 b 889 928 874 988 889 972 l 889 58 b 831 0 889 15 874 0 l 672 0 b 614 58 629 0 614 15 l 614 378 l 344 378 l 344 58 b 286 0 344 15 331 0 l 129 0 b 69 58 85 0 69 15 l 69 928 b 129 988 69 972 85 988 l 286 988 b 344 928 331 988 344 972 l 344 621 l 614 621 l 614 928 b 672 988 614 972 629 988 "},"О":{"ha":947,"x_min":0,"x_max":0,"o":"m 46 618 b 474 1007 46 861 201 1007 b 900 618 744 1007 900 861 l 900 368 b 474 -21 900 125 744 -21 b 46 368 201 -21 46 125 m 625 631 b 474 764 625 718 569 764 b 321 631 375 764 321 718 l 321 356 b 474 222 321 268 375 222 b 625 356 569 222 625 268 "},"П":{"ha":951,"x_min":0,"x_max":0,"o":"m 824 986 b 882 928 867 986 882 971 l 882 58 b 824 0 882 15 867 0 l 665 0 b 607 58 622 0 607 15 l 607 743 l 344 743 l 344 58 b 286 0 344 15 331 0 l 129 0 b 69 58 85 0 69 15 l 69 928 b 129 986 69 971 85 986 "},"Р":{"ha":899,"x_min":0,"x_max":0,"o":"m 513 986 b 871 639 731 986 871 857 b 515 296 871 422 733 296 l 344 296 l 344 58 b 286 0 344 15 331 0 l 129 0 b 69 58 85 0 69 15 l 69 928 b 129 986 69 971 85 986 m 482 539 b 586 640 547 539 586 579 b 482 743 586 701 547 743 l 344 743 l 344 539 "},"С":{"ha":904,"x_min":0,"x_max":0,"o":"m 46 618 b 474 1007 46 861 201 1007 b 879 764 683 1007 818 926 b 842 689 894 724 882 701 l 693 636 b 618 674 650 624 633 631 b 474 764 594 733 546 764 b 321 619 367 764 321 718 l 321 367 b 474 222 321 268 367 222 b 618 313 547 222 596 253 b 693 350 635 357 650 365 l 842 297 b 879 222 882 285 894 263 b 474 -21 818 60 683 -21 b 46 368 201 -21 46 125 "},"Т":{"ha":838,"x_min":0,"x_max":0,"o":"m 763 986 b 822 928 807 986 822 971 l 822 803 b 763 743 822 758 807 743 l 557 743 l 557 58 b 497 0 557 15 542 0 l 340 0 b 282 58 296 0 282 15 l 282 743 l 75 743 b 17 803 31 743 17 758 l 17 928 b 75 986 17 971 31 986 "},"У":{"ha":872,"x_min":0,"x_max":0,"o":"m 860 986 b 889 928 896 986 906 967 l 522 51 b 426 0 504 8 488 0 l 250 0 b 221 58 213 0 203 19 l 325 292 l 31 928 b 64 986 13 967 24 986 l 228 986 b 335 935 299 986 317 981 l 469 626 l 597 935 b 694 986 614 981 629 986 "},"Ф":{"ha":1197,"x_min":0,"x_max":0,"o":"m 676 1021 b 736 963 721 1021 736 1006 l 736 903 l 778 903 b 1175 533 1035 903 1175 768 l 1175 458 b 778 90 1175 225 1033 90 l 736 90 l 736 31 b 676 -29 736 -14 721 -29 l 521 -29 b 461 31 476 -29 461 -14 l 461 90 l 419 90 b 22 458 163 90 22 225 l 22 533 b 419 903 22 768 163 903 l 461 903 l 461 963 b 521 1021 461 1006 476 1021 m 432 667 b 303 544 346 667 303 626 l 303 449 b 432 326 303 367 346 326 l 461 326 l 461 667 m 894 544 b 765 667 894 626 851 667 l 736 667 l 736 326 l 765 326 b 894 449 851 326 894 367 "},"Х":{"ha":922,"x_min":0,"x_max":0,"o":"m 917 58 b 888 0 940 29 931 0 l 708 0 b 594 51 636 0 621 6 l 463 279 l 335 51 b 294 10 321 29 307 15 b 219 0 282 3 257 0 l 49 0 b 19 58 8 0 -3 25 l 304 503 l 32 931 b 61 986 11 960 22 986 l 226 986 b 342 938 300 986 315 981 l 467 724 l 590 938 b 697 986 617 982 631 986 l 875 986 b 903 931 913 986 924 960 l 628 503 "},"Ц":{"ha":1017,"x_min":0,"x_max":0,"o":"m 935 243 b 994 186 979 243 994 229 l 994 -154 b 935 -214 994 -199 979 -214 l 792 -214 b 733 -154 747 -214 733 -199 l 733 0 l 129 0 b 69 58 85 0 69 15 l 69 928 b 129 986 69 971 85 986 l 286 986 b 344 928 331 986 344 971 l 344 243 l 603 243 l 603 928 b 663 986 603 971 618 986 l 819 986 b 878 928 864 986 878 971 l 878 243 "},"Ч":{"ha":914,"x_min":0,"x_max":0,"o":"m 785 986 b 843 928 829 986 843 971 l 843 58 b 785 0 843 15 829 0 l 628 0 b 568 58 583 0 568 15 l 568 329 b 426 319 525 322 478 319 b 39 706 158 319 39 449 l 39 928 b 97 986 39 971 53 986 l 254 986 b 314 928 299 986 314 971 l 314 706 b 468 578 314 621 365 578 b 568 588 507 578 540 581 l 568 928 b 628 986 568 971 583 986 "},"Ш":{"ha":1319,"x_min":0,"x_max":0,"o":"m 1192 986 b 1250 928 1235 986 1250 971 l 1250 58 b 1192 0 1250 15 1235 0 l 129 0 b 69 58 85 0 69 15 l 69 928 b 129 986 69 971 85 986 l 286 986 b 344 928 331 986 344 971 l 344 243 l 522 243 l 522 928 b 582 986 522 971 538 986 l 739 986 b 797 928 783 986 797 971 l 797 243 l 975 243 l 975 928 b 1033 986 975 971 990 986 "},"Щ":{"ha":1389,"x_min":0,"x_max":0,"o":"m 1307 243 b 1365 186 1351 243 1365 229 l 1365 -156 b 1307 -214 1365 -200 1351 -214 l 1164 -214 b 1104 -156 1119 -214 1104 -200 l 1104 0 l 129 0 b 69 58 85 0 69 15 l 69 928 b 129 986 69 971 85 986 l 286 986 b 344 928 331 986 344 971 l 344 243 l 522 243 l 522 928 b 582 986 522 971 538 986 l 739 986 b 797 928 783 986 797 971 l 797 243 l 975 243 l 975 928 b 1033 986 975 971 990 986 l 1192 986 b 1250 928 1235 986 1250 971 l 1250 243 "},"Ъ":{"ha":1085,"x_min":0,"x_max":0,"o":"m 701 690 b 1057 347 919 690 1057 564 b 700 0 1057 129 918 0 l 315 0 b 257 58 271 0 257 15 l 257 743 l 75 743 b 17 801 32 743 17 757 l 17 928 b 75 986 17 971 32 986 l 472 986 b 532 928 517 986 532 971 l 532 690 m 668 243 b 772 346 733 243 772 283 b 668 447 772 407 733 447 l 532 447 l 532 243 "},"Ы":{"ha":1304,"x_min":0,"x_max":0,"o":"m 129 0 b 69 58 85 0 69 15 l 69 928 b 129 986 69 971 85 986 l 286 986 b 344 928 331 986 344 971 l 344 690 l 515 690 b 871 347 733 690 871 564 b 513 0 871 129 731 0 m 958 931 b 1014 986 958 971 974 986 l 1178 986 b 1233 931 1218 986 1233 971 l 1233 56 b 1178 0 1233 15 1218 0 l 1014 0 b 958 56 974 0 958 15 m 344 447 l 344 243 l 482 243 b 586 346 547 243 586 285 b 482 447 586 407 547 447 "},"Ь":{"ha":899,"x_min":0,"x_max":0,"o":"m 129 0 b 69 58 85 0 69 15 l 69 928 b 129 986 69 971 85 986 l 286 986 b 344 928 331 986 344 971 l 344 690 l 515 690 b 871 347 733 690 871 564 b 513 0 871 129 731 0 m 344 447 l 344 243 l 482 243 b 586 346 547 243 586 285 b 482 447 586 407 547 447 "},"Э":{"ha":910,"x_min":0,"x_max":0,"o":"m 39 764 b 444 1007 100 926 235 1007 b 872 618 717 1007 872 861 l 872 368 b 444 -21 872 125 717 -21 b 39 222 235 -21 100 60 b 76 297 24 263 36 285 l 213 346 b 288 308 256 361 272 351 b 444 218 311 249 364 218 b 597 351 546 218 597 263 l 597 381 l 365 381 b 307 440 321 381 307 396 l 307 557 b 365 617 307 601 321 617 l 597 617 l 597 640 b 444 768 597 725 546 768 b 288 678 364 768 311 738 b 213 640 272 635 256 625 l 76 689 b 39 764 36 701 24 724 "},"Ю":{"ha":1346,"x_min":0,"x_max":0,"o":"m 469 649 b 882 1007 469 872 625 1007 b 1299 618 1149 1007 1299 861 l 1299 368 b 882 -21 1299 125 1149 -21 b 468 347 625 -21 468 119 l 468 378 l 344 378 l 344 58 b 286 0 344 15 331 0 l 129 0 b 69 58 85 0 69 15 l 69 928 b 129 986 69 971 85 986 l 286 986 b 344 928 331 986 344 971 l 344 621 l 469 621 m 1024 632 b 882 764 1024 719 976 764 b 743 632 793 764 743 717 l 743 354 b 882 222 743 269 793 222 b 1024 354 976 222 1024 267 "},"Я":{"ha":917,"x_min":0,"x_max":0,"o":"m 79 651 b 424 986 79 864 211 986 l 821 986 b 879 928 864 986 879 971 l 879 58 b 821 0 879 15 864 0 l 663 0 b 604 58 619 0 604 15 l 604 328 l 567 328 b 460 257 504 328 482 311 l 378 58 b 256 0 357 10 332 0 l 104 0 b 68 68 58 0 47 22 l 182 306 b 221 369 194 329 208 351 b 79 651 126 425 79 519 m 456 743 b 364 653 396 743 364 708 b 456 564 364 593 394 564 l 604 564 l 604 743 "},"а":{"ha":735,"x_min":0,"x_max":0,"o":"m 56 599 b 364 743 106 694 208 743 b 688 443 597 743 688 633 l 688 101 b 635 18 688 51 678 35 b 360 -21 574 -8 482 -21 b 100 33 233 -21 147 -3 b 29 210 53 69 29 128 b 107 392 29 297 56 358 b 367 442 158 425 244 442 b 429 440 383 442 419 440 l 429 475 b 351 546 429 522 403 546 b 261 499 314 546 285 531 b 185 481 240 471 231 465 l 85 522 b 56 599 46 539 38 558 m 429 265 b 356 267 417 267 393 267 b 282 211 307 267 282 249 b 353 156 282 176 299 156 b 422 160 385 156 408 157 b 429 167 426 160 429 163 "},"б":{"ha":778,"x_min":0,"x_max":0,"o":"m 501 1013 b 601 1029 542 1013 575 1018 b 676 993 644 1047 661 1038 l 713 892 b 679 815 724 849 717 836 b 518 793 649 800 594 793 l 461 793 b 303 675 351 793 303 758 l 303 663 b 432 701 338 689 381 701 b 740 397 619 701 740 585 l 740 283 b 394 -21 740 90 618 -21 b 50 283 172 -21 50 93 l 50 551 b 143 906 50 717 81 835 b 457 1013 204 976 308 1013 m 482 404 b 394 479 482 454 453 479 b 308 404 338 479 308 454 l 308 276 b 394 203 308 228 338 203 b 482 276 453 203 482 228 "},"в":{"ha":751,"x_min":0,"x_max":0,"o":"m 693 517 b 636 378 693 457 674 411 b 722 208 693 340 722 285 b 482 0 722 79 631 0 l 111 0 b 57 53 71 0 57 14 l 57 669 b 111 722 57 708 71 722 l 461 722 b 693 517 607 722 693 644 m 390 450 b 443 500 425 450 443 467 b 390 550 443 533 425 550 l 310 550 l 310 450 m 401 171 b 461 229 440 171 461 194 b 401 283 461 265 442 283 l 310 283 l 310 171 "},"г":{"ha":608,"x_min":0,"x_max":0,"o":"m 540 722 b 593 669 579 722 593 708 l 593 549 b 540 494 593 508 579 494 l 315 494 l 315 53 b 263 0 315 14 303 0 l 110 0 b 57 53 71 0 57 14 l 57 669 b 110 722 57 708 71 722 "},"д":{"ha":900,"x_min":0,"x_max":0,"o":"m 826 211 b 879 157 867 211 879 197 l 879 -140 b 826 -193 879 -179 867 -193 l 682 -193 b 626 -140 642 -193 626 -179 l 626 -15 l 281 -15 l 281 -140 b 226 -193 281 -179 267 -193 l 81 -193 b 28 -140 40 -193 28 -179 l 28 157 b 81 211 28 197 40 211 l 101 211 b 165 436 144 251 165 326 l 165 669 b 217 722 165 708 178 722 l 725 722 b 779 669 765 722 779 708 l 779 211 m 408 436 b 375 211 408 346 397 271 l 519 211 l 519 494 l 408 494 "},"е":{"ha":763,"x_min":0,"x_max":0,"o":"m 38 422 b 385 743 38 629 158 743 b 733 439 614 743 733 617 l 733 363 b 657 290 733 314 708 290 l 296 290 l 296 264 b 386 174 296 204 326 174 b 497 225 433 174 471 190 b 575 239 515 253 529 257 l 671 197 b 697 117 708 179 717 153 b 383 -21 644 25 540 -21 b 38 300 146 -21 38 106 m 474 476 b 385 560 474 532 444 560 b 296 476 325 560 296 532 l 296 458 l 474 458 "},"ж":{"ha":1100,"x_min":0,"x_max":0,"o":"m 638 722 b 692 668 678 722 692 708 l 692 472 l 706 472 l 713 472 l 804 672 b 904 722 822 713 843 722 l 1028 722 b 1071 654 1079 722 1094 700 l 935 374 b 968 322 947 361 958 343 l 1082 71 b 1039 0 1106 22 1094 0 l 911 0 b 810 53 846 0 825 10 l 756 219 b 704 260 746 243 729 257 b 692 261 701 261 697 261 l 692 54 b 638 0 692 14 678 0 l 488 0 b 433 54 447 0 433 14 l 433 261 b 422 260 428 261 424 261 b 369 219 396 258 379 246 l 315 53 b 214 0 300 10 279 0 l 86 0 b 43 71 29 0 19 22 l 157 322 b 190 374 168 343 179 361 l 53 654 b 97 722 32 700 46 722 l 221 722 b 321 672 282 722 304 713 l 413 472 l 421 472 l 433 472 l 433 668 b 488 722 433 708 447 722 "},"з":{"ha":728,"x_min":0,"x_max":0,"o":"m 60 551 b 396 743 100 667 213 743 b 703 519 600 743 703 668 b 628 376 703 446 678 399 l 628 368 b 719 201 689 339 719 283 b 406 -21 719 63 635 -21 b 47 171 219 -21 100 43 b 85 247 31 211 43 236 l 186 278 b 257 249 232 290 244 282 b 386 179 278 203 321 179 b 472 231 453 179 472 196 b 417 274 472 260 454 274 l 326 274 b 279 321 292 274 279 286 l 279 406 b 326 453 279 440 292 453 l 413 453 b 467 494 449 453 467 467 b 397 543 467 528 451 543 b 265 475 329 543 285 521 b 199 443 250 440 244 433 l 97 475 b 60 551 58 488 46 514 "},"и":{"ha":783,"x_min":0,"x_max":0,"o":"m 263 722 b 317 669 303 722 317 708 l 317 557 b 279 319 317 499 304 419 l 288 319 b 358 489 304 365 328 421 l 465 686 b 521 722 475 710 494 722 l 674 722 b 726 669 713 722 726 708 l 726 53 b 674 0 726 14 713 0 l 521 0 b 468 53 481 0 468 14 l 468 165 b 506 403 468 225 481 304 l 497 403 b 421 219 476 344 450 283 l 319 36 b 263 0 308 13 289 0 l 111 0 b 57 53 71 0 57 14 l 57 669 b 111 722 57 708 71 722 "},"й":{"ha":783,"x_min":0,"x_max":0,"o":"m 649 944 b 401 797 611 846 528 797 b 157 944 276 797 194 846 b 181 993 147 972 153 983 l 272 1028 b 326 1011 304 1039 311 1035 b 401 965 343 981 368 965 b 478 1011 433 965 460 981 b 526 1029 493 1035 499 1039 l 624 993 b 649 944 649 985 657 968 m 263 722 b 317 669 303 722 317 708 l 317 557 b 279 319 317 499 304 419 l 288 319 b 358 489 304 365 328 421 l 465 686 b 521 722 475 710 494 722 l 674 722 b 726 669 713 722 726 708 l 726 53 b 674 0 726 14 713 0 l 521 0 b 468 53 481 0 468 14 l 468 165 b 506 403 468 225 481 304 l 497 403 b 421 219 476 344 450 283 l 319 36 b 263 0 308 13 289 0 l 111 0 b 57 53 71 0 57 14 l 57 669 b 111 722 57 708 71 722 "},"к":{"ha":767,"x_min":0,"x_max":0,"o":"m 740 71 b 696 0 764 22 753 0 l 568 0 b 468 53 503 0 485 8 l 404 219 b 344 261 393 247 374 261 l 315 261 l 315 54 b 263 0 315 14 303 0 l 111 0 b 57 54 71 0 57 14 l 57 668 b 111 722 57 708 71 722 l 263 722 b 315 668 303 722 315 708 l 315 472 l 336 472 l 346 472 l 461 672 b 561 722 483 713 501 722 l 685 722 b 729 654 740 722 756 700 l 572 385 b 617 322 588 372 601 351 "},"л":{"ha":782,"x_min":0,"x_max":0,"o":"m 692 722 b 746 669 732 722 746 708 l 746 53 b 692 0 746 14 732 0 l 540 0 b 486 53 500 0 486 14 l 486 494 l 386 494 l 386 444 b 286 71 382 242 349 135 b 164 -15 242 24 215 8 b 97 13 136 -28 114 -18 l 25 140 b 46 201 11 164 18 185 b 97 240 68 214 85 228 b 131 324 108 253 119 281 b 147 490 142 365 147 421 l 147 669 b 200 722 147 708 161 722 "},"м":{"ha":921,"x_min":0,"x_max":0,"o":"m 806 722 b 864 665 851 722 864 708 l 864 53 b 810 0 864 13 850 0 l 686 0 b 631 54 646 0 631 14 l 631 163 b 675 415 631 231 646 314 l 665 415 b 611 279 647 358 629 313 l 557 178 b 490 138 542 146 528 138 l 426 138 b 360 179 389 138 376 146 l 307 279 b 256 415 292 308 274 353 l 246 415 b 289 161 275 301 289 217 l 289 54 b 233 0 289 15 272 0 l 111 0 b 57 53 68 0 57 10 l 57 665 b 117 722 57 708 71 722 l 236 722 b 313 679 279 722 294 713 l 460 403 l 606 678 b 679 722 624 711 639 722 "},"н":{"ha":775,"x_min":0,"x_max":0,"o":"m 665 722 b 718 669 706 722 718 708 l 718 53 b 665 0 718 14 706 0 l 513 0 b 460 53 474 0 460 14 l 460 253 l 315 253 l 315 53 b 263 0 315 14 303 0 l 110 0 b 57 53 69 0 57 14 l 57 669 b 110 722 57 708 69 722 l 263 722 b 315 669 303 722 315 708 l 315 481 l 460 481 l 460 669 b 513 722 460 708 474 722 "},"о":{"ha":767,"x_min":0,"x_max":0,"o":"m 39 439 b 383 743 39 629 161 743 b 728 439 607 743 728 632 l 728 283 b 383 -21 728 90 607 -21 b 39 283 161 -21 39 93 m 471 446 b 383 521 471 496 442 521 b 297 446 326 521 297 496 l 297 276 b 383 203 297 228 326 203 b 471 276 442 203 471 228 "},"п":{"ha":769,"x_min":0,"x_max":0,"o":"m 660 722 b 713 669 699 722 713 708 l 713 53 b 660 0 713 14 699 0 l 507 0 b 454 53 468 0 454 14 l 454 494 l 315 494 l 315 53 b 263 0 315 14 303 0 l 110 0 b 57 53 71 0 57 14 l 57 669 b 110 722 57 708 71 722 "},"р":{"ha":761,"x_min":0,"x_max":0,"o":"m 114 696 b 404 743 193 728 290 743 b 722 443 617 743 722 636 l 722 293 b 399 -21 722 88 611 -21 b 315 -14 386 -21 358 -18 l 315 -251 b 261 -304 315 -292 301 -304 l 110 -304 b 56 -251 69 -304 56 -292 l 56 615 b 114 696 56 661 65 675 m 464 450 b 385 518 464 496 438 518 b 321 511 358 518 336 515 b 315 503 317 510 315 507 l 315 210 b 378 203 336 206 357 203 b 464 279 435 203 464 228 "},"с":{"ha":725,"x_min":0,"x_max":0,"o":"m 39 438 b 383 743 39 631 151 743 b 696 550 549 743 656 665 b 658 475 708 507 699 490 l 529 432 b 453 469 486 419 469 426 b 371 526 438 507 411 526 b 297 451 322 526 297 501 l 297 271 b 371 196 297 221 322 196 b 453 253 411 196 438 215 b 529 288 469 293 486 303 l 663 247 b 699 171 703 235 714 210 b 368 -21 646 43 536 -21 b 39 286 146 -21 39 90 "},"т":{"ha":689,"x_min":0,"x_max":0,"o":"m 619 722 b 672 669 660 722 672 708 l 672 549 b 619 494 672 508 660 494 l 474 494 l 474 53 b 421 0 474 14 461 0 l 268 0 b 215 53 228 0 215 14 l 215 494 l 69 494 b 17 549 29 494 17 508 l 17 669 b 69 722 17 708 29 722 "},"у":{"ha":775,"x_min":0,"x_max":0,"o":"m 675 722 b 728 669 715 722 728 708 l 728 1 b 394 -319 728 -194 624 -319 b 85 -182 246 -319 143 -274 b 111 -101 63 -149 71 -122 l 228 -44 b 304 -62 272 -28 282 -33 b 392 -108 326 -93 356 -108 b 469 -28 443 -108 469 -82 l 469 26 b 375 21 444 22 413 21 b 63 321 165 21 63 128 l 63 669 b 115 722 63 708 75 722 l 268 722 b 321 669 308 722 321 708 l 321 331 b 404 254 321 279 349 254 b 469 260 431 254 451 256 l 469 669 b 522 722 469 708 483 722 "},"ф":{"ha":1057,"x_min":0,"x_max":0,"o":"m 658 742 b 693 743 665 743 678 743 b 1019 411 911 743 1019 632 l 1019 310 b 693 -21 1019 89 911 -21 b 658 -19 678 -21 665 -21 l 658 -253 b 604 -306 658 -292 644 -306 l 453 -306 b 399 -253 413 -306 399 -292 l 399 -19 b 364 -21 392 -21 379 -21 b 38 310 146 -21 38 89 l 38 411 b 364 743 38 632 146 743 b 399 742 379 743 392 743 l 399 974 b 453 1028 399 1014 413 1028 l 604 1028 b 658 974 644 1028 658 1014 m 296 296 b 375 203 296 233 322 203 b 406 204 382 203 400 204 l 406 517 b 375 518 399 518 389 518 b 296 426 322 518 296 488 m 763 426 b 682 518 763 488 736 518 b 651 517 668 518 658 518 l 651 204 b 682 203 657 204 675 203 b 763 296 736 203 763 233 "},"х":{"ha":768,"x_min":0,"x_max":0,"o":"m 718 722 b 754 660 771 722 783 701 l 564 372 l 767 63 b 728 0 796 19 788 0 l 589 0 b 492 46 526 0 514 6 l 403 204 l 317 46 b 221 0 296 6 281 0 l 82 0 b 42 63 21 0 13 19 l 246 371 l 51 660 b 93 722 22 701 36 722 l 229 722 b 328 676 289 722 306 715 l 406 542 l 483 676 b 575 722 506 717 518 722 "},"ц":{"ha":828,"x_min":0,"x_max":0,"o":"m 751 228 b 806 172 792 228 806 213 l 806 -140 b 751 -193 806 -179 792 -193 l 607 -193 b 553 -140 567 -193 553 -179 l 553 0 l 111 0 b 57 53 71 0 57 14 l 57 669 b 111 722 57 708 71 722 l 263 722 b 317 669 303 722 317 708 l 317 228 l 449 228 l 449 669 b 501 722 449 708 461 722 l 654 722 b 707 669 693 722 707 708 l 707 228 "},"ч":{"ha":738,"x_min":0,"x_max":0,"o":"m 32 669 b 86 722 32 708 46 722 l 238 722 b 292 669 278 722 292 708 l 292 496 b 361 429 292 451 315 429 b 414 436 385 429 407 432 l 421 439 l 421 669 b 475 722 421 708 435 722 l 626 722 b 681 669 667 722 681 708 l 681 53 b 626 0 681 14 667 0 l 475 0 b 421 53 435 0 421 14 l 421 208 b 308 201 390 204 353 201 b 32 474 124 201 32 292 "},"ш":{"ha":1094,"x_min":0,"x_max":0,"o":"m 985 722 b 1038 669 1024 722 1038 708 l 1038 53 b 985 0 1038 14 1024 0 l 110 0 b 57 53 71 0 57 14 l 57 669 b 110 722 57 708 71 722 l 263 722 b 315 669 303 722 315 708 l 315 228 l 418 228 l 418 669 b 471 722 418 708 432 722 l 624 722 b 676 669 664 722 676 708 l 676 228 l 779 228 l 779 669 b 832 722 779 708 793 722 "},"щ":{"ha":1158,"x_min":0,"x_max":0,"o":"m 1082 228 b 1136 172 1122 228 1136 213 l 1136 -140 b 1082 -193 1136 -179 1122 -193 l 938 -193 b 883 -140 899 -193 883 -179 l 883 0 l 110 0 b 57 53 71 0 57 14 l 57 669 b 110 722 57 708 71 722 l 263 722 b 315 669 303 722 315 708 l 315 228 l 418 228 l 418 669 b 471 722 418 708 432 722 l 624 722 b 676 669 664 722 676 708 l 676 228 l 779 228 l 779 669 b 832 722 779 708 793 722 l 985 722 b 1038 669 1024 722 1038 708 l 1038 228 "},"ъ":{"ha":871,"x_min":0,"x_max":0,"o":"m 568 535 b 847 267 744 535 847 438 b 568 0 847 94 744 0 l 246 0 b 193 53 207 0 193 14 l 193 503 l 69 503 b 17 557 29 503 17 517 l 17 669 b 69 722 17 708 29 722 l 399 722 b 451 669 438 722 451 708 l 451 535 m 524 204 b 589 267 567 204 589 225 b 524 328 589 307 567 328 l 451 328 l 451 204 "},"ы":{"ha":1060,"x_min":0,"x_max":0,"o":"m 432 535 b 713 267 608 535 713 438 b 432 0 713 94 610 0 l 110 0 b 57 53 71 0 57 14 l 57 669 b 110 722 57 708 71 722 l 263 722 b 315 669 303 722 315 708 l 315 535 m 949 722 b 1001 669 989 722 1001 708 l 1001 53 b 949 0 1001 14 989 0 l 796 0 b 743 53 756 0 743 14 l 743 669 b 796 722 743 708 756 722 m 388 204 b 453 267 431 204 453 225 b 388 328 453 307 431 328 l 315 328 l 315 204 "},"ь":{"ha":735,"x_min":0,"x_max":0,"o":"m 432 535 b 713 267 608 535 713 438 b 432 0 713 94 610 0 l 110 0 b 57 53 71 0 57 14 l 57 669 b 110 722 57 708 71 722 l 263 722 b 315 669 303 722 315 708 l 315 535 m 388 204 b 453 267 431 204 453 225 b 388 328 453 307 431 328 l 315 328 l 315 204 "},"э":{"ha":726,"x_min":0,"x_max":0,"o":"m 49 551 b 367 743 88 667 200 743 b 710 438 596 743 710 631 l 710 286 b 381 -21 710 90 603 -21 b 49 171 214 -21 103 43 b 86 249 33 208 46 235 l 188 279 b 260 253 232 290 247 282 b 367 181 281 214 297 186 b 457 260 426 181 457 207 l 457 271 l 322 272 b 275 319 288 272 275 285 l 275 408 b 322 456 275 443 288 456 l 457 456 l 457 465 b 365 543 457 517 426 543 b 261 471 308 543 283 517 b 188 443 246 442 221 432 l 86 475 b 49 551 49 488 36 514 "},"ю":{"ha":1096,"x_min":0,"x_max":0,"o":"m 379 488 b 715 743 400 653 514 743 b 1057 439 938 743 1057 632 l 1057 283 b 715 -21 1057 90 938 -21 b 379 242 510 -21 394 71 l 378 253 l 315 253 l 315 53 b 263 0 315 14 303 0 l 110 0 b 57 53 69 0 57 14 l 57 669 b 110 722 57 708 69 722 l 263 722 b 315 669 303 722 315 708 l 315 481 l 379 481 m 799 446 b 715 521 799 496 771 521 b 632 446 660 521 632 496 l 632 276 b 715 203 632 228 660 203 b 799 276 771 203 799 228 "},"я":{"ha":761,"x_min":0,"x_max":0,"o":"m 657 722 b 711 669 697 722 711 708 l 711 53 b 657 0 711 14 697 0 l 506 0 b 451 53 465 0 451 14 l 451 214 l 393 214 l 321 51 b 218 0 303 8 283 0 l 88 0 b 44 71 26 0 17 25 l 153 258 b 51 468 85 301 51 371 b 315 722 51 629 153 722 m 365 522 b 313 468 332 522 313 501 b 365 415 313 436 332 415 l 451 415 l 451 522 "},"ё":{"ha":763,"x_min":0,"x_max":0,"o":"m 240 1018 b 343 919 318 1018 343 993 l 343 901 b 240 801 343 828 318 801 l 231 801 b 131 901 154 801 131 828 l 131 919 b 231 1018 131 996 153 1018 m 539 1018 b 640 919 617 1018 640 996 l 640 901 b 539 801 640 828 617 801 l 529 801 b 428 901 453 801 428 828 l 428 919 b 529 1018 428 993 453 1018 m 38 422 b 385 743 38 629 158 743 b 733 439 614 743 733 617 l 733 363 b 657 290 733 314 708 290 l 296 290 l 296 264 b 386 174 296 204 326 174 b 497 225 433 174 471 190 b 575 239 515 253 529 257 l 671 197 b 697 117 708 179 717 153 b 383 -21 644 25 540 -21 b 38 300 146 -21 38 106 m 474 476 b 385 560 474 532 444 560 b 296 476 325 560 296 532 l 296 458 l 474 458 "},"Ẁ":{"ha":1304,"x_min":0,"x_max":0,"o":"m 567 1269 b 658 1274 588 1294 618 1296 l 854 1158 b 857 1106 876 1146 878 1129 l 819 1058 b 756 1053 807 1044 786 1043 l 503 1131 b 496 1186 469 1142 472 1157 m 1256 986 b 1293 929 1296 986 1304 968 l 1072 49 b 1001 0 1063 10 1044 0 l 839 0 b 767 46 799 0 774 15 l 692 369 b 665 619 676 447 667 531 l 654 619 b 624 369 651 533 642 450 l 550 49 b 478 0 539 10 521 0 l 318 0 b 246 46 276 0 253 15 l 26 929 b 64 986 15 968 24 986 l 235 986 b 313 935 286 986 306 975 l 374 571 b 393 325 386 496 393 414 l 403 325 b 429 571 403 410 411 492 l 515 935 b 593 986 525 978 544 986 l 743 986 b 821 935 789 986 811 975 l 906 571 b 932 325 921 503 929 421 l 943 325 b 964 571 946 415 953 497 l 1022 935 b 1101 986 1029 975 1050 986 "}}}
